M48
;Layer_Color=9474304
;FILE_FORMAT=4:4
METRIC,LZ
;TYPE=PLATED
T01F00S00C0.3302
T02F00S00C0.7112
T03F00S00C0.8000
T05F00S00C0.9000
T06F00S00C1.0000
T08F00S00C1.0160
T09F00S00C1.0201
T10F00S00C1.1000
%
T01
X0035306Y0013462
X0058166Y0018669
X0058039Y002921
Y0040005
X0057658Y0050038
X0070104Y0052578
X0070612Y0041783
X0070485Y0030861
Y0020193
X0050419Y0016891
X0046736Y0019685
X0047752Y002794
X0041021Y0029972
X0038862Y0018034
X0035306Y0021463
X0033782Y0042799
X0027559Y0043942
Y0047371
X0023622Y0046228
X002159Y0048895
X0036195Y0051181
X0037084Y0050546
X0015748Y0054483
T02
X0046609Y0018161
X0048895Y0016891
X0041021Y0028067
X0034036Y0044577
X0027813Y004572
X0024892Y004699
T03
X00089881Y00169602
Y00185602
X00101918Y001936
Y00177601
Y00161601
T05
X0048895Y0039676
Y0046176
T06
X0006858Y003
Y00335
T08
X0028194Y0004953
X0030734
X0033274
X0035814
X0038862Y0032385
Y0034925
Y0037465
Y0040005
X0011684Y0040386
Y0042926
Y0045466
Y0048006
T09
X0020828Y0005969
X0023368
X0019558Y0019304
X0017018
X0016002Y0031877
X0018542
T10
X00381Y001016
X004064
X004318
X004572
X004826
X00508
X005588
X005842
X006096
X00635
X006604
X006858
X0032766Y0029972
X0030226
X0027686
X0026416Y005842
X0023876
X0028956
X0031496
X0034036
X0036576
X0039116
X0041656
X0044196
X0046736
X00508
X005334
X005588
X005842
X006096
X00635
X006604
X006858
M30
