G04*
G04 #@! TF.GenerationSoftware,Altium Limited,Altium Designer,23.10.1 (27)*
G04*
G04 Layer_Physical_Order=3*
G04 Layer_Color=16440176*
%FSLAX44Y44*%
%MOMM*%
G71*
G04*
G04 #@! TF.SameCoordinates,2AE02515-478E-4FF6-B523-2722CBD37BA3*
G04*
G04*
G04 #@! TF.FilePolarity,Positive*
G04*
G01*
G75*
%ADD45C,1.6000*%
%ADD46C,1.7780*%
%ADD47C,1.6500*%
%ADD48C,1.6200*%
%ADD49C,1.5240*%
%ADD50O,2.4000X1.2000*%
%ADD51C,1.2000*%
%ADD52O,2.0000X3.8000*%
%ADD53O,3.3000X1.8000*%
%ADD54C,2.0000*%
%ADD55C,0.6350*%
%ADD56C,1.2700*%
G36*
X731421Y5179D02*
X132538D01*
X132179Y6449D01*
X133860Y8640D01*
X135023Y11447D01*
X135252Y13190D01*
X97308D01*
X97537Y11447D01*
X98700Y8640D01*
X100381Y6449D01*
X100022Y5179D01*
X5179D01*
Y629821D01*
X731421D01*
Y5179D01*
D02*
G37*
%LPC*%
G36*
X316298Y594360D02*
X316230D01*
Y585470D01*
X325120D01*
Y585538D01*
X324428Y588122D01*
X323090Y590438D01*
X321198Y592330D01*
X318882Y593668D01*
X316298Y594360D01*
D02*
G37*
G36*
X313690D02*
X313622D01*
X311038Y593668D01*
X308722Y592330D01*
X306830Y590438D01*
X305492Y588122D01*
X304800Y585538D01*
Y585470D01*
X313690D01*
Y594360D01*
D02*
G37*
G36*
X687138D02*
X684462D01*
X681878Y593668D01*
X679562Y592330D01*
X677670Y590438D01*
X676332Y588122D01*
X675640Y585538D01*
Y582862D01*
X676332Y580278D01*
X677670Y577962D01*
X679562Y576070D01*
X681878Y574732D01*
X684462Y574040D01*
X687138D01*
X689722Y574732D01*
X692038Y576070D01*
X693930Y577962D01*
X695268Y580278D01*
X695960Y582862D01*
Y585538D01*
X695268Y588122D01*
X693930Y590438D01*
X692038Y592330D01*
X689722Y593668D01*
X687138Y594360D01*
D02*
G37*
G36*
X661738D02*
X659062D01*
X656478Y593668D01*
X654162Y592330D01*
X652270Y590438D01*
X650932Y588122D01*
X650240Y585538D01*
Y582862D01*
X650932Y580278D01*
X652270Y577962D01*
X654162Y576070D01*
X656478Y574732D01*
X659062Y574040D01*
X661738D01*
X664322Y574732D01*
X666638Y576070D01*
X668530Y577962D01*
X669868Y580278D01*
X670560Y582862D01*
Y585538D01*
X669868Y588122D01*
X668530Y590438D01*
X666638Y592330D01*
X664322Y593668D01*
X661738Y594360D01*
D02*
G37*
G36*
X636338D02*
X633662D01*
X631078Y593668D01*
X628762Y592330D01*
X626870Y590438D01*
X625532Y588122D01*
X624840Y585538D01*
Y582862D01*
X625532Y580278D01*
X626870Y577962D01*
X628762Y576070D01*
X631078Y574732D01*
X633662Y574040D01*
X636338D01*
X638922Y574732D01*
X641238Y576070D01*
X643130Y577962D01*
X644468Y580278D01*
X645160Y582862D01*
Y585538D01*
X644468Y588122D01*
X643130Y590438D01*
X641238Y592330D01*
X638922Y593668D01*
X636338Y594360D01*
D02*
G37*
G36*
X610938D02*
X608262D01*
X605678Y593668D01*
X603362Y592330D01*
X601470Y590438D01*
X600132Y588122D01*
X599440Y585538D01*
Y582862D01*
X600132Y580278D01*
X601470Y577962D01*
X603362Y576070D01*
X605678Y574732D01*
X608262Y574040D01*
X610938D01*
X613522Y574732D01*
X615838Y576070D01*
X617730Y577962D01*
X619068Y580278D01*
X619760Y582862D01*
Y585538D01*
X619068Y588122D01*
X617730Y590438D01*
X615838Y592330D01*
X613522Y593668D01*
X610938Y594360D01*
D02*
G37*
G36*
X585538D02*
X582862D01*
X580278Y593668D01*
X577962Y592330D01*
X576070Y590438D01*
X574732Y588122D01*
X574040Y585538D01*
Y582862D01*
X574732Y580278D01*
X576070Y577962D01*
X577962Y576070D01*
X580278Y574732D01*
X582862Y574040D01*
X585538D01*
X588122Y574732D01*
X590438Y576070D01*
X592330Y577962D01*
X593668Y580278D01*
X594360Y582862D01*
Y585538D01*
X593668Y588122D01*
X592330Y590438D01*
X590438Y592330D01*
X588122Y593668D01*
X585538Y594360D01*
D02*
G37*
G36*
X560138D02*
X557462D01*
X554878Y593668D01*
X552562Y592330D01*
X550670Y590438D01*
X549332Y588122D01*
X548640Y585538D01*
Y582862D01*
X549332Y580278D01*
X550670Y577962D01*
X552562Y576070D01*
X554878Y574732D01*
X557462Y574040D01*
X560138D01*
X562722Y574732D01*
X565038Y576070D01*
X566930Y577962D01*
X568268Y580278D01*
X568960Y582862D01*
Y585538D01*
X568268Y588122D01*
X566930Y590438D01*
X565038Y592330D01*
X562722Y593668D01*
X560138Y594360D01*
D02*
G37*
G36*
X534738D02*
X532062D01*
X529478Y593668D01*
X527162Y592330D01*
X525270Y590438D01*
X523932Y588122D01*
X523240Y585538D01*
Y582862D01*
X523932Y580278D01*
X525270Y577962D01*
X527162Y576070D01*
X529478Y574732D01*
X532062Y574040D01*
X534738D01*
X537322Y574732D01*
X539638Y576070D01*
X541530Y577962D01*
X542868Y580278D01*
X543560Y582862D01*
Y585538D01*
X542868Y588122D01*
X541530Y590438D01*
X539638Y592330D01*
X537322Y593668D01*
X534738Y594360D01*
D02*
G37*
G36*
X509338D02*
X506662D01*
X504078Y593668D01*
X501762Y592330D01*
X499870Y590438D01*
X498532Y588122D01*
X497840Y585538D01*
Y582862D01*
X498532Y580278D01*
X499870Y577962D01*
X501762Y576070D01*
X504078Y574732D01*
X506662Y574040D01*
X509338D01*
X511922Y574732D01*
X514238Y576070D01*
X516130Y577962D01*
X517468Y580278D01*
X518160Y582862D01*
Y585538D01*
X517468Y588122D01*
X516130Y590438D01*
X514238Y592330D01*
X511922Y593668D01*
X509338Y594360D01*
D02*
G37*
G36*
X468698D02*
X466022D01*
X463438Y593668D01*
X461122Y592330D01*
X459230Y590438D01*
X457892Y588122D01*
X457200Y585538D01*
Y582862D01*
X457892Y580278D01*
X459230Y577962D01*
X461122Y576070D01*
X463438Y574732D01*
X466022Y574040D01*
X468698D01*
X471282Y574732D01*
X473598Y576070D01*
X475490Y577962D01*
X476828Y580278D01*
X477520Y582862D01*
Y585538D01*
X476828Y588122D01*
X475490Y590438D01*
X473598Y592330D01*
X471282Y593668D01*
X468698Y594360D01*
D02*
G37*
G36*
X443298D02*
X440622D01*
X438038Y593668D01*
X435722Y592330D01*
X433830Y590438D01*
X432492Y588122D01*
X431800Y585538D01*
Y582862D01*
X432492Y580278D01*
X433830Y577962D01*
X435722Y576070D01*
X438038Y574732D01*
X440622Y574040D01*
X443298D01*
X445882Y574732D01*
X448198Y576070D01*
X450090Y577962D01*
X451428Y580278D01*
X452120Y582862D01*
Y585538D01*
X451428Y588122D01*
X450090Y590438D01*
X448198Y592330D01*
X445882Y593668D01*
X443298Y594360D01*
D02*
G37*
G36*
X417898D02*
X415222D01*
X412638Y593668D01*
X410322Y592330D01*
X408430Y590438D01*
X407092Y588122D01*
X406400Y585538D01*
Y582862D01*
X407092Y580278D01*
X408430Y577962D01*
X410322Y576070D01*
X412638Y574732D01*
X415222Y574040D01*
X417898D01*
X420482Y574732D01*
X422798Y576070D01*
X424690Y577962D01*
X426028Y580278D01*
X426720Y582862D01*
Y585538D01*
X426028Y588122D01*
X424690Y590438D01*
X422798Y592330D01*
X420482Y593668D01*
X417898Y594360D01*
D02*
G37*
G36*
X392498D02*
X389822D01*
X387238Y593668D01*
X384922Y592330D01*
X383030Y590438D01*
X381692Y588122D01*
X381000Y585538D01*
Y582862D01*
X381692Y580278D01*
X383030Y577962D01*
X384922Y576070D01*
X387238Y574732D01*
X389822Y574040D01*
X392498D01*
X395082Y574732D01*
X397398Y576070D01*
X399290Y577962D01*
X400628Y580278D01*
X401320Y582862D01*
Y585538D01*
X400628Y588122D01*
X399290Y590438D01*
X397398Y592330D01*
X395082Y593668D01*
X392498Y594360D01*
D02*
G37*
G36*
X367098D02*
X364422D01*
X361838Y593668D01*
X359522Y592330D01*
X357630Y590438D01*
X356292Y588122D01*
X355600Y585538D01*
Y582862D01*
X356292Y580278D01*
X357630Y577962D01*
X359522Y576070D01*
X361838Y574732D01*
X364422Y574040D01*
X367098D01*
X369682Y574732D01*
X371998Y576070D01*
X373890Y577962D01*
X375228Y580278D01*
X375920Y582862D01*
Y585538D01*
X375228Y588122D01*
X373890Y590438D01*
X371998Y592330D01*
X369682Y593668D01*
X367098Y594360D01*
D02*
G37*
G36*
X341698D02*
X339022D01*
X336438Y593668D01*
X334122Y592330D01*
X332230Y590438D01*
X330892Y588122D01*
X330200Y585538D01*
Y582862D01*
X330892Y580278D01*
X332230Y577962D01*
X334122Y576070D01*
X336438Y574732D01*
X339022Y574040D01*
X341698D01*
X344282Y574732D01*
X346598Y576070D01*
X348490Y577962D01*
X349828Y580278D01*
X350520Y582862D01*
Y585538D01*
X349828Y588122D01*
X348490Y590438D01*
X346598Y592330D01*
X344282Y593668D01*
X341698Y594360D01*
D02*
G37*
G36*
X325120Y582930D02*
X316230D01*
Y574040D01*
X316298D01*
X318882Y574732D01*
X321198Y576070D01*
X323090Y577962D01*
X324428Y580278D01*
X325120Y582862D01*
Y582930D01*
D02*
G37*
G36*
X313690D02*
X304800D01*
Y582862D01*
X305492Y580278D01*
X306830Y577962D01*
X308722Y576070D01*
X311038Y574732D01*
X313622Y574040D01*
X313690D01*
Y582930D01*
D02*
G37*
G36*
X290898Y594360D02*
X288222D01*
X285638Y593668D01*
X283322Y592330D01*
X281430Y590438D01*
X280092Y588122D01*
X279400Y585538D01*
Y582862D01*
X280092Y580278D01*
X281430Y577962D01*
X283322Y576070D01*
X285638Y574732D01*
X288222Y574040D01*
X290898D01*
X293482Y574732D01*
X295798Y576070D01*
X297690Y577962D01*
X299028Y580278D01*
X299720Y582862D01*
Y585538D01*
X299028Y588122D01*
X297690Y590438D01*
X295798Y592330D01*
X293482Y593668D01*
X290898Y594360D01*
D02*
G37*
G36*
X265498D02*
X262822D01*
X260238Y593668D01*
X257922Y592330D01*
X256030Y590438D01*
X254692Y588122D01*
X254000Y585538D01*
Y582862D01*
X254692Y580278D01*
X256030Y577962D01*
X257922Y576070D01*
X260238Y574732D01*
X262822Y574040D01*
X265498D01*
X268082Y574732D01*
X270398Y576070D01*
X272290Y577962D01*
X273628Y580278D01*
X274320Y582862D01*
Y585538D01*
X273628Y588122D01*
X272290Y590438D01*
X270398Y592330D01*
X268082Y593668D01*
X265498Y594360D01*
D02*
G37*
G36*
X240098D02*
X237422D01*
X234838Y593668D01*
X232522Y592330D01*
X230630Y590438D01*
X229292Y588122D01*
X228600Y585538D01*
Y582862D01*
X229292Y580278D01*
X230630Y577962D01*
X232522Y576070D01*
X234838Y574732D01*
X237422Y574040D01*
X240098D01*
X242682Y574732D01*
X244998Y576070D01*
X246890Y577962D01*
X248228Y580278D01*
X248920Y582862D01*
Y585538D01*
X248228Y588122D01*
X246890Y590438D01*
X244998Y592330D01*
X242682Y593668D01*
X240098Y594360D01*
D02*
G37*
G36*
X118345Y491490D02*
X118110D01*
Y481330D01*
X128270D01*
Y481565D01*
X127491Y484472D01*
X125986Y487078D01*
X123858Y489206D01*
X121252Y490711D01*
X118345Y491490D01*
D02*
G37*
G36*
X115570D02*
X115335D01*
X112428Y490711D01*
X109822Y489206D01*
X107694Y487078D01*
X106189Y484472D01*
X105410Y481565D01*
Y481330D01*
X115570D01*
Y491490D01*
D02*
G37*
G36*
X128270Y478790D02*
X118110D01*
Y468630D01*
X118345D01*
X121252Y469409D01*
X123858Y470914D01*
X125986Y473042D01*
X127491Y475648D01*
X128270Y478555D01*
Y478790D01*
D02*
G37*
G36*
X115570D02*
X105410D01*
Y478555D01*
X106189Y475648D01*
X107694Y473042D01*
X109822Y470914D01*
X112428Y469409D01*
X115335Y468630D01*
X115570D01*
Y478790D01*
D02*
G37*
G36*
X250090D02*
X247750D01*
X245489Y478184D01*
X243461Y477014D01*
X241806Y475359D01*
X240636Y473331D01*
X240030Y471070D01*
Y468730D01*
X240636Y466469D01*
X241806Y464441D01*
X243461Y462786D01*
X245489Y461616D01*
X247750Y461010D01*
X250090D01*
X252351Y461616D01*
X254379Y462786D01*
X256034Y464441D01*
X257204Y466469D01*
X257810Y468730D01*
Y471070D01*
X257204Y473331D01*
X256034Y475359D01*
X254379Y477014D01*
X252351Y478184D01*
X250090Y478790D01*
D02*
G37*
G36*
X118345Y466090D02*
X118110D01*
Y455930D01*
X128270D01*
Y456165D01*
X127491Y459072D01*
X125986Y461678D01*
X123858Y463806D01*
X121252Y465311D01*
X118345Y466090D01*
D02*
G37*
G36*
X115570D02*
X115335D01*
X112428Y465311D01*
X109822Y463806D01*
X107694Y461678D01*
X106189Y459072D01*
X105410Y456165D01*
Y455930D01*
X115570D01*
Y466090D01*
D02*
G37*
G36*
X490338Y472300D02*
X487562D01*
X484882Y471582D01*
X482478Y470194D01*
X480516Y468232D01*
X479128Y465828D01*
X478410Y463148D01*
Y460372D01*
X479128Y457692D01*
X480516Y455288D01*
X482478Y453326D01*
X484882Y451938D01*
X487562Y451220D01*
X490338D01*
X493018Y451938D01*
X495422Y453326D01*
X497384Y455288D01*
X498772Y457692D01*
X499490Y460372D01*
Y463148D01*
X498772Y465828D01*
X497384Y468232D01*
X495422Y470194D01*
X493018Y471582D01*
X490338Y472300D01*
D02*
G37*
G36*
X279300Y466090D02*
X276960D01*
X274699Y465484D01*
X272671Y464314D01*
X271016Y462659D01*
X269846Y460631D01*
X269240Y458370D01*
Y456030D01*
X269846Y453769D01*
X271016Y451741D01*
X272671Y450086D01*
X274699Y448916D01*
X276960Y448310D01*
X279300D01*
X281561Y448916D01*
X283589Y450086D01*
X285244Y451741D01*
X286414Y453769D01*
X287020Y456030D01*
Y458370D01*
X286414Y460631D01*
X285244Y462659D01*
X283589Y464314D01*
X281561Y465484D01*
X279300Y466090D01*
D02*
G37*
G36*
X128270Y453390D02*
X118110D01*
Y443230D01*
X118345D01*
X121252Y444009D01*
X123858Y445514D01*
X125986Y447642D01*
X127491Y450248D01*
X128270Y453155D01*
Y453390D01*
D02*
G37*
G36*
X115570D02*
X105410D01*
Y453155D01*
X106189Y450248D01*
X107694Y447642D01*
X109822Y445514D01*
X112428Y444009D01*
X115335Y443230D01*
X115570D01*
Y453390D01*
D02*
G37*
G36*
X341530Y454660D02*
X339190D01*
X336929Y454054D01*
X334901Y452884D01*
X333246Y451229D01*
X332076Y449201D01*
X331470Y446940D01*
Y444600D01*
X332076Y442339D01*
X333246Y440311D01*
X334901Y438656D01*
X336929Y437486D01*
X339190Y436880D01*
X341530D01*
X343791Y437486D01*
X345819Y438656D01*
X347474Y440311D01*
X348644Y442339D01*
X349250Y444600D01*
Y446940D01*
X348644Y449201D01*
X347474Y451229D01*
X345819Y452884D01*
X343791Y454054D01*
X341530Y454660D01*
D02*
G37*
G36*
X118345Y440690D02*
X118110D01*
Y430530D01*
X128270D01*
Y430765D01*
X127491Y433672D01*
X125986Y436278D01*
X123858Y438406D01*
X121252Y439911D01*
X118345Y440690D01*
D02*
G37*
G36*
X115570D02*
X115335D01*
X112428Y439911D01*
X109822Y438406D01*
X107694Y436278D01*
X106189Y433672D01*
X105410Y430765D01*
Y430530D01*
X115570D01*
Y440690D01*
D02*
G37*
G36*
X128270Y427990D02*
X118110D01*
Y417830D01*
X118345D01*
X121252Y418609D01*
X123858Y420114D01*
X125986Y422242D01*
X127491Y424848D01*
X128270Y427755D01*
Y427990D01*
D02*
G37*
G36*
X115570D02*
X105410D01*
Y427755D01*
X106189Y424848D01*
X107694Y422242D01*
X109822Y420114D01*
X112428Y418609D01*
X115335Y417830D01*
X115570D01*
Y427990D01*
D02*
G37*
G36*
X390125Y411480D02*
X389890D01*
Y401320D01*
X400050D01*
Y401555D01*
X399271Y404462D01*
X397766Y407068D01*
X395638Y409196D01*
X393032Y410701D01*
X390125Y411480D01*
D02*
G37*
G36*
X387350D02*
X387115D01*
X384208Y410701D01*
X381602Y409196D01*
X379474Y407068D01*
X377969Y404462D01*
X377190Y401555D01*
Y401320D01*
X387350D01*
Y411480D01*
D02*
G37*
G36*
X490338Y407300D02*
X490220D01*
Y398030D01*
X499490D01*
Y398148D01*
X498772Y400828D01*
X497384Y403232D01*
X495422Y405194D01*
X493018Y406582D01*
X490338Y407300D01*
D02*
G37*
G36*
X487680D02*
X487562D01*
X484882Y406582D01*
X482478Y405194D01*
X480516Y403232D01*
X479128Y400828D01*
X478410Y398148D01*
Y398030D01*
X487680D01*
Y407300D01*
D02*
G37*
G36*
X118345Y415290D02*
X115335D01*
X112428Y414511D01*
X109822Y413006D01*
X107694Y410878D01*
X106189Y408272D01*
X105410Y405365D01*
Y402355D01*
X106189Y399448D01*
X107694Y396842D01*
X109822Y394714D01*
X112428Y393209D01*
X115335Y392430D01*
X118345D01*
X121252Y393209D01*
X123858Y394714D01*
X125986Y396842D01*
X127491Y399448D01*
X128270Y402355D01*
Y405365D01*
X127491Y408272D01*
X125986Y410878D01*
X123858Y413006D01*
X121252Y414511D01*
X118345Y415290D01*
D02*
G37*
G36*
X400050Y398780D02*
X389890D01*
Y388620D01*
X390125D01*
X393032Y389399D01*
X395638Y390904D01*
X397766Y393032D01*
X399271Y395638D01*
X400050Y398545D01*
Y398780D01*
D02*
G37*
G36*
X387350D02*
X377190D01*
Y398545D01*
X377969Y395638D01*
X379474Y393032D01*
X381602Y390904D01*
X384208Y389399D01*
X387115Y388620D01*
X387350D01*
Y398780D01*
D02*
G37*
G36*
X499490Y395490D02*
X490220D01*
Y386220D01*
X490338D01*
X493018Y386938D01*
X495422Y388326D01*
X497384Y390288D01*
X498772Y392692D01*
X499490Y395372D01*
Y395490D01*
D02*
G37*
G36*
X487680D02*
X478410D01*
Y395372D01*
X479128Y392692D01*
X480516Y390288D01*
X482478Y388326D01*
X484882Y386938D01*
X487562Y386220D01*
X487680D01*
Y395490D01*
D02*
G37*
G36*
X390125Y386080D02*
X389890D01*
Y375920D01*
X400050D01*
Y376155D01*
X399271Y379062D01*
X397766Y381668D01*
X395638Y383796D01*
X393032Y385301D01*
X390125Y386080D01*
D02*
G37*
G36*
X387350D02*
X387115D01*
X384208Y385301D01*
X381602Y383796D01*
X379474Y381668D01*
X377969Y379062D01*
X377190Y376155D01*
Y375920D01*
X387350D01*
Y386080D01*
D02*
G37*
G36*
X400050Y373380D02*
X389890D01*
Y363220D01*
X390125D01*
X393032Y363999D01*
X395638Y365504D01*
X397766Y367632D01*
X399271Y370238D01*
X400050Y373145D01*
Y373380D01*
D02*
G37*
G36*
X387350D02*
X377190D01*
Y373145D01*
X377969Y370238D01*
X379474Y367632D01*
X381602Y365504D01*
X384208Y363999D01*
X387115Y363220D01*
X387350D01*
Y373380D01*
D02*
G37*
G36*
X390125Y360680D02*
X389890D01*
Y350520D01*
X400050D01*
Y350755D01*
X399271Y353662D01*
X397766Y356268D01*
X395638Y358396D01*
X393032Y359901D01*
X390125Y360680D01*
D02*
G37*
G36*
X387350D02*
X387115D01*
X384208Y359901D01*
X381602Y358396D01*
X379474Y356268D01*
X377969Y353662D01*
X377190Y350755D01*
Y350520D01*
X387350D01*
Y360680D01*
D02*
G37*
G36*
X400050Y347980D02*
X389890D01*
Y337820D01*
X390125D01*
X393032Y338599D01*
X395638Y340104D01*
X397766Y342232D01*
X399271Y344838D01*
X400050Y347745D01*
Y347980D01*
D02*
G37*
G36*
X387350D02*
X377190D01*
Y347745D01*
X377969Y344838D01*
X379474Y342232D01*
X381602Y340104D01*
X384208Y338599D01*
X387115Y337820D01*
X387350D01*
Y347980D01*
D02*
G37*
G36*
X70231Y347540D02*
X69850D01*
Y336270D01*
X81120D01*
Y336651D01*
X80265Y339840D01*
X78615Y342700D01*
X76280Y345034D01*
X73420Y346685D01*
X70231Y347540D01*
D02*
G37*
G36*
X67310D02*
X66929D01*
X63740Y346685D01*
X60880Y345034D01*
X58545Y342700D01*
X56895Y339840D01*
X56040Y336651D01*
Y336270D01*
X67310D01*
Y347540D01*
D02*
G37*
G36*
X81120Y333730D02*
X69850D01*
Y322460D01*
X70231D01*
X73420Y323315D01*
X76280Y324966D01*
X78615Y327300D01*
X80265Y330160D01*
X81120Y333349D01*
Y333730D01*
D02*
G37*
G36*
X67310D02*
X56040D01*
Y333349D01*
X56895Y330160D01*
X58545Y327300D01*
X60880Y324966D01*
X63740Y323315D01*
X66929Y322460D01*
X67310D01*
Y333730D01*
D02*
G37*
G36*
X390125Y335280D02*
X387115D01*
X384208Y334501D01*
X381602Y332996D01*
X379474Y330868D01*
X377969Y328262D01*
X377190Y325355D01*
Y322345D01*
X377969Y319438D01*
X379474Y316832D01*
X381602Y314704D01*
X384208Y313199D01*
X387115Y312420D01*
X390125D01*
X393032Y313199D01*
X395638Y314704D01*
X397766Y316832D01*
X399271Y319438D01*
X400050Y322345D01*
Y325355D01*
X399271Y328262D01*
X397766Y330868D01*
X395638Y332996D01*
X393032Y334501D01*
X390125Y335280D01*
D02*
G37*
G36*
X186821Y329410D02*
X184019D01*
X181313Y328685D01*
X178887Y327284D01*
X176906Y325303D01*
X175505Y322877D01*
X174780Y320171D01*
Y317369D01*
X175505Y314663D01*
X176906Y312237D01*
X178887Y310256D01*
X181313Y308855D01*
X184019Y308130D01*
X186821D01*
X189527Y308855D01*
X191953Y310256D01*
X193934Y312237D01*
X195335Y314663D01*
X196060Y317369D01*
Y320171D01*
X195335Y322877D01*
X193934Y325303D01*
X191953Y327284D01*
X189527Y328685D01*
X186821Y329410D01*
D02*
G37*
G36*
X161421D02*
X158619D01*
X155913Y328685D01*
X153487Y327284D01*
X151506Y325303D01*
X150105Y322877D01*
X149380Y320171D01*
Y317369D01*
X150105Y314663D01*
X151506Y312237D01*
X153487Y310256D01*
X155913Y308855D01*
X158619Y308130D01*
X161421D01*
X164127Y308855D01*
X166553Y310256D01*
X168534Y312237D01*
X169935Y314663D01*
X170660Y317369D01*
Y320171D01*
X169935Y322877D01*
X168534Y325303D01*
X166553Y327284D01*
X164127Y328685D01*
X161421Y329410D01*
D02*
G37*
G36*
X329081Y310510D02*
X326240D01*
X323495Y309775D01*
X321035Y308354D01*
X319026Y306345D01*
X317605Y303885D01*
X316870Y301140D01*
Y298300D01*
X317605Y295555D01*
X319026Y293095D01*
X321035Y291086D01*
X323495Y289665D01*
X326240Y288930D01*
X329081D01*
X331825Y289665D01*
X334285Y291086D01*
X336294Y293095D01*
X337715Y295555D01*
X338450Y298300D01*
Y301140D01*
X337715Y303885D01*
X336294Y306345D01*
X334285Y308354D01*
X331825Y309775D01*
X329081Y310510D01*
D02*
G37*
G36*
X303680D02*
X300840D01*
X298095Y309775D01*
X295635Y308354D01*
X293626Y306345D01*
X292205Y303885D01*
X291470Y301140D01*
Y298300D01*
X292205Y295555D01*
X293626Y293095D01*
X295635Y291086D01*
X298095Y289665D01*
X300840Y288930D01*
X303680D01*
X306425Y289665D01*
X308885Y291086D01*
X310894Y293095D01*
X312315Y295555D01*
X313050Y298300D01*
Y301140D01*
X312315Y303885D01*
X310894Y306345D01*
X308885Y308354D01*
X306425Y309775D01*
X303680Y310510D01*
D02*
G37*
G36*
X278281D02*
X275439D01*
X272695Y309775D01*
X270235Y308354D01*
X268226Y306345D01*
X266805Y303885D01*
X266070Y301140D01*
Y298300D01*
X266805Y295555D01*
X268226Y293095D01*
X270235Y291086D01*
X272695Y289665D01*
X275439Y288930D01*
X278281D01*
X281025Y289665D01*
X283485Y291086D01*
X285494Y293095D01*
X286915Y295555D01*
X287650Y298300D01*
Y301140D01*
X286915Y303885D01*
X285494Y306345D01*
X283485Y308354D01*
X281025Y309775D01*
X278281Y310510D01*
D02*
G37*
G36*
X70231Y312540D02*
X66929D01*
X63740Y311685D01*
X60880Y310035D01*
X58545Y307700D01*
X56895Y304840D01*
X56040Y301651D01*
Y298349D01*
X56895Y295160D01*
X58545Y292300D01*
X60880Y289966D01*
X63740Y288315D01*
X66929Y287460D01*
X70231D01*
X73420Y288315D01*
X76280Y289966D01*
X78615Y292300D01*
X80265Y295160D01*
X81120Y298349D01*
Y301651D01*
X80265Y304840D01*
X78615Y307700D01*
X76280Y310035D01*
X73420Y311685D01*
X70231Y312540D01*
D02*
G37*
G36*
X411380Y289560D02*
X409040D01*
X406779Y288954D01*
X404751Y287784D01*
X403096Y286129D01*
X401926Y284101D01*
X401320Y281840D01*
Y279500D01*
X401926Y277239D01*
X403096Y275211D01*
X404751Y273556D01*
X406779Y272386D01*
X409040Y271780D01*
X411380D01*
X413641Y272386D01*
X415669Y273556D01*
X417324Y275211D01*
X418494Y277239D01*
X419100Y279500D01*
Y281840D01*
X418494Y284101D01*
X417324Y286129D01*
X415669Y287784D01*
X413641Y288954D01*
X411380Y289560D01*
D02*
G37*
G36*
X51402Y223613D02*
X46672D01*
Y216270D01*
X59848D01*
X59722Y217229D01*
X58861Y219306D01*
X57492Y221090D01*
X55708Y222459D01*
X53631Y223320D01*
X51402Y223613D01*
D02*
G37*
G36*
X98902D02*
X94171D01*
Y216270D01*
X107348D01*
X107222Y217229D01*
X106361Y219306D01*
X104992Y221090D01*
X103208Y222459D01*
X101131Y223320D01*
X98902Y223613D01*
D02*
G37*
G36*
X44131D02*
X39402D01*
X37172Y223320D01*
X35095Y222459D01*
X33311Y221090D01*
X31942Y219306D01*
X31081Y217229D01*
X30955Y216270D01*
X44131D01*
Y223613D01*
D02*
G37*
G36*
X91631D02*
X86902D01*
X84672Y223320D01*
X82595Y222459D01*
X80811Y221090D01*
X79442Y219306D01*
X78581Y217229D01*
X78455Y216270D01*
X91631D01*
Y223613D01*
D02*
G37*
G36*
X107348Y213730D02*
X94171D01*
Y206386D01*
X98902D01*
X101131Y206679D01*
X103208Y207540D01*
X104992Y208909D01*
X106361Y210693D01*
X107222Y212770D01*
X107348Y213730D01*
D02*
G37*
G36*
X91631D02*
X78455D01*
X78581Y212770D01*
X79442Y210693D01*
X80811Y208909D01*
X82595Y207540D01*
X84672Y206679D01*
X86902Y206386D01*
X91631D01*
Y213730D01*
D02*
G37*
G36*
X59848D02*
X46672D01*
Y206386D01*
X51402D01*
X53631Y206679D01*
X55708Y207540D01*
X57492Y208909D01*
X58861Y210693D01*
X59722Y212770D01*
X59848Y213730D01*
D02*
G37*
G36*
X44131D02*
X30955D01*
X31081Y212770D01*
X31942Y210693D01*
X33311Y208909D01*
X35095Y207540D01*
X37172Y206679D01*
X39402Y206386D01*
X44131D01*
Y213730D01*
D02*
G37*
G36*
X103043Y202140D02*
X100794D01*
X98622Y201558D01*
X96675Y200434D01*
X95085Y198844D01*
X93961Y196896D01*
X93378Y194724D01*
X92108Y193846D01*
X91006Y194142D01*
X88757D01*
X86585Y193560D01*
X84638Y192435D01*
X83048Y190845D01*
X81924Y188898D01*
X81341Y186726D01*
Y184477D01*
X81924Y182305D01*
X83048Y180358D01*
X84638Y178768D01*
X85387Y178335D01*
Y176869D01*
X84638Y176436D01*
X83048Y174846D01*
X81924Y172899D01*
X81341Y170727D01*
Y168478D01*
X81924Y166306D01*
X83048Y164359D01*
X84638Y162768D01*
X86585Y161644D01*
X88757Y161062D01*
X91006D01*
X92108Y161358D01*
X93378Y160477D01*
X93961Y158305D01*
X95085Y156357D01*
X96675Y154768D01*
X98622Y153643D01*
X100648Y153100D01*
Y161601D01*
X101918D01*
Y162871D01*
X110420D01*
X109876Y164897D01*
X108752Y166845D01*
X107162Y168435D01*
X106413Y168868D01*
Y170334D01*
X107162Y170767D01*
X108752Y172357D01*
X109876Y174304D01*
X110458Y176476D01*
Y178725D01*
X109876Y180897D01*
X108752Y182844D01*
X107162Y184434D01*
X106413Y184867D01*
Y186334D01*
X107162Y186766D01*
X108752Y188356D01*
X109876Y190304D01*
X110458Y192476D01*
Y194724D01*
X109876Y196896D01*
X108752Y198844D01*
X107162Y200434D01*
X105215Y201558D01*
X103043Y202140D01*
D02*
G37*
G36*
X196981Y203680D02*
X194179D01*
X191473Y202955D01*
X189047Y201554D01*
X187066Y199573D01*
X185665Y197147D01*
X184940Y194441D01*
Y191639D01*
X185665Y188933D01*
X187066Y186507D01*
X189047Y184526D01*
X191473Y183125D01*
X194179Y182400D01*
X196981D01*
X199687Y183125D01*
X202113Y184526D01*
X204094Y186507D01*
X205495Y188933D01*
X206220Y191639D01*
Y194441D01*
X205495Y197147D01*
X204094Y199573D01*
X202113Y201554D01*
X199687Y202955D01*
X196981Y203680D01*
D02*
G37*
G36*
X171581D02*
X168779D01*
X166073Y202955D01*
X163647Y201554D01*
X161666Y199573D01*
X160265Y197147D01*
X159540Y194441D01*
Y191639D01*
X160265Y188933D01*
X161666Y186507D01*
X163647Y184526D01*
X166073Y183125D01*
X168779Y182400D01*
X171581D01*
X174287Y183125D01*
X176713Y184526D01*
X178694Y186507D01*
X180095Y188933D01*
X180820Y191639D01*
Y194441D01*
X180095Y197147D01*
X178694Y199573D01*
X176713Y201554D01*
X174287Y202955D01*
X171581Y203680D01*
D02*
G37*
G36*
X467260Y190500D02*
X464920D01*
X462659Y189894D01*
X460631Y188724D01*
X458976Y187069D01*
X457806Y185041D01*
X457200Y182780D01*
Y180440D01*
X457806Y178179D01*
X458976Y176151D01*
X460631Y174496D01*
X462659Y173326D01*
X464920Y172720D01*
X467260D01*
X469521Y173326D01*
X471549Y174496D01*
X473204Y176151D01*
X474374Y178179D01*
X474980Y180440D01*
Y182780D01*
X474374Y185041D01*
X473204Y187069D01*
X471549Y188724D01*
X469521Y189894D01*
X467260Y190500D01*
D02*
G37*
G36*
X490120Y177800D02*
X487780D01*
X485519Y177194D01*
X483491Y176024D01*
X481836Y174369D01*
X480666Y172341D01*
X480060Y170080D01*
Y167740D01*
X480666Y165479D01*
X481836Y163451D01*
X483491Y161796D01*
X485519Y160626D01*
X487780Y160020D01*
X490120D01*
X492381Y160626D01*
X494409Y161796D01*
X496064Y163451D01*
X497234Y165479D01*
X497840Y167740D01*
Y170080D01*
X497234Y172341D01*
X496064Y174369D01*
X494409Y176024D01*
X492381Y177194D01*
X490120Y177800D01*
D02*
G37*
G36*
X110420Y160331D02*
X103188D01*
Y153100D01*
X105215Y153643D01*
X107162Y154768D01*
X108752Y156357D01*
X109876Y158305D01*
X110420Y160331D01*
D02*
G37*
G36*
X51402Y149214D02*
X46672D01*
Y141870D01*
X59848D01*
X59722Y142830D01*
X58861Y144907D01*
X57492Y146691D01*
X55708Y148060D01*
X53631Y148921D01*
X51402Y149214D01*
D02*
G37*
G36*
X98902D02*
X94171D01*
Y141870D01*
X107348D01*
X107222Y142830D01*
X106361Y144907D01*
X104992Y146691D01*
X103208Y148060D01*
X101131Y148921D01*
X98902Y149214D01*
D02*
G37*
G36*
X44131D02*
X39402D01*
X37172Y148921D01*
X35095Y148060D01*
X33311Y146691D01*
X31942Y144907D01*
X31081Y142830D01*
X30955Y141870D01*
X44131D01*
Y149214D01*
D02*
G37*
G36*
X91631D02*
X86902D01*
X84672Y148921D01*
X82595Y148060D01*
X80811Y146691D01*
X79442Y144907D01*
X78581Y142830D01*
X78455Y141870D01*
X91631D01*
Y149214D01*
D02*
G37*
G36*
X107348Y139330D02*
X94171D01*
Y131987D01*
X98902D01*
X101131Y132280D01*
X103208Y133141D01*
X104992Y134510D01*
X106361Y136294D01*
X107222Y138371D01*
X107348Y139330D01*
D02*
G37*
G36*
X91631D02*
X78455D01*
X78581Y138371D01*
X79442Y136294D01*
X80811Y134510D01*
X82595Y133141D01*
X84672Y132280D01*
X86902Y131987D01*
X91631D01*
Y139330D01*
D02*
G37*
G36*
X59848D02*
X46672D01*
Y131987D01*
X51402D01*
X53631Y132280D01*
X55708Y133141D01*
X57492Y134510D01*
X58861Y136294D01*
X59722Y138371D01*
X59848Y139330D01*
D02*
G37*
G36*
X44131D02*
X30955D01*
X31081Y138371D01*
X31942Y136294D01*
X33311Y134510D01*
X35095Y133141D01*
X37172Y132280D01*
X39402Y131987D01*
X44131D01*
Y139330D01*
D02*
G37*
G36*
X483938Y111760D02*
X483870D01*
Y102870D01*
X492760D01*
Y102938D01*
X492068Y105522D01*
X490730Y107838D01*
X488838Y109730D01*
X486522Y111068D01*
X483938Y111760D01*
D02*
G37*
G36*
X481330D02*
X481262D01*
X478678Y111068D01*
X476362Y109730D01*
X474470Y107838D01*
X473132Y105522D01*
X472440Y102938D01*
Y102870D01*
X481330D01*
Y111760D01*
D02*
G37*
G36*
X458538D02*
X458470D01*
Y102870D01*
X467360D01*
Y102938D01*
X466668Y105522D01*
X465330Y107838D01*
X463438Y109730D01*
X461122Y111068D01*
X458538Y111760D01*
D02*
G37*
G36*
X455930D02*
X455862D01*
X453278Y111068D01*
X450962Y109730D01*
X449070Y107838D01*
X447732Y105522D01*
X447040Y102938D01*
Y102870D01*
X455930D01*
Y111760D01*
D02*
G37*
G36*
X687138D02*
X684462D01*
X681878Y111068D01*
X679562Y109730D01*
X677670Y107838D01*
X676332Y105522D01*
X675640Y102938D01*
Y100262D01*
X676332Y97678D01*
X677670Y95362D01*
X679562Y93470D01*
X681878Y92132D01*
X684462Y91440D01*
X687138D01*
X689722Y92132D01*
X692038Y93470D01*
X693930Y95362D01*
X695268Y97678D01*
X695960Y100262D01*
Y102938D01*
X695268Y105522D01*
X693930Y107838D01*
X692038Y109730D01*
X689722Y111068D01*
X687138Y111760D01*
D02*
G37*
G36*
X661738D02*
X659062D01*
X656478Y111068D01*
X654162Y109730D01*
X652270Y107838D01*
X650932Y105522D01*
X650240Y102938D01*
Y100262D01*
X650932Y97678D01*
X652270Y95362D01*
X654162Y93470D01*
X656478Y92132D01*
X659062Y91440D01*
X661738D01*
X664322Y92132D01*
X666638Y93470D01*
X668530Y95362D01*
X669868Y97678D01*
X670560Y100262D01*
Y102938D01*
X669868Y105522D01*
X668530Y107838D01*
X666638Y109730D01*
X664322Y111068D01*
X661738Y111760D01*
D02*
G37*
G36*
X636338D02*
X633662D01*
X631078Y111068D01*
X628762Y109730D01*
X626870Y107838D01*
X625532Y105522D01*
X624840Y102938D01*
Y100262D01*
X625532Y97678D01*
X626870Y95362D01*
X628762Y93470D01*
X631078Y92132D01*
X633662Y91440D01*
X636338D01*
X638922Y92132D01*
X641238Y93470D01*
X643130Y95362D01*
X644468Y97678D01*
X645160Y100262D01*
Y102938D01*
X644468Y105522D01*
X643130Y107838D01*
X641238Y109730D01*
X638922Y111068D01*
X636338Y111760D01*
D02*
G37*
G36*
X610938D02*
X608262D01*
X605678Y111068D01*
X603362Y109730D01*
X601470Y107838D01*
X600132Y105522D01*
X599440Y102938D01*
Y100262D01*
X600132Y97678D01*
X601470Y95362D01*
X603362Y93470D01*
X605678Y92132D01*
X608262Y91440D01*
X610938D01*
X613522Y92132D01*
X615838Y93470D01*
X617730Y95362D01*
X619068Y97678D01*
X619760Y100262D01*
Y102938D01*
X619068Y105522D01*
X617730Y107838D01*
X615838Y109730D01*
X613522Y111068D01*
X610938Y111760D01*
D02*
G37*
G36*
X585538D02*
X582862D01*
X580278Y111068D01*
X577962Y109730D01*
X576070Y107838D01*
X574732Y105522D01*
X574040Y102938D01*
Y100262D01*
X574732Y97678D01*
X576070Y95362D01*
X577962Y93470D01*
X580278Y92132D01*
X582862Y91440D01*
X585538D01*
X588122Y92132D01*
X590438Y93470D01*
X592330Y95362D01*
X593668Y97678D01*
X594360Y100262D01*
Y102938D01*
X593668Y105522D01*
X592330Y107838D01*
X590438Y109730D01*
X588122Y111068D01*
X585538Y111760D01*
D02*
G37*
G36*
X560138D02*
X557462D01*
X554878Y111068D01*
X552562Y109730D01*
X550670Y107838D01*
X549332Y105522D01*
X548640Y102938D01*
Y100262D01*
X549332Y97678D01*
X550670Y95362D01*
X552562Y93470D01*
X554878Y92132D01*
X557462Y91440D01*
X560138D01*
X562722Y92132D01*
X565038Y93470D01*
X566930Y95362D01*
X568268Y97678D01*
X568960Y100262D01*
Y102938D01*
X568268Y105522D01*
X566930Y107838D01*
X565038Y109730D01*
X562722Y111068D01*
X560138Y111760D01*
D02*
G37*
G36*
X509338D02*
X506662D01*
X504078Y111068D01*
X501762Y109730D01*
X499870Y107838D01*
X498532Y105522D01*
X497840Y102938D01*
Y100262D01*
X498532Y97678D01*
X499870Y95362D01*
X501762Y93470D01*
X504078Y92132D01*
X506662Y91440D01*
X509338D01*
X511922Y92132D01*
X514238Y93470D01*
X516130Y95362D01*
X517468Y97678D01*
X518160Y100262D01*
Y102938D01*
X517468Y105522D01*
X516130Y107838D01*
X514238Y109730D01*
X511922Y111068D01*
X509338Y111760D01*
D02*
G37*
G36*
X492760Y100330D02*
X483870D01*
Y91440D01*
X483938D01*
X486522Y92132D01*
X488838Y93470D01*
X490730Y95362D01*
X492068Y97678D01*
X492760Y100262D01*
Y100330D01*
D02*
G37*
G36*
X481330D02*
X472440D01*
Y100262D01*
X473132Y97678D01*
X474470Y95362D01*
X476362Y93470D01*
X478678Y92132D01*
X481262Y91440D01*
X481330D01*
Y100330D01*
D02*
G37*
G36*
X467360D02*
X458470D01*
Y91440D01*
X458538D01*
X461122Y92132D01*
X463438Y93470D01*
X465330Y95362D01*
X466668Y97678D01*
X467360Y100262D01*
Y100330D01*
D02*
G37*
G36*
X455930D02*
X447040D01*
Y100262D01*
X447732Y97678D01*
X449070Y95362D01*
X450962Y93470D01*
X453278Y92132D01*
X455862Y91440D01*
X455930D01*
Y100330D01*
D02*
G37*
G36*
X433138Y111760D02*
X430462D01*
X427878Y111068D01*
X425562Y109730D01*
X423670Y107838D01*
X422332Y105522D01*
X421640Y102938D01*
Y100262D01*
X422332Y97678D01*
X423670Y95362D01*
X425562Y93470D01*
X427878Y92132D01*
X430462Y91440D01*
X433138D01*
X435722Y92132D01*
X438038Y93470D01*
X439930Y95362D01*
X441268Y97678D01*
X441960Y100262D01*
Y102938D01*
X441268Y105522D01*
X439930Y107838D01*
X438038Y109730D01*
X435722Y111068D01*
X433138Y111760D01*
D02*
G37*
G36*
X407738D02*
X405062D01*
X402478Y111068D01*
X400162Y109730D01*
X398270Y107838D01*
X396932Y105522D01*
X396240Y102938D01*
Y100262D01*
X396932Y97678D01*
X398270Y95362D01*
X400162Y93470D01*
X402478Y92132D01*
X405062Y91440D01*
X407738D01*
X410322Y92132D01*
X412638Y93470D01*
X414530Y95362D01*
X415868Y97678D01*
X416560Y100262D01*
Y102938D01*
X415868Y105522D01*
X414530Y107838D01*
X412638Y109730D01*
X410322Y111068D01*
X407738Y111760D01*
D02*
G37*
G36*
X382338D02*
X379662D01*
X377078Y111068D01*
X374762Y109730D01*
X372870Y107838D01*
X371532Y105522D01*
X370840Y102938D01*
Y100262D01*
X371532Y97678D01*
X372870Y95362D01*
X374762Y93470D01*
X377078Y92132D01*
X379662Y91440D01*
X382338D01*
X384922Y92132D01*
X387238Y93470D01*
X389130Y95362D01*
X390468Y97678D01*
X391160Y100262D01*
Y102938D01*
X390468Y105522D01*
X389130Y107838D01*
X387238Y109730D01*
X384922Y111068D01*
X382338Y111760D01*
D02*
G37*
G36*
X82550Y82441D02*
Y62230D01*
X93928D01*
Y69960D01*
X93497Y73234D01*
X92234Y76284D01*
X90224Y78904D01*
X87604Y80914D01*
X84554Y82177D01*
X82550Y82441D01*
D02*
G37*
G36*
X80010D02*
X78006Y82177D01*
X74956Y80914D01*
X72336Y78904D01*
X70326Y76284D01*
X69063Y73234D01*
X68632Y69960D01*
Y62230D01*
X80010D01*
Y82441D01*
D02*
G37*
G36*
X359645Y60960D02*
X359410D01*
Y50800D01*
X369570D01*
Y51035D01*
X368791Y53942D01*
X367286Y56548D01*
X365158Y58676D01*
X362552Y60181D01*
X359645Y60960D01*
D02*
G37*
G36*
X356870D02*
X356635D01*
X353728Y60181D01*
X351122Y58676D01*
X348994Y56548D01*
X347489Y53942D01*
X346710Y51035D01*
Y50800D01*
X356870D01*
Y60960D01*
D02*
G37*
G36*
X334245D02*
X334010D01*
Y50800D01*
X344170D01*
Y51035D01*
X343391Y53942D01*
X341886Y56548D01*
X339758Y58676D01*
X337152Y60181D01*
X334245Y60960D01*
D02*
G37*
G36*
X331470D02*
X331235D01*
X328328Y60181D01*
X325722Y58676D01*
X323594Y56548D01*
X322089Y53942D01*
X321310Y51035D01*
Y50800D01*
X331470D01*
Y60960D01*
D02*
G37*
G36*
X308845D02*
X308610D01*
Y50800D01*
X318770D01*
Y51035D01*
X317991Y53942D01*
X316486Y56548D01*
X314358Y58676D01*
X311752Y60181D01*
X308845Y60960D01*
D02*
G37*
G36*
X306070D02*
X305835D01*
X302928Y60181D01*
X300322Y58676D01*
X298194Y56548D01*
X296689Y53942D01*
X295910Y51035D01*
Y50800D01*
X306070D01*
Y60960D01*
D02*
G37*
G36*
X235081Y70330D02*
X232279D01*
X229573Y69605D01*
X227147Y68204D01*
X225166Y66223D01*
X223765Y63797D01*
X223040Y61091D01*
Y58289D01*
X223765Y55583D01*
X225166Y53157D01*
X227147Y51176D01*
X229573Y49775D01*
X232279Y49050D01*
X235081D01*
X237787Y49775D01*
X240213Y51176D01*
X242194Y53157D01*
X243595Y55583D01*
X244320Y58289D01*
Y61091D01*
X243595Y63797D01*
X242194Y66223D01*
X240213Y68204D01*
X237787Y69605D01*
X235081Y70330D01*
D02*
G37*
G36*
X209681D02*
X206879D01*
X204173Y69605D01*
X201747Y68204D01*
X199766Y66223D01*
X198365Y63797D01*
X197640Y61091D01*
Y58289D01*
X198365Y55583D01*
X199766Y53157D01*
X201747Y51176D01*
X204173Y49775D01*
X206879Y49050D01*
X209681D01*
X212387Y49775D01*
X214813Y51176D01*
X216794Y53157D01*
X218195Y55583D01*
X218920Y58289D01*
Y61091D01*
X218195Y63797D01*
X216794Y66223D01*
X214813Y68204D01*
X212387Y69605D01*
X209681Y70330D01*
D02*
G37*
G36*
X93928Y59690D02*
X82550D01*
Y39479D01*
X84554Y39743D01*
X87604Y41006D01*
X90224Y43016D01*
X92234Y45636D01*
X93497Y48686D01*
X93928Y51960D01*
Y59690D01*
D02*
G37*
G36*
X80010D02*
X68632D01*
Y51960D01*
X69063Y48686D01*
X70326Y45636D01*
X72336Y43016D01*
X74956Y41006D01*
X78006Y39743D01*
X80010Y39479D01*
Y59690D01*
D02*
G37*
G36*
X141280Y82608D02*
X138006Y82177D01*
X134956Y80914D01*
X132336Y78904D01*
X130326Y76284D01*
X129063Y73234D01*
X128632Y69960D01*
Y51960D01*
X129063Y48686D01*
X130326Y45636D01*
X132336Y43016D01*
X134956Y41006D01*
X138006Y39743D01*
X141280Y39312D01*
X144554Y39743D01*
X147604Y41006D01*
X150224Y43016D01*
X152234Y45636D01*
X153497Y48686D01*
X153928Y51960D01*
Y69960D01*
X153497Y73234D01*
X152234Y76284D01*
X150224Y78904D01*
X147604Y80914D01*
X144554Y82177D01*
X141280Y82608D01*
D02*
G37*
G36*
X369570Y48260D02*
X359410D01*
Y38100D01*
X359645D01*
X362552Y38879D01*
X365158Y40384D01*
X367286Y42512D01*
X368791Y45118D01*
X369570Y48025D01*
Y48260D01*
D02*
G37*
G36*
X356870D02*
X346710D01*
Y48025D01*
X347489Y45118D01*
X348994Y42512D01*
X351122Y40384D01*
X353728Y38879D01*
X356635Y38100D01*
X356870D01*
Y48260D01*
D02*
G37*
G36*
X344170D02*
X334010D01*
Y38100D01*
X334245D01*
X337152Y38879D01*
X339758Y40384D01*
X341886Y42512D01*
X343391Y45118D01*
X344170Y48025D01*
Y48260D01*
D02*
G37*
G36*
X331470D02*
X321310D01*
Y48025D01*
X322089Y45118D01*
X323594Y42512D01*
X325722Y40384D01*
X328328Y38879D01*
X331235Y38100D01*
X331470D01*
Y48260D01*
D02*
G37*
G36*
X318770D02*
X308610D01*
Y38100D01*
X308845D01*
X311752Y38879D01*
X314358Y40384D01*
X316486Y42512D01*
X317991Y45118D01*
X318770Y48025D01*
Y48260D01*
D02*
G37*
G36*
X306070D02*
X295910D01*
Y48025D01*
X296689Y45118D01*
X298194Y42512D01*
X300322Y40384D01*
X302928Y38879D01*
X305835Y38100D01*
X306070D01*
Y48260D01*
D02*
G37*
G36*
X283445Y60960D02*
X280435D01*
X277528Y60181D01*
X274922Y58676D01*
X272794Y56548D01*
X271289Y53942D01*
X270510Y51035D01*
Y48025D01*
X271289Y45118D01*
X272794Y42512D01*
X274922Y40384D01*
X277528Y38879D01*
X280435Y38100D01*
X283445D01*
X286352Y38879D01*
X288958Y40384D01*
X291086Y42512D01*
X292591Y45118D01*
X293370Y48025D01*
Y51035D01*
X292591Y53942D01*
X291086Y56548D01*
X288958Y58676D01*
X286352Y60181D01*
X283445Y60960D01*
D02*
G37*
G36*
X123780Y26100D02*
X117550D01*
Y15730D01*
X135252D01*
X135023Y17472D01*
X133860Y20280D01*
X132010Y22690D01*
X129600Y24540D01*
X126793Y25703D01*
X123780Y26100D01*
D02*
G37*
G36*
X115010D02*
X108780D01*
X105767Y25703D01*
X102960Y24540D01*
X100550Y22690D01*
X98700Y20280D01*
X97537Y17472D01*
X97308Y15730D01*
X115010D01*
Y26100D01*
D02*
G37*
%LPD*%
D45*
X488950Y396760D02*
D03*
Y461760D02*
D03*
D46*
X388620Y349250D02*
D03*
Y323850D02*
D03*
Y400050D02*
D03*
Y374650D02*
D03*
X307340Y49530D02*
D03*
X281940D02*
D03*
X358140D02*
D03*
X332740D02*
D03*
X116840Y429260D02*
D03*
Y403860D02*
D03*
Y480060D02*
D03*
Y454660D02*
D03*
D47*
X276860Y299720D02*
D03*
X302260D02*
D03*
X327660D02*
D03*
D48*
X160020Y318770D02*
D03*
X185420D02*
D03*
X170180Y193040D02*
D03*
X195580D02*
D03*
X208280Y59690D02*
D03*
X233680D02*
D03*
D49*
X508000Y101600D02*
D03*
X381000D02*
D03*
X406400D02*
D03*
X431800D02*
D03*
X457200D02*
D03*
X482600D02*
D03*
X508000Y584200D02*
D03*
X533400D02*
D03*
X558800D02*
D03*
X584200D02*
D03*
X609600D02*
D03*
X635000D02*
D03*
X660400D02*
D03*
X685800D02*
D03*
X238760D02*
D03*
X264160D02*
D03*
X289560D02*
D03*
X314960D02*
D03*
X340360D02*
D03*
X365760D02*
D03*
X391160D02*
D03*
X416560D02*
D03*
X441960D02*
D03*
X467360D02*
D03*
X685800Y101600D02*
D03*
X660400D02*
D03*
X635000D02*
D03*
X609600D02*
D03*
X558800D02*
D03*
X584200D02*
D03*
D50*
X45402Y140600D02*
D03*
X92901D02*
D03*
Y215000D02*
D03*
X45402D02*
D03*
D51*
X101918Y193600D02*
D03*
X89881Y185602D02*
D03*
Y169602D02*
D03*
X101918Y177601D02*
D03*
Y161601D02*
D03*
D52*
X141280Y60960D02*
D03*
X81280D02*
D03*
D53*
X116280Y14460D02*
D03*
D54*
X68580Y335000D02*
D03*
Y300000D02*
D03*
D55*
X410210Y299720D02*
D03*
X275590Y473710D02*
D03*
X337820Y427990D02*
D03*
X236220Y462280D02*
D03*
X275590Y439420D02*
D03*
X361950Y511810D02*
D03*
X504190Y168910D02*
D03*
X370840Y505460D02*
D03*
X477520Y279400D02*
D03*
X467360Y196850D02*
D03*
X215900Y488950D02*
D03*
X701040Y525780D02*
D03*
X706120Y417830D02*
D03*
X704850Y308610D02*
D03*
Y201930D02*
D03*
X581660Y186690D02*
D03*
X576580Y500380D02*
D03*
X580390Y400050D02*
D03*
Y292100D02*
D03*
X353060Y214630D02*
D03*
X388620Y180340D02*
D03*
X353060Y134620D02*
D03*
X157480Y544830D02*
D03*
D56*
X278130Y457200D02*
D03*
X410210Y280670D02*
D03*
X340360Y445770D02*
D03*
X248920Y469900D02*
D03*
X466090Y181610D02*
D03*
X488950Y168910D02*
D03*
M02*
