G04*
G04 #@! TF.GenerationSoftware,Altium Limited,Altium Designer,23.10.1 (27)*
G04*
G04 Layer_Physical_Order=4*
G04 Layer_Color=16711680*
%FSLAX44Y44*%
%MOMM*%
G71*
G04*
G04 #@! TF.SameCoordinates,2AE02515-478E-4FF6-B523-2722CBD37BA3*
G04*
G04*
G04 #@! TF.FilePolarity,Positive*
G04*
G01*
G75*
%ADD11C,0.2540*%
%ADD41R,1.1176X1.8034*%
%ADD45C,1.6000*%
%ADD46C,1.7780*%
%ADD47C,1.6500*%
%ADD48C,1.6200*%
%ADD49C,1.5240*%
%ADD50O,2.4000X1.2000*%
%ADD51C,1.2000*%
%ADD52O,2.0000X3.8000*%
%ADD53O,3.3000X1.8000*%
%ADD54C,2.0000*%
%ADD55C,0.6350*%
%ADD56C,1.2700*%
%ADD57R,1.4700X0.3000*%
%ADD58R,1.4500X0.3000*%
D11*
X335690Y494110D02*
X346630D01*
X354330Y353060D02*
Y486410D01*
X346630Y494110D02*
X354330Y486410D01*
X256739Y471369D02*
X279480Y494110D01*
X248920Y469900D02*
X250389Y471369D01*
X256739D01*
X279480Y494110D02*
X291690D01*
X261366Y499110D02*
X291690D01*
X285610Y516343D02*
Y537350D01*
Y509340D02*
Y516343D01*
X207228Y518160D02*
X283792D01*
X285610Y516343D01*
X205740Y246380D02*
Y516672D01*
X207228Y518160D01*
X205740Y246380D02*
X254000Y198120D01*
X380718D01*
X397228Y181610D02*
X466090D01*
X380718Y198120D02*
X397228Y181610D01*
X291690Y499110D02*
X308610D01*
X312420Y495300D01*
Y377010D02*
Y495300D01*
X408759Y280670D02*
X410210D01*
X312420Y377010D02*
X408759Y280670D01*
X290830Y469900D02*
Y488800D01*
X278130Y457200D02*
X290830Y469900D01*
X291690Y504110D02*
X305990D01*
X320040Y518160D01*
X324485Y518795D02*
X374727D01*
X265430Y572770D02*
X320040Y518160D01*
X323850D02*
X324485Y518795D01*
X320040Y518160D02*
X323850D01*
X374727Y518795D02*
X415290Y478232D01*
X360919Y511810D02*
X361950D01*
X364490Y499110D02*
X370840Y505460D01*
X358219Y509110D02*
X360919Y511810D01*
X238760Y584200D02*
X285610Y537350D01*
X335690Y509110D02*
X358219D01*
X489330Y169290D02*
Y284100D01*
X415290Y358140D02*
Y478232D01*
Y358140D02*
X489330Y284100D01*
X340360Y445770D02*
Y447668D01*
X335690Y452338D02*
X340360Y447668D01*
X335690Y452338D02*
Y489110D01*
X285840Y509110D02*
X291690D01*
X285610Y509340D02*
X285840Y509110D01*
X265430Y572770D02*
Y582930D01*
X264160Y584200D02*
X265430Y582930D01*
X488950Y168910D02*
X489330Y169290D01*
X335690Y499110D02*
X364490D01*
X354330Y353060D02*
X383540Y323850D01*
X215900Y488950D02*
X220839Y493889D01*
X231394Y498207D02*
Y499110D01*
X227076Y493889D02*
X231394Y498207D01*
X220839Y493889D02*
X227076D01*
D41*
X261366Y499110D02*
D03*
X231394D02*
D03*
D45*
X488950Y396760D02*
D03*
Y461760D02*
D03*
D46*
X388620Y349250D02*
D03*
Y323850D02*
D03*
Y400050D02*
D03*
Y374650D02*
D03*
X307340Y49530D02*
D03*
X281940D02*
D03*
X358140D02*
D03*
X332740D02*
D03*
X116840Y429260D02*
D03*
Y403860D02*
D03*
Y480060D02*
D03*
Y454660D02*
D03*
D47*
X276860Y299720D02*
D03*
X302260D02*
D03*
X327660D02*
D03*
D48*
X160020Y318770D02*
D03*
X185420D02*
D03*
X170180Y193040D02*
D03*
X195580D02*
D03*
X208280Y59690D02*
D03*
X233680D02*
D03*
D49*
X508000Y101600D02*
D03*
X381000D02*
D03*
X406400D02*
D03*
X431800D02*
D03*
X457200D02*
D03*
X482600D02*
D03*
X508000Y584200D02*
D03*
X533400D02*
D03*
X558800D02*
D03*
X584200D02*
D03*
X609600D02*
D03*
X635000D02*
D03*
X660400D02*
D03*
X685800D02*
D03*
X238760D02*
D03*
X264160D02*
D03*
X289560D02*
D03*
X314960D02*
D03*
X340360D02*
D03*
X365760D02*
D03*
X391160D02*
D03*
X416560D02*
D03*
X441960D02*
D03*
X467360D02*
D03*
X685800Y101600D02*
D03*
X660400D02*
D03*
X635000D02*
D03*
X609600D02*
D03*
X558800D02*
D03*
X584200D02*
D03*
D50*
X45402Y140600D02*
D03*
X92901D02*
D03*
Y215000D02*
D03*
X45402D02*
D03*
D51*
X101918Y193600D02*
D03*
X89881Y185602D02*
D03*
Y169602D02*
D03*
X101918Y177601D02*
D03*
Y161601D02*
D03*
D52*
X141280Y60960D02*
D03*
X81280D02*
D03*
D53*
X116280Y14460D02*
D03*
D54*
X68580Y335000D02*
D03*
Y300000D02*
D03*
D55*
X410210Y299720D02*
D03*
X275590Y473710D02*
D03*
X337820Y427990D02*
D03*
X236220Y462280D02*
D03*
X275590Y439420D02*
D03*
X361950Y511810D02*
D03*
X504190Y168910D02*
D03*
X370840Y505460D02*
D03*
X477520Y279400D02*
D03*
X467360Y196850D02*
D03*
X215900Y488950D02*
D03*
X701040Y525780D02*
D03*
X706120Y417830D02*
D03*
X704850Y308610D02*
D03*
Y201930D02*
D03*
X581660Y186690D02*
D03*
X576580Y500380D02*
D03*
X580390Y400050D02*
D03*
Y292100D02*
D03*
X353060Y214630D02*
D03*
X388620Y180340D02*
D03*
X353060Y134620D02*
D03*
X157480Y544830D02*
D03*
D56*
X278130Y457200D02*
D03*
X410210Y280670D02*
D03*
X340360Y445770D02*
D03*
X248920Y469900D02*
D03*
X466090Y181610D02*
D03*
X488950Y168910D02*
D03*
D57*
X291690Y509110D02*
D03*
Y504110D02*
D03*
Y499110D02*
D03*
Y494110D02*
D03*
Y489110D02*
D03*
X335690D02*
D03*
Y494110D02*
D03*
Y499110D02*
D03*
Y504110D02*
D03*
D58*
Y509110D02*
D03*
M02*
