G04*
G04 #@! TF.GenerationSoftware,Altium Limited,Altium Designer,23.10.1 (27)*
G04*
G04 Layer_Color=32896*
%FSLAX44Y44*%
%MOMM*%
G71*
G04*
G04 #@! TF.SameCoordinates,2AE02515-478E-4FF6-B523-2722CBD37BA3*
G04*
G04*
G04 #@! TF.FilePolarity,Positive*
G04*
G01*
G75*
%ADD10C,0.2000*%
%ADD11C,0.2540*%
%ADD12C,0.1524*%
D10*
X340500Y515110D02*
G03*
X340500Y515110I-810J0D01*
G01*
X320890Y509110D02*
G03*
X320890Y509110I-1200J0D01*
G01*
X325190Y484110D02*
Y514110D01*
X302190Y484110D02*
X325190D01*
X302190D02*
Y514110D01*
X325190D01*
D11*
X256959Y471172D02*
X263731D01*
X256959Y477943D01*
Y479636D01*
X258652Y481328D01*
X262038D01*
X263731Y479636D01*
X246803Y471172D02*
X253574D01*
X246803Y477943D01*
Y479636D01*
X248496Y481328D01*
X251881D01*
X253574Y479636D01*
X243417Y477943D02*
Y472864D01*
X241724Y471172D01*
X236646D01*
Y477943D01*
X226489Y481328D02*
X233260D01*
Y476250D01*
X229875D01*
X233260D01*
Y471172D01*
X232412Y522984D02*
X233681Y524254D01*
X236220D01*
X237490Y522984D01*
Y517906D01*
X236220Y516636D01*
X233681D01*
X232412Y517906D01*
X229872Y516636D02*
X227333D01*
X228603D01*
Y524254D01*
X229872Y522984D01*
X309372Y540253D02*
Y527557D01*
X306833Y525018D01*
X301754D01*
X299215Y527557D01*
Y540253D01*
X283980Y525018D02*
X294137D01*
X283980Y535175D01*
Y537714D01*
X286519Y540253D01*
X291598D01*
X294137Y537714D01*
D12*
X241554Y490220D02*
X251206D01*
X241554Y508000D02*
X251206D01*
M02*
