G04*
G04 #@! TF.GenerationSoftware,Altium Limited,Altium Designer,23.10.1 (27)*
G04*
G04 Layer_Physical_Order=1*
G04 Layer_Color=255*
%FSLAX44Y44*%
%MOMM*%
G71*
G04*
G04 #@! TF.SameCoordinates,2AE02515-478E-4FF6-B523-2722CBD37BA3*
G04*
G04*
G04 #@! TF.FilePolarity,Positive*
G04*
G01*
G75*
%ADD11C,0.2540*%
%ADD13C,0.5080*%
G04:AMPARAMS|DCode=39|XSize=1.61mm|YSize=0.59mm|CornerRadius=0.0738mm|HoleSize=0mm|Usage=FLASHONLY|Rotation=0.000|XOffset=0mm|YOffset=0mm|HoleType=Round|Shape=RoundedRectangle|*
%AMROUNDEDRECTD39*
21,1,1.6100,0.4425,0,0,0.0*
21,1,1.4625,0.5900,0,0,0.0*
1,1,0.1475,0.7313,-0.2213*
1,1,0.1475,-0.7313,-0.2213*
1,1,0.1475,-0.7313,0.2213*
1,1,0.1475,0.7313,0.2213*
%
%ADD39ROUNDEDRECTD39*%
%ADD40R,1.2065X1.9000*%
%ADD41R,1.1176X1.8034*%
%ADD42R,1.8034X1.1176*%
%ADD43R,1.5500X0.6000*%
G04:AMPARAMS|DCode=44|XSize=1.35mm|YSize=0.59mm|CornerRadius=0.1475mm|HoleSize=0mm|Usage=FLASHONLY|Rotation=270.000|XOffset=0mm|YOffset=0mm|HoleType=Round|Shape=RoundedRectangle|*
%AMROUNDEDRECTD44*
21,1,1.3500,0.2950,0,0,270.0*
21,1,1.0550,0.5900,0,0,270.0*
1,1,0.2950,-0.1475,-0.5275*
1,1,0.2950,-0.1475,0.5275*
1,1,0.2950,0.1475,0.5275*
1,1,0.2950,0.1475,-0.5275*
%
%ADD44ROUNDEDRECTD44*%
%ADD45C,1.6000*%
%ADD46C,1.7780*%
%ADD47C,1.6500*%
%ADD48C,1.6200*%
%ADD49C,1.5240*%
%ADD50O,2.4000X1.2000*%
%ADD51C,1.2000*%
%ADD52O,2.0000X3.8000*%
%ADD53O,3.3000X1.8000*%
%ADD54C,2.0000*%
%ADD55C,0.6350*%
%ADD56C,1.2700*%
D11*
X275381Y457200D02*
X278130D01*
X188468Y454152D02*
X272333D01*
X275590Y439420D02*
X298196D01*
X272333Y454152D02*
X275381Y457200D01*
X476489Y279400D02*
X477520D01*
X475219Y280670D02*
X476489Y279400D01*
X441960Y508750D02*
Y584200D01*
Y508750D02*
X489940Y460770D01*
X203454Y479806D02*
X212962Y470298D01*
X237490D01*
X237490Y470298D01*
X248522D01*
X248920Y469900D01*
X184150Y449834D02*
X188468Y454152D01*
X339090Y444500D02*
X340360Y445770D01*
X330200Y444500D02*
X339090D01*
X308737Y423037D02*
X330200Y444500D01*
X453390Y167640D02*
X466090Y180340D01*
Y181610D01*
X439440Y167640D02*
X453390D01*
X476910Y158140D02*
X487680Y168910D01*
X488950D01*
X439440Y158140D02*
X476910D01*
X308737Y410972D02*
Y423037D01*
X300990Y406654D02*
X304419D01*
X308737Y410972D01*
X184150Y479806D02*
X203454D01*
X298196Y439420D02*
X300990Y436626D01*
X276860Y346964D02*
X278130Y348234D01*
X276860Y299720D02*
Y346964D01*
X281559Y378206D02*
X285877Y382524D01*
Y394970D01*
X297561Y406654D01*
X278130Y378206D02*
X281559D01*
X297561Y406654D02*
X300990D01*
X317373Y382524D02*
X321691Y378206D01*
X317373Y382524D02*
Y393700D01*
X304419Y406654D02*
X317373Y393700D01*
X321691Y378206D02*
X325120D01*
X327660Y299720D02*
Y345694D01*
X325120Y348234D02*
X327660Y345694D01*
X459486Y280670D02*
X475219D01*
X383540Y319726D02*
Y323850D01*
Y319726D02*
X388420Y314846D01*
Y245570D02*
Y314846D01*
X381610Y238760D02*
X388420Y245570D01*
X376860Y238760D02*
X381610D01*
X702219Y203530D02*
X703819Y201930D01*
X682879Y203530D02*
X702219D01*
X703819Y201930D02*
X704850D01*
X609854Y186690D02*
X610870Y187706D01*
X581660Y186690D02*
X609854D01*
X650621Y221754D02*
X682879Y254013D01*
X650621Y203530D02*
Y221754D01*
X682879Y254013D02*
Y257480D01*
X700949Y311480D02*
X703819Y308610D01*
X682879Y311480D02*
X700949D01*
X703819Y308610D02*
X704850D01*
X608584Y292100D02*
X609600Y293116D01*
X580390Y292100D02*
X608584D01*
X650621Y311480D02*
Y314947D01*
X682879Y347206D02*
Y365430D01*
X650621Y314947D02*
X682879Y347206D01*
X608584Y400050D02*
X609600Y401066D01*
X580390Y400050D02*
X608584D01*
X650621Y422897D02*
X682879Y455155D01*
Y473380D01*
X650621Y419430D02*
Y422897D01*
X682879Y419430D02*
X703489D01*
X705089Y417830D01*
X706120D01*
X698409Y527380D02*
X700009Y525780D01*
X682879Y527380D02*
X698409D01*
X700009Y525780D02*
X701040D01*
X606806Y500380D02*
X607060Y500126D01*
X576580Y500380D02*
X606806D01*
X645528Y535940D02*
X650621Y530848D01*
X595376Y535940D02*
X645528D01*
X650621Y527380D02*
Y530848D01*
X515620Y535940D02*
X565404D01*
X467360Y584200D02*
X515620Y535940D01*
X410498Y178820D02*
X412178Y177140D01*
X376860Y226060D02*
X381610D01*
X412178Y177140D02*
X416540D01*
X410498Y178820D02*
Y197173D01*
X381610Y226060D02*
X410498Y197173D01*
X388620Y180340D02*
X401320Y167640D01*
X416540D01*
X353060Y134620D02*
Y157226D01*
X353314Y157480D01*
X354091Y214630D02*
X355361Y213360D01*
X376860D01*
X353060Y214630D02*
X354091D01*
X323584Y239555D02*
X340355D01*
X352261Y251460D01*
X337433Y224990D02*
X351203Y238760D01*
X318256Y224990D02*
X337433D01*
X313768Y229478D02*
Y231062D01*
X309280Y235550D02*
X313768Y231062D01*
X302920Y235550D02*
X309280D01*
X351203Y238760D02*
X376860D01*
X313768Y229478D02*
X318256Y224990D01*
X321920Y237891D02*
X323584Y239555D01*
X352261Y251460D02*
X376860D01*
X321920Y235550D02*
Y237891D01*
X302590Y235880D02*
Y299390D01*
Y235880D02*
X302920Y235550D01*
X302260Y299720D02*
X302590Y299390D01*
X158511Y544830D02*
X159781Y543560D01*
X157480Y544830D02*
X158511D01*
X159781Y543560D02*
X184150D01*
Y479806D02*
Y513588D01*
Y404876D02*
Y449834D01*
X183134Y403860D02*
X184150Y404876D01*
X116840Y403860D02*
X183134D01*
D13*
X195580Y193040D02*
X233680Y154940D01*
Y59690D02*
Y154940D01*
X68580Y300000D02*
X141250D01*
X160020Y318770D01*
X410210Y280670D02*
X429514D01*
X524497Y157734D02*
Y218440D01*
X431800Y147980D02*
X514743D01*
X430860Y251460D02*
X491478D01*
X524497Y218440D01*
X514743Y147980D02*
X524497Y157734D01*
X429974Y251460D02*
X430860D01*
X429514Y251920D02*
X429974Y251460D01*
X429514Y251920D02*
Y280670D01*
X647395Y470154D02*
X650621Y473380D01*
X607060Y470154D02*
X647395D01*
X557530Y420624D02*
X600583Y463677D01*
X603631Y470154D02*
X607060D01*
X600583Y467106D02*
X603631Y470154D01*
X600583Y463677D02*
Y467106D01*
X557530Y319024D02*
Y420624D01*
X647129Y371094D02*
X650621Y367602D01*
X609600Y371094D02*
X647129D01*
X650621Y365430D02*
Y367602D01*
X603123Y364617D02*
Y368046D01*
X557530Y319024D02*
X603123Y364617D01*
X606171Y371094D02*
X609600D01*
X603123Y368046D02*
X606171Y371094D01*
X557530Y211074D02*
Y319024D01*
X632911Y257480D02*
X650621D01*
X609600Y263144D02*
X627247D01*
X632911Y257480D01*
X557530Y157734D02*
X610870D01*
X524497D02*
X557530D01*
X603123Y260096D02*
X606171Y263144D01*
X603123Y256667D02*
Y260096D01*
X557530Y157734D02*
Y211074D01*
X606171Y263144D02*
X609600D01*
X557530Y211074D02*
X603123Y256667D01*
X627507Y156839D02*
X634816Y149530D01*
X610870Y157734D02*
X611765Y156839D01*
X627507D01*
X634816Y149530D02*
X650621D01*
X421640Y158140D02*
X431800Y147980D01*
Y101600D02*
Y147980D01*
X416540Y158140D02*
X421640D01*
X411440D02*
X416540D01*
X383286Y157480D02*
X410780D01*
X411440Y158140D01*
X300310Y193040D02*
X312420Y205150D01*
Y208950D01*
X195580Y193040D02*
X300310D01*
X184150Y374904D02*
X185420Y373634D01*
Y318770D02*
Y373634D01*
Y316859D02*
X195580Y306698D01*
X185420Y316859D02*
Y318770D01*
X195580Y193040D02*
Y306698D01*
X268751Y59690D02*
X278911Y49530D01*
X233680Y59690D02*
X268751D01*
X278911Y49530D02*
X281940D01*
X152710Y59690D02*
X208280D01*
X141280Y60960D02*
X142550Y59690D01*
X102199Y193320D02*
X169900D01*
X101918Y193600D02*
X102199Y193320D01*
X169900D02*
X170180Y193040D01*
D39*
X416540Y177140D02*
D03*
Y167640D02*
D03*
Y158140D02*
D03*
X439440D02*
D03*
Y167640D02*
D03*
Y177140D02*
D03*
D40*
X682879Y149530D02*
D03*
Y203530D02*
D03*
X650621Y149530D02*
D03*
Y203530D02*
D03*
X682879Y257480D02*
D03*
Y311480D02*
D03*
X650621Y257480D02*
D03*
Y311480D02*
D03*
X682879Y365430D02*
D03*
Y419430D02*
D03*
X650621Y365430D02*
D03*
Y419430D02*
D03*
X682879Y473380D02*
D03*
Y527380D02*
D03*
X650621Y473380D02*
D03*
Y527380D02*
D03*
D41*
X592836Y529590D02*
D03*
X562864D02*
D03*
X383286Y157480D02*
D03*
X353314D02*
D03*
X429514Y280670D02*
D03*
X459486D02*
D03*
D42*
X607060Y500126D02*
D03*
Y470154D02*
D03*
X609600Y401066D02*
D03*
Y371094D02*
D03*
Y293116D02*
D03*
Y263144D02*
D03*
X610870Y187706D02*
D03*
Y157734D02*
D03*
X300990Y436626D02*
D03*
Y406654D02*
D03*
X325120Y378206D02*
D03*
Y348234D02*
D03*
X278130Y378206D02*
D03*
Y348234D02*
D03*
X184150Y543560D02*
D03*
Y513588D02*
D03*
Y449834D02*
D03*
Y479806D02*
D03*
Y404876D02*
D03*
Y374904D02*
D03*
D43*
X430860Y213360D02*
D03*
Y226060D02*
D03*
Y238760D02*
D03*
Y251460D02*
D03*
X376860Y213360D02*
D03*
Y226060D02*
D03*
Y238760D02*
D03*
Y251460D02*
D03*
D44*
X321920Y235550D02*
D03*
X312420Y208950D02*
D03*
X302920Y235550D02*
D03*
D45*
X488950Y396760D02*
D03*
Y461760D02*
D03*
D46*
X388620Y349250D02*
D03*
Y323850D02*
D03*
Y400050D02*
D03*
Y374650D02*
D03*
X307340Y49530D02*
D03*
X281940D02*
D03*
X358140D02*
D03*
X332740D02*
D03*
X116840Y429260D02*
D03*
Y403860D02*
D03*
Y480060D02*
D03*
Y454660D02*
D03*
D47*
X276860Y299720D02*
D03*
X302260D02*
D03*
X327660D02*
D03*
D48*
X160020Y318770D02*
D03*
X185420D02*
D03*
X170180Y193040D02*
D03*
X195580D02*
D03*
X208280Y59690D02*
D03*
X233680D02*
D03*
D49*
X508000Y101600D02*
D03*
X381000D02*
D03*
X406400D02*
D03*
X431800D02*
D03*
X457200D02*
D03*
X482600D02*
D03*
X508000Y584200D02*
D03*
X533400D02*
D03*
X558800D02*
D03*
X584200D02*
D03*
X609600D02*
D03*
X635000D02*
D03*
X660400D02*
D03*
X685800D02*
D03*
X238760D02*
D03*
X264160D02*
D03*
X289560D02*
D03*
X314960D02*
D03*
X340360D02*
D03*
X365760D02*
D03*
X391160D02*
D03*
X416560D02*
D03*
X441960D02*
D03*
X467360D02*
D03*
X685800Y101600D02*
D03*
X660400D02*
D03*
X635000D02*
D03*
X609600D02*
D03*
X558800D02*
D03*
X584200D02*
D03*
D50*
X45402Y140600D02*
D03*
X92901D02*
D03*
Y215000D02*
D03*
X45402D02*
D03*
D51*
X101918Y193600D02*
D03*
X89881Y185602D02*
D03*
Y169602D02*
D03*
X101918Y177601D02*
D03*
Y161601D02*
D03*
D52*
X141280Y60960D02*
D03*
X81280D02*
D03*
D53*
X116280Y14460D02*
D03*
D54*
X68580Y335000D02*
D03*
Y300000D02*
D03*
D55*
X410210Y299720D02*
D03*
X275590Y473710D02*
D03*
X337820Y427990D02*
D03*
X236220Y462280D02*
D03*
X275590Y439420D02*
D03*
X361950Y511810D02*
D03*
X504190Y168910D02*
D03*
X370840Y505460D02*
D03*
X477520Y279400D02*
D03*
X467360Y196850D02*
D03*
X215900Y488950D02*
D03*
X701040Y525780D02*
D03*
X706120Y417830D02*
D03*
X704850Y308610D02*
D03*
Y201930D02*
D03*
X581660Y186690D02*
D03*
X576580Y500380D02*
D03*
X580390Y400050D02*
D03*
Y292100D02*
D03*
X353060Y214630D02*
D03*
X388620Y180340D02*
D03*
X353060Y134620D02*
D03*
X157480Y544830D02*
D03*
D56*
X278130Y457200D02*
D03*
X410210Y280670D02*
D03*
X340360Y445770D02*
D03*
X248920Y469900D02*
D03*
X466090Y181610D02*
D03*
X488950Y168910D02*
D03*
M02*
