G04*
G04 #@! TF.GenerationSoftware,Altium Limited,Altium Designer,23.9.2 (47)*
G04*
G04 Layer_Color=8421504*
%FSLAX44Y44*%
%MOMM*%
G71*
G04*
G04 #@! TF.SameCoordinates,6B7264D5-F0A4-4F38-8353-537565517FE9*
G04*
G04*
G04 #@! TF.FilePolarity,Positive*
G04*
G01*
G75*
%ADD19R,1.1176X1.8034*%
%ADD20R,1.8034X1.1176*%
%ADD21R,1.5000X1.2000*%
%ADD22R,0.8382X1.7000*%
%ADD23R,3.0988X1.7000*%
%ADD24R,1.8000X1.4000*%
%ADD25R,0.5080X1.6500*%
%ADD26R,1.6500X0.5080*%
%ADD27O,2.2000X0.6096*%
%ADD28R,1.0000X0.7000*%
D19*
X271780Y259080D02*
D03*
X241808D02*
D03*
X355854Y218440D02*
D03*
X385826D02*
D03*
X404114Y96520D02*
D03*
X434086D02*
D03*
X380746Y93980D02*
D03*
X350774D02*
D03*
X599186Y96520D02*
D03*
X569214D02*
D03*
X655066Y83820D02*
D03*
X625094D02*
D03*
X698246Y421640D02*
D03*
X668274D02*
D03*
X701040Y477520D02*
D03*
X671068D02*
D03*
X637286Y421640D02*
D03*
X607314D02*
D03*
X637286Y477520D02*
D03*
X607314D02*
D03*
X213106Y447040D02*
D03*
X183134D02*
D03*
X228092Y480060D02*
D03*
X198120D02*
D03*
X180594Y553720D02*
D03*
X210566D02*
D03*
X101092Y332740D02*
D03*
X71120D02*
D03*
X241554Y91440D02*
D03*
X271526D02*
D03*
X276352Y27940D02*
D03*
X246380D02*
D03*
X215646D02*
D03*
X185674D02*
D03*
X68580Y297180D02*
D03*
X98552D02*
D03*
X385826Y431800D02*
D03*
X355854D02*
D03*
D20*
X513080Y73914D02*
D03*
Y103886D02*
D03*
X500380Y284734D02*
D03*
Y314706D02*
D03*
X464820Y317246D02*
D03*
Y287274D02*
D03*
X571500Y395986D02*
D03*
Y366014D02*
D03*
X490220Y469900D02*
D03*
Y499872D02*
D03*
X457200Y470154D02*
D03*
Y500126D02*
D03*
X414020Y495808D02*
D03*
Y525780D02*
D03*
X353060Y475234D02*
D03*
Y505206D02*
D03*
X251460Y522986D02*
D03*
Y493014D02*
D03*
X45720Y429006D02*
D03*
Y399034D02*
D03*
X208280Y160274D02*
D03*
Y190246D02*
D03*
X210820Y258826D02*
D03*
Y228854D02*
D03*
X520700Y185674D02*
D03*
Y215646D02*
D03*
D21*
X487660Y225820D02*
D03*
X421660Y195820D02*
D03*
Y225820D02*
D03*
X487660Y195820D02*
D03*
D22*
X248666Y189940D02*
D03*
X271780Y187440D02*
D03*
X294894D02*
D03*
D23*
X271780Y122440D02*
D03*
D24*
X211320Y507960D02*
D03*
X184920Y527360D02*
D03*
X211320D02*
D03*
X184920Y507960D02*
D03*
X385580Y472480D02*
D03*
X411980Y453080D02*
D03*
X385580D02*
D03*
X411980Y472480D02*
D03*
D25*
X513080Y350900D02*
D03*
X505206D02*
D03*
X497078D02*
D03*
X489204D02*
D03*
X481076D02*
D03*
X473202D02*
D03*
X465074D02*
D03*
X457200D02*
D03*
Y436500D02*
D03*
X465074D02*
D03*
X473202D02*
D03*
X481076D02*
D03*
X489204D02*
D03*
X497078D02*
D03*
X505206D02*
D03*
X513080D02*
D03*
D26*
X527940Y422130D02*
D03*
Y414256D02*
D03*
Y406128D02*
D03*
Y398254D02*
D03*
Y390126D02*
D03*
Y382252D02*
D03*
Y374124D02*
D03*
Y366250D02*
D03*
X442340D02*
D03*
Y374124D02*
D03*
Y382252D02*
D03*
Y390126D02*
D03*
Y398254D02*
D03*
Y406128D02*
D03*
Y414256D02*
D03*
Y422130D02*
D03*
D27*
X138938Y430530D02*
D03*
Y443230D02*
D03*
Y455930D02*
D03*
Y468630D02*
D03*
Y481330D02*
D03*
Y494030D02*
D03*
Y506730D02*
D03*
Y519430D02*
D03*
X79502D02*
D03*
Y506730D02*
D03*
Y494030D02*
D03*
Y481330D02*
D03*
Y468630D02*
D03*
Y455930D02*
D03*
Y443230D02*
D03*
Y430530D02*
D03*
D28*
X90365Y567080D02*
D03*
Y576580D02*
D03*
Y586080D02*
D03*
X66740D02*
D03*
Y576580D02*
D03*
Y567080D02*
D03*
M02*
