G04*
G04 #@! TF.GenerationSoftware,Altium Limited,Altium Designer,23.9.2 (47)*
G04*
G04 Layer_Color=65535*
%FSLAX44Y44*%
%MOMM*%
G71*
G04*
G04 #@! TF.SameCoordinates,6B7264D5-F0A4-4F38-8353-537565517FE9*
G04*
G04*
G04 #@! TF.FilePolarity,Positive*
G04*
G01*
G75*
%ADD10C,0.1524*%
%ADD11C,0.5080*%
%ADD12C,0.2540*%
%ADD13C,0.1000*%
%ADD14C,0.4000*%
%ADD15C,0.1270*%
%ADD16C,0.1999*%
%ADD17C,0.2286*%
%ADD18C,0.2032*%
D10*
X489982Y182880D02*
G03*
X489982Y182880I-2048J0D01*
G01*
X310406Y179340D02*
G03*
X310406Y179340I-1796J0D01*
G01*
X95268Y558038D02*
G03*
X95268Y558038I-1796J0D01*
G01*
X251968Y270480D02*
X261620D01*
X251968Y247680D02*
X261620D01*
X521970Y84074D02*
Y93726D01*
X504190Y84074D02*
Y93726D01*
X509270Y294894D02*
Y304546D01*
X491490Y294894D02*
Y304546D01*
X455930Y297434D02*
Y307086D01*
X473710Y297434D02*
Y307086D01*
X410210Y201930D02*
Y219710D01*
X499110Y201930D02*
Y219710D01*
X472440Y215900D02*
Y219202D01*
X436880Y215900D02*
Y219202D01*
Y200406D02*
Y203962D01*
X472440Y200406D02*
Y203962D01*
X458978Y207518D02*
Y211582D01*
Y209550D02*
X463042D01*
X429260Y236220D02*
X480060D01*
X429260Y185420D02*
X480060D01*
X436880Y215900D02*
X472440D01*
X436880Y203962D02*
X472440D01*
X454655Y204068D02*
Y207624D01*
X454782Y211688D02*
Y215752D01*
X366014Y209550D02*
X375666D01*
X366014Y227330D02*
X375666D01*
X414274Y87630D02*
X423926D01*
X414274Y105410D02*
X423926D01*
X360934Y102870D02*
X370586D01*
X360934Y85090D02*
X370586D01*
X579374Y107920D02*
X589026D01*
X579374Y85120D02*
X589026D01*
X635254Y95220D02*
X644906D01*
X635254Y72420D02*
X644906D01*
X562610Y376174D02*
Y385826D01*
X580390Y376174D02*
Y385826D01*
X678434Y433040D02*
X688086D01*
X678434Y410240D02*
X688086D01*
X681228Y488920D02*
X690880D01*
X681228Y466120D02*
X690880D01*
X608584Y434640D02*
X636524D01*
X608838Y408640D02*
X636778D01*
X608584Y490520D02*
X636524D01*
X608838Y464520D02*
X636778D01*
X499110Y480060D02*
Y489712D01*
X481330Y480060D02*
Y489712D01*
X466090Y480314D02*
Y489966D01*
X448310Y480314D02*
Y489966D01*
X422910Y505968D02*
Y515620D01*
X405130Y505968D02*
Y515620D01*
X364460Y485394D02*
Y495046D01*
X341660Y485394D02*
Y495046D01*
X193294Y455930D02*
X202946D01*
X193294Y438150D02*
X202946D01*
X208280Y488950D02*
X217932D01*
X208280Y471170D02*
X217932D01*
X240060Y503174D02*
Y512826D01*
X262860Y503174D02*
Y512826D01*
X190754Y544830D02*
X200406D01*
X190754Y562610D02*
X200406D01*
X36830Y409194D02*
Y418846D01*
X54610Y409194D02*
Y418846D01*
X217170Y170434D02*
Y180086D01*
X199390Y170434D02*
Y180086D01*
X197820Y230124D02*
Y258064D01*
X223820Y230378D02*
Y258318D01*
X81280Y344140D02*
X90932D01*
X81280Y321340D02*
X90932D01*
X251714Y82550D02*
X261366D01*
X251714Y100330D02*
X261366D01*
X256540Y39340D02*
X266192D01*
X256540Y16540D02*
X266192D01*
X186944Y40940D02*
X214884D01*
X187198Y14940D02*
X215138D01*
X69342Y284180D02*
X97282D01*
X69088Y310180D02*
X97028D01*
X366014Y440690D02*
X375666D01*
X366014Y422910D02*
X375666D01*
X238252Y173482D02*
X305308D01*
Y136398D02*
Y173482D01*
X238252Y136398D02*
X305308D01*
X238252D02*
Y173482D01*
X523240Y355600D02*
Y360680D01*
X518160Y355600D02*
X523240D01*
X518045Y432367D02*
X523125D01*
Y427287D02*
Y432367D01*
X446783Y427720D02*
Y432800D01*
X451863D01*
X445770Y354330D02*
Y359410D01*
Y354330D02*
X450850D01*
X532100Y195834D02*
Y205486D01*
X509300Y195834D02*
Y205486D01*
D11*
X208520Y308202D02*
G03*
X208520Y308202I-1270J0D01*
G01*
X155815Y306297D02*
G03*
X155815Y306297I-1270J0D01*
G01*
D12*
X157221Y255270D02*
G03*
X157221Y255270I-1000J0D01*
G01*
X515920Y450596D02*
G03*
X515920Y450596I-2840J0D01*
G01*
X140297Y418846D02*
G03*
X140297Y418846I-2540J0D01*
G01*
X350012Y271018D02*
Y316738D01*
Y271018D02*
X357378Y263652D01*
X427228D01*
X350012Y316738D02*
X427228D01*
Y263652D02*
Y316738D01*
X520700Y114300D02*
Y139700D01*
X647700D01*
X520700Y114300D02*
X647700D01*
X673100Y127000D02*
Y139700D01*
X647700D02*
X673100D01*
X647700Y114300D02*
Y139700D01*
Y114300D02*
X673100D01*
Y127000D01*
X647700Y596900D02*
Y622300D01*
X469900Y596900D02*
X673100D01*
Y622300D01*
X469900D02*
X673100D01*
X469900Y596900D02*
Y622300D01*
X495300Y673100D02*
Y698500D01*
X469900D02*
X673100D01*
X469900Y673100D02*
Y698500D01*
Y673100D02*
X673100D01*
Y698500D01*
X226060D02*
X454660D01*
X200660Y673100D02*
X429260D01*
X200660D02*
Y698500D01*
X429260D01*
X226060Y673100D02*
Y698500D01*
Y673100D02*
X454660D01*
Y698500D01*
X226060Y622300D02*
X454660D01*
X200660Y596900D02*
X429260D01*
X200660D02*
Y622300D01*
X429260D01*
X226060Y596900D02*
Y622300D01*
Y596900D02*
X454660D01*
Y622300D01*
X495300Y114300D02*
Y139700D01*
X368300Y114300D02*
X495300D01*
X368300Y139700D02*
X495300D01*
X342900Y114300D02*
Y127000D01*
Y114300D02*
X368300D01*
Y139700D01*
X342900D02*
X368300D01*
X342900Y127000D02*
Y139700D01*
X520700Y38100D02*
Y63500D01*
X647700D01*
X520700Y38100D02*
X647700D01*
X673100Y50800D02*
Y63500D01*
X647700D02*
X673100D01*
X647700Y38100D02*
Y63500D01*
Y38100D02*
X673100D01*
Y50800D01*
X647446Y415036D02*
Y429260D01*
Y470916D02*
Y485140D01*
X203200Y268986D02*
X217424D01*
X225806Y21336D02*
Y35560D01*
X58420Y289560D02*
Y303784D01*
X153670Y170180D02*
Y248920D01*
X180340D01*
X153670Y170180D02*
X180340D01*
Y248920D01*
X342900Y38100D02*
Y63500D01*
X469900D01*
X342900Y38100D02*
X469900D01*
X495300Y50800D02*
Y63500D01*
X469900D02*
X495300D01*
X469900Y38100D02*
Y63500D01*
Y38100D02*
X495300D01*
Y50800D01*
X106660Y245029D02*
Y246501D01*
Y249444D02*
Y250916D01*
X9435Y181660D02*
Y259906D01*
Y181660D02*
X29718D01*
X61976Y181864D02*
X75692D01*
X9435Y259906D02*
X29210D01*
X32069Y218116D02*
X39434D01*
X31307D02*
X32069D01*
X29274Y220148D02*
X31307Y218116D01*
X29274Y220148D02*
Y223704D01*
X28259Y224720D02*
X29274Y223704D01*
X19877Y224720D02*
X28259D01*
X18860Y223704D02*
X19877Y224720D01*
X18860Y219132D02*
Y223704D01*
X17336Y217608D02*
X18860Y219132D01*
X10986Y217608D02*
X17336D01*
X24195Y181660D02*
Y204146D01*
X26481Y206432D01*
X35879D01*
X39434Y209988D01*
Y228784D01*
X37148Y231070D02*
X39434Y228784D01*
X25972Y231070D02*
X37148D01*
X23433Y233610D02*
X25972Y231070D01*
X23433Y233610D02*
Y259518D01*
X61976Y259842D02*
X76708D01*
X106660Y191044D02*
Y196532D01*
Y246501D02*
Y249444D01*
X81510Y60960D02*
X81590D01*
X22011Y748106D02*
X15240D01*
Y737950D01*
X22011D01*
X15240Y743028D02*
X18626D01*
X32168Y746414D02*
X30475Y748106D01*
X27090D01*
X25397Y746414D01*
Y739642D01*
X27090Y737950D01*
X30475D01*
X32168Y739642D01*
X42325Y748106D02*
X35553D01*
Y737950D01*
X42325D01*
X35553Y743028D02*
X38939D01*
X45710Y737950D02*
Y748106D01*
X52481Y737950D01*
Y748106D01*
X55867Y746414D02*
X57560Y748106D01*
X60945D01*
X62638Y746414D01*
Y744721D01*
X60945Y743028D01*
X59253D01*
X60945D01*
X62638Y741335D01*
Y739642D01*
X60945Y737950D01*
X57560D01*
X55867Y739642D01*
X66024Y748106D02*
X72795D01*
Y746414D01*
X66024Y739642D01*
Y737950D01*
X76180Y746414D02*
X77873Y748106D01*
X81259D01*
X82951Y746414D01*
Y744721D01*
X81259Y743028D01*
X79566D01*
X81259D01*
X82951Y741335D01*
Y739642D01*
X81259Y737950D01*
X77873D01*
X76180Y739642D01*
X86337Y746414D02*
X88030Y748106D01*
X91415D01*
X93108Y746414D01*
Y739642D01*
X91415Y737950D01*
X88030D01*
X86337Y739642D01*
Y746414D01*
X113422D02*
X111729Y748106D01*
X108343D01*
X106650Y746414D01*
Y739642D01*
X108343Y737950D01*
X111729D01*
X113422Y739642D01*
Y743028D01*
X110036D01*
X118500Y737950D02*
X121886D01*
X123578Y739642D01*
Y743028D01*
X121886Y744721D01*
X118500D01*
X116807Y743028D01*
Y739642D01*
X118500Y737950D01*
X126964D02*
X130350D01*
X128657D01*
Y748106D01*
X126964D01*
X142199D02*
Y737950D01*
X137121D01*
X135428Y739642D01*
Y743028D01*
X137121Y744721D01*
X142199D01*
X150663Y737950D02*
X147277D01*
X145585Y739642D01*
Y743028D01*
X147277Y744721D01*
X150663D01*
X152356Y743028D01*
Y741335D01*
X145585D01*
X155741Y737950D02*
Y744721D01*
X160820D01*
X162512Y743028D01*
Y737950D01*
X176055D02*
Y744721D01*
X179440Y748106D01*
X182826Y744721D01*
Y737950D01*
Y743028D01*
X176055D01*
X186211Y744721D02*
Y737950D01*
Y741335D01*
X187904Y743028D01*
X189597Y744721D01*
X191290D01*
X203139Y748106D02*
Y737950D01*
X198061D01*
X196368Y739642D01*
Y743028D01*
X198061Y744721D01*
X203139D01*
X206525D02*
Y739642D01*
X208218Y737950D01*
X213296D01*
Y744721D01*
X216682Y737950D02*
X220067D01*
X218375D01*
Y744721D01*
X216682D01*
X225146Y737950D02*
Y744721D01*
X230224D01*
X231917Y743028D01*
Y737950D01*
X236995D02*
X240381D01*
X242073Y739642D01*
Y743028D01*
X240381Y744721D01*
X236995D01*
X235302Y743028D01*
Y739642D01*
X236995Y737950D01*
X255616Y748106D02*
Y737950D01*
X260694D01*
X262387Y739642D01*
Y741335D01*
X260694Y743028D01*
X255616D01*
X260694D01*
X262387Y744721D01*
Y746414D01*
X260694Y748106D01*
X255616D01*
X267465Y737950D02*
X270851D01*
X272544Y739642D01*
Y743028D01*
X270851Y744721D01*
X267465D01*
X265772Y743028D01*
Y739642D01*
X267465Y737950D01*
X277622Y744721D02*
X281008D01*
X282700Y743028D01*
Y737950D01*
X277622D01*
X275929Y739642D01*
X277622Y741335D01*
X282700D01*
X286086Y744721D02*
Y737950D01*
Y741335D01*
X287779Y743028D01*
X289471Y744721D01*
X291164D01*
X303014Y748106D02*
Y737950D01*
X297936D01*
X296243Y739642D01*
Y743028D01*
X297936Y744721D01*
X303014D01*
X15240Y719666D02*
Y729822D01*
X22011Y719666D01*
Y729822D01*
X27090Y726437D02*
X30475D01*
X32168Y724744D01*
Y719666D01*
X27090D01*
X25397Y721358D01*
X27090Y723051D01*
X32168D01*
X37246Y728130D02*
Y726437D01*
X35553D01*
X38939D01*
X37246D01*
Y721358D01*
X38939Y719666D01*
X44017Y729822D02*
Y719666D01*
Y724744D01*
X45710Y726437D01*
X49096D01*
X50788Y724744D01*
Y719666D01*
X55867Y726437D02*
X59253D01*
X60945Y724744D01*
Y719666D01*
X55867D01*
X54174Y721358D01*
X55867Y723051D01*
X60945D01*
X64331Y719666D02*
Y726437D01*
X69409D01*
X71102Y724744D01*
Y719666D01*
X84644Y729822D02*
Y719666D01*
Y724744D01*
X91415D01*
Y729822D01*
Y719666D01*
X99879D02*
X96494D01*
X94801Y721358D01*
Y724744D01*
X96494Y726437D01*
X99879D01*
X101572Y724744D01*
Y723051D01*
X94801D01*
X104958Y726437D02*
Y719666D01*
Y723051D01*
X106650Y724744D01*
X108343Y726437D01*
X110036D01*
X115114D02*
Y719666D01*
Y723051D01*
X116807Y724744D01*
X118500Y726437D01*
X120193D01*
X125271Y719666D02*
X128657D01*
X126964D01*
Y726437D01*
X125271D01*
X133735Y719666D02*
Y726437D01*
X138813D01*
X140506Y724744D01*
Y719666D01*
X147277Y716280D02*
X148970D01*
X150663Y717973D01*
Y726437D01*
X145585D01*
X143892Y724744D01*
Y721358D01*
X145585Y719666D01*
X150663D01*
X155741Y728130D02*
Y726437D01*
X154049D01*
X157434D01*
X155741D01*
Y721358D01*
X157434Y719666D01*
X164205D02*
X167591D01*
X169284Y721358D01*
Y724744D01*
X167591Y726437D01*
X164205D01*
X162512Y724744D01*
Y721358D01*
X164205Y719666D01*
X172669D02*
Y726437D01*
X177748D01*
X179440Y724744D01*
Y719666D01*
X192983D02*
X196368D01*
X194676D01*
Y729822D01*
X192983Y728130D01*
X201447D02*
X203139Y729822D01*
X206525D01*
X208218Y728130D01*
Y721358D01*
X206525Y719666D01*
X203139D01*
X201447Y721358D01*
Y728130D01*
X211603Y719666D02*
X218375Y726437D01*
X221760Y719666D02*
X225146D01*
X223453D01*
Y729822D01*
X221760Y728130D01*
X230224Y721358D02*
X231917Y719666D01*
X235302D01*
X236995Y721358D01*
Y728130D01*
X235302Y729822D01*
X231917D01*
X230224Y728130D01*
Y726437D01*
X231917Y724744D01*
X236995D01*
X240381Y719666D02*
X247152Y726437D01*
X257309Y719666D02*
X250537D01*
X257309Y726437D01*
Y728130D01*
X255616Y729822D01*
X252230D01*
X250537Y728130D01*
X260694D02*
X262387Y729822D01*
X265772D01*
X267465Y728130D01*
Y721358D01*
X265772Y719666D01*
X262387D01*
X260694Y721358D01*
Y728130D01*
X277622Y719666D02*
X270851D01*
X277622Y726437D01*
Y728130D01*
X275929Y729822D01*
X272544D01*
X270851Y728130D01*
X281008D02*
X282700Y729822D01*
X286086D01*
X287779Y728130D01*
Y726437D01*
X286086Y724744D01*
X284393D01*
X286086D01*
X287779Y723051D01*
Y721358D01*
X286086Y719666D01*
X282700D01*
X281008Y721358D01*
X254849Y231142D02*
X258234D01*
X256542D01*
Y241298D01*
X254849Y239606D01*
X263313Y231142D02*
Y241298D01*
Y234527D02*
X268391Y237913D01*
X263313Y234527D02*
X268391Y231142D01*
X270512Y280671D02*
Y288289D01*
X274321D01*
X275590Y287019D01*
Y284480D01*
X274321Y283210D01*
X270512D01*
X273051D02*
X275590Y280671D01*
X278130Y287019D02*
X279399Y288289D01*
X281938D01*
X283208Y287019D01*
Y285750D01*
X281938Y284480D01*
X280669D01*
X281938D01*
X283208Y283210D01*
Y281941D01*
X281938Y280671D01*
X279399D01*
X278130Y281941D01*
X337820Y269240D02*
X341206D01*
X339513D01*
Y279397D01*
X337820Y277704D01*
X304806Y307338D02*
X308191D01*
X306499D01*
Y297182D01*
X304806D01*
X308191D01*
X320041Y305646D02*
X318348Y307338D01*
X314963D01*
X313270Y305646D01*
Y298874D01*
X314963Y297182D01*
X318348D01*
X320041Y298874D01*
X330197Y305646D02*
X328505Y307338D01*
X325119D01*
X323426Y305646D01*
Y303953D01*
X325119Y302260D01*
X328505D01*
X330197Y300567D01*
Y298874D01*
X328505Y297182D01*
X325119D01*
X323426Y298874D01*
X333583Y297182D02*
Y307338D01*
X338661D01*
X340354Y305646D01*
Y302260D01*
X338661Y300567D01*
X333583D01*
X361439Y340863D02*
X356360D01*
X358899D01*
Y328167D01*
X356360Y325628D01*
X353821D01*
X351282Y328167D01*
X366517Y338324D02*
X369056Y340863D01*
X374135D01*
X376674Y338324D01*
Y335785D01*
X374135Y333246D01*
X371595D01*
X374135D01*
X376674Y330706D01*
Y328167D01*
X374135Y325628D01*
X369056D01*
X366517Y328167D01*
X665480Y149860D02*
X658709D01*
X655323Y153246D01*
X658709Y156631D01*
X665480D01*
X660402D01*
Y149860D01*
X655323Y166788D02*
Y160017D01*
X660402D01*
X658709Y163402D01*
Y165095D01*
X660402Y166788D01*
X663787D01*
X665480Y165095D01*
Y161709D01*
X663787Y160017D01*
X637540Y149860D02*
X630769D01*
X627383Y153246D01*
X630769Y156631D01*
X637540D01*
X632462D01*
Y149860D01*
X637540Y165095D02*
X627383D01*
X632462Y160017D01*
Y166788D01*
X614680Y149860D02*
X607909D01*
X604523Y153246D01*
X607909Y156631D01*
X614680D01*
X609602D01*
Y149860D01*
X606216Y160017D02*
X604523Y161709D01*
Y165095D01*
X606216Y166788D01*
X607909D01*
X609602Y165095D01*
Y163402D01*
Y165095D01*
X611294Y166788D01*
X612987D01*
X614680Y165095D01*
Y161709D01*
X612987Y160017D01*
X591820Y149860D02*
X585049D01*
X581663Y153246D01*
X585049Y156631D01*
X591820D01*
X586742D01*
Y149860D01*
X591820Y166788D02*
Y160017D01*
X585049Y166788D01*
X583356D01*
X581663Y165095D01*
Y161709D01*
X583356Y160017D01*
X563880Y149860D02*
X557109D01*
X553723Y153246D01*
X557109Y156631D01*
X563880D01*
X558802D01*
Y149860D01*
X563880Y160017D02*
Y163402D01*
Y161709D01*
X553723D01*
X555416Y160017D01*
X538480Y149860D02*
X531709D01*
X528323Y153246D01*
X531709Y156631D01*
X538480D01*
X533402D01*
Y149860D01*
X530016Y160017D02*
X528323Y161709D01*
Y165095D01*
X530016Y166788D01*
X536787D01*
X538480Y165095D01*
Y161709D01*
X536787Y160017D01*
X530016D01*
X474983Y147320D02*
X481754D01*
X485140Y150706D01*
X481754Y154091D01*
X474983D01*
X485140Y157477D02*
Y160862D01*
Y159170D01*
X478369D01*
Y157477D01*
X485140Y165941D02*
X478369D01*
Y171019D01*
X480062Y172712D01*
X485140D01*
X438576Y154091D02*
X436883Y152398D01*
Y149013D01*
X438576Y147320D01*
X445347D01*
X447040Y149013D01*
Y152398D01*
X445347Y154091D01*
X441962D01*
Y150706D01*
X447040Y157477D02*
X440269D01*
Y162555D01*
X441962Y164248D01*
X447040D01*
X436883Y174405D02*
X447040D01*
Y169326D01*
X445347Y167633D01*
X441962D01*
X440269Y169326D01*
Y174405D01*
X406403Y154091D02*
Y147320D01*
X411482D01*
X409789Y150706D01*
Y152398D01*
X411482Y154091D01*
X414867D01*
X416560Y152398D01*
Y149013D01*
X414867Y147320D01*
X406403Y157477D02*
X413174D01*
X416560Y160862D01*
X413174Y164248D01*
X406403D01*
X387776Y147320D02*
X386083Y149013D01*
Y152398D01*
X387776Y154091D01*
X389469D01*
X391162Y152398D01*
Y150706D01*
Y152398D01*
X392854Y154091D01*
X394547D01*
X396240Y152398D01*
Y149013D01*
X394547Y147320D01*
X386083Y157477D02*
X392854D01*
X396240Y160862D01*
X392854Y164248D01*
X386083D01*
X387776Y167633D02*
X386083Y169326D01*
Y172712D01*
X387776Y174405D01*
X389469D01*
X391162Y172712D01*
Y171019D01*
Y172712D01*
X392854Y174405D01*
X394547D01*
X396240Y172712D01*
Y169326D01*
X394547Y167633D01*
X355600Y147320D02*
X345443D01*
Y152398D01*
X347136Y154091D01*
X350522D01*
X352214Y152398D01*
Y147320D01*
Y150706D02*
X355600Y154091D01*
X345443Y164248D02*
Y157477D01*
X355600D01*
Y164248D01*
X350522Y157477D02*
Y160862D01*
X347136Y174405D02*
X345443Y172712D01*
Y169326D01*
X347136Y167633D01*
X348829D01*
X350522Y169326D01*
Y172712D01*
X352214Y174405D01*
X353907D01*
X355600Y172712D01*
Y169326D01*
X353907Y167633D01*
X345443Y184561D02*
Y177790D01*
X355600D01*
Y184561D01*
X350522Y177790D02*
Y181176D01*
X345443Y187947D02*
Y194718D01*
Y191332D01*
X355600D01*
X468210Y68582D02*
X461439D01*
X468210Y75353D01*
Y77046D01*
X466518Y78738D01*
X463132D01*
X461439Y77046D01*
X478367Y68582D02*
X471596D01*
X478367Y75353D01*
Y77046D01*
X476674Y78738D01*
X473289D01*
X471596Y77046D01*
X481753Y75353D02*
Y70274D01*
X483446Y68582D01*
X488524D01*
Y75353D01*
X498681Y78738D02*
X491909D01*
Y73660D01*
X495295D01*
X491909D01*
Y68582D01*
X480696Y96519D02*
X479427Y97789D01*
X476888D01*
X475618Y96519D01*
Y91441D01*
X476888Y90171D01*
X479427D01*
X480696Y91441D01*
X483236Y90171D02*
X485775D01*
X484505D01*
Y97789D01*
X483236Y96519D01*
X494662Y97789D02*
X492123Y96519D01*
X489584Y93980D01*
Y91441D01*
X490853Y90171D01*
X493392D01*
X494662Y91441D01*
Y92710D01*
X493392Y93980D01*
X489584D01*
X683896Y135889D02*
X681357D01*
X682627D01*
Y129541D01*
X681357Y128271D01*
X680088D01*
X678818Y129541D01*
X686436Y128271D02*
X688975D01*
X687705D01*
Y135889D01*
X686436Y134619D01*
X692784D02*
X694053Y135889D01*
X696592D01*
X697862Y134619D01*
Y129541D01*
X696592Y128271D01*
X694053D01*
X692784Y129541D01*
Y134619D01*
X489371Y23704D02*
X487678Y25397D01*
X484293D01*
X482600Y23704D01*
Y16933D01*
X484293Y15240D01*
X487678D01*
X489371Y16933D01*
Y20318D01*
X485986D01*
X492757Y15240D02*
Y25397D01*
X499528Y15240D01*
Y25397D01*
X502913D02*
Y15240D01*
X507992D01*
X509685Y16933D01*
Y23704D01*
X507992Y25397D01*
X502913D01*
X523227Y15240D02*
Y25397D01*
X528305D01*
X529998Y23704D01*
Y20318D01*
X528305Y18626D01*
X523227D01*
X533384Y25397D02*
X536769D01*
X535076D01*
Y15240D01*
X533384D01*
X536769D01*
X541848D02*
Y25397D01*
X548619Y15240D01*
Y25397D01*
X558775Y23704D02*
X557083Y25397D01*
X553697D01*
X552004Y23704D01*
Y22011D01*
X553697Y20318D01*
X557083D01*
X558775Y18626D01*
Y16933D01*
X557083Y15240D01*
X553697D01*
X552004Y16933D01*
X423331Y727284D02*
X421638Y728977D01*
X418253D01*
X416560Y727284D01*
Y720513D01*
X418253Y718820D01*
X421638D01*
X423331Y720513D01*
Y723898D01*
X419946D01*
X426717Y718820D02*
Y728977D01*
X433488Y718820D01*
Y728977D01*
X436873D02*
Y718820D01*
X441952D01*
X443645Y720513D01*
Y727284D01*
X441952Y728977D01*
X436873D01*
X457187Y718820D02*
Y728977D01*
X462265D01*
X463958Y727284D01*
Y723898D01*
X462265Y722206D01*
X457187D01*
X467344Y728977D02*
X470729D01*
X469036D01*
Y718820D01*
X467344D01*
X470729D01*
X475808D02*
Y728977D01*
X482579Y718820D01*
Y728977D01*
X492735Y727284D02*
X491043Y728977D01*
X487657D01*
X485964Y727284D01*
Y725591D01*
X487657Y723898D01*
X491043D01*
X492735Y722206D01*
Y720513D01*
X491043Y718820D01*
X487657D01*
X485964Y720513D01*
X694690Y621029D02*
X692151D01*
X693421D01*
Y614681D01*
X692151Y613411D01*
X690882D01*
X689612Y614681D01*
X697230Y621029D02*
X702308D01*
Y619759D01*
X697230Y614681D01*
Y613411D01*
X684530Y694689D02*
X681991D01*
X683261D01*
Y688341D01*
X681991Y687071D01*
X680722D01*
X679452Y688341D01*
X692148Y687071D02*
X687070D01*
X692148Y692150D01*
Y693419D01*
X690878Y694689D01*
X688339D01*
X687070Y693419D01*
X186690Y697229D02*
X184151D01*
X185421D01*
Y690881D01*
X184151Y689611D01*
X182882D01*
X181612Y690881D01*
X194308Y697229D02*
X189230D01*
Y693420D01*
X191769Y694690D01*
X193038D01*
X194308Y693420D01*
Y690881D01*
X193038Y689611D01*
X190499D01*
X189230Y690881D01*
X184150Y621029D02*
X181611D01*
X182881D01*
Y614681D01*
X181611Y613411D01*
X180342D01*
X179072Y614681D01*
X186690Y619759D02*
X187959Y621029D01*
X190498D01*
X191768Y619759D01*
Y618490D01*
X190498Y617220D01*
X191768Y615950D01*
Y614681D01*
X190498Y613411D01*
X187959D01*
X186690Y614681D01*
Y615950D01*
X187959Y617220D01*
X186690Y618490D01*
Y619759D01*
X187959Y617220D02*
X190498D01*
X524090Y269242D02*
X517319D01*
X524090Y276013D01*
Y277706D01*
X522398Y279398D01*
X519012D01*
X517319Y277706D01*
X534247Y269242D02*
X527476D01*
X534247Y276013D01*
Y277706D01*
X532554Y279398D01*
X529169D01*
X527476Y277706D01*
X537633Y276013D02*
Y270934D01*
X539326Y269242D01*
X544404D01*
Y276013D01*
X554561Y279398D02*
X547789D01*
Y274320D01*
X551175D01*
X547789D01*
Y269242D01*
X523876Y320039D02*
X522607Y321309D01*
X520068D01*
X518798Y320039D01*
Y314961D01*
X520068Y313691D01*
X522607D01*
X523876Y314961D01*
X526416Y313691D02*
X528955D01*
X527685D01*
Y321309D01*
X526416Y320039D01*
X537842Y313691D02*
X532764D01*
X537842Y318770D01*
Y320039D01*
X536572Y321309D01*
X534033D01*
X532764Y320039D01*
X445350Y248922D02*
X438579D01*
X445350Y255693D01*
Y257386D01*
X443658Y259078D01*
X440272D01*
X438579Y257386D01*
X455507Y248922D02*
X448736D01*
X455507Y255693D01*
Y257386D01*
X453814Y259078D01*
X450429D01*
X448736Y257386D01*
X458893Y255693D02*
Y250614D01*
X460586Y248922D01*
X465664D01*
Y255693D01*
X475821Y259078D02*
X469049D01*
Y254000D01*
X472435D01*
X469049D01*
Y248922D01*
X443230Y276859D02*
X441961Y278129D01*
X439422D01*
X438152Y276859D01*
Y271781D01*
X439422Y270511D01*
X441961D01*
X443230Y271781D01*
X445770Y276859D02*
X447039Y278129D01*
X449578D01*
X450848Y276859D01*
Y275590D01*
X449578Y274320D01*
X450848Y273050D01*
Y271781D01*
X449578Y270511D01*
X447039D01*
X445770Y271781D01*
Y273050D01*
X447039Y274320D01*
X445770Y275590D01*
Y276859D01*
X447039Y274320D02*
X449578D01*
X396242Y248919D02*
X394972Y250189D01*
X392433D01*
X391163Y248919D01*
Y247650D01*
X392433Y246380D01*
X394972D01*
X396242Y245110D01*
Y243841D01*
X394972Y242571D01*
X392433D01*
X391163Y243841D01*
X398781Y250189D02*
Y242571D01*
X401320Y245110D01*
X403859Y242571D01*
Y250189D01*
X406398Y248919D02*
X407668Y250189D01*
X410207D01*
X411477Y248919D01*
Y247650D01*
X410207Y246380D01*
X408938D01*
X410207D01*
X411477Y245110D01*
Y243841D01*
X410207Y242571D01*
X407668D01*
X406398Y243841D01*
X349678Y236222D02*
Y246378D01*
X344599Y241300D01*
X351371D01*
X354756Y246378D02*
X361527D01*
Y244686D01*
X354756Y237914D01*
Y236222D01*
X364913D02*
Y242993D01*
X369991D01*
X371684Y241300D01*
Y236222D01*
X381841Y246378D02*
X375070D01*
Y241300D01*
X378455D01*
X375070D01*
Y236222D01*
X331470Y220979D02*
X330201Y222249D01*
X327662D01*
X326392Y220979D01*
Y215901D01*
X327662Y214631D01*
X330201D01*
X331470Y215901D01*
X339088Y222249D02*
X334010D01*
Y218440D01*
X336549Y219710D01*
X337818D01*
X339088Y218440D01*
Y215901D01*
X337818Y214631D01*
X335279D01*
X334010Y215901D01*
X328930Y140969D02*
X326391D01*
X327661D01*
Y134621D01*
X326391Y133351D01*
X325122D01*
X323852Y134621D01*
X331470D02*
X332739Y133351D01*
X335278D01*
X336548Y134621D01*
Y139699D01*
X335278Y140969D01*
X332739D01*
X331470Y139699D01*
Y138430D01*
X332739Y137160D01*
X336548D01*
X417411Y71122D02*
X410639D01*
X417411Y77893D01*
Y79586D01*
X415718Y81278D01*
X412332D01*
X410639Y79586D01*
X427567Y71122D02*
X420796D01*
X427567Y77893D01*
Y79586D01*
X425874Y81278D01*
X422489D01*
X420796Y79586D01*
X430953Y77893D02*
Y72814D01*
X432646Y71122D01*
X437724D01*
Y77893D01*
X447881Y81278D02*
X441110D01*
Y76200D01*
X444495D01*
X441110D01*
Y71122D01*
X386716Y78739D02*
X385447Y80009D01*
X382908D01*
X381638Y78739D01*
Y73661D01*
X382908Y72391D01*
X385447D01*
X386716Y73661D01*
X389256Y72391D02*
X391795D01*
X390525D01*
Y80009D01*
X389256Y78739D01*
X400682Y80009D02*
X395604D01*
Y76200D01*
X398143Y77470D01*
X399412D01*
X400682Y76200D01*
Y73661D01*
X399412Y72391D01*
X396873D01*
X395604Y73661D01*
X303111Y76202D02*
X296339D01*
X303111Y82973D01*
Y84666D01*
X301418Y86358D01*
X298032D01*
X296339Y84666D01*
X313267Y76202D02*
X306496D01*
X313267Y82973D01*
Y84666D01*
X311574Y86358D01*
X308189D01*
X306496Y84666D01*
X316653Y82973D02*
Y77894D01*
X318346Y76202D01*
X323424D01*
Y82973D01*
X333581Y86358D02*
X326810D01*
Y81280D01*
X330195D01*
X326810D01*
Y76202D01*
X348616Y76199D02*
X347347Y77469D01*
X344808D01*
X343538Y76199D01*
Y71121D01*
X344808Y69851D01*
X347347D01*
X348616Y71121D01*
X351156Y69851D02*
X353695D01*
X352425D01*
Y77469D01*
X351156Y76199D01*
X361312Y69851D02*
Y77469D01*
X357504Y73660D01*
X362582D01*
X531711Y76202D02*
X535096D01*
X533403D01*
Y86358D01*
X531711Y84666D01*
X540174D02*
X541867Y86358D01*
X545253D01*
X546946Y84666D01*
Y77894D01*
X545253Y76202D01*
X541867D01*
X540174Y77894D01*
Y84666D01*
X550331Y76202D02*
Y86358D01*
Y79587D02*
X555410Y82973D01*
X550331Y79587D02*
X555410Y76202D01*
X539752Y97791D02*
Y105409D01*
X543561D01*
X544830Y104139D01*
Y101600D01*
X543561Y100330D01*
X539752D01*
X542291D02*
X544830Y97791D01*
X547370Y99061D02*
X548639Y97791D01*
X551178D01*
X552448Y99061D01*
Y104139D01*
X551178Y105409D01*
X548639D01*
X547370Y104139D01*
Y102870D01*
X548639Y101600D01*
X552448D01*
X693418Y53339D02*
Y58418D01*
Y55878D01*
X680722D01*
X678183Y58418D01*
Y60957D01*
X680722Y63496D01*
X678183Y40643D02*
X693418D01*
X685800Y48261D01*
Y38104D01*
X668870Y76202D02*
X672256D01*
X670563D01*
Y86358D01*
X668870Y84666D01*
X677334D02*
X679027Y86358D01*
X682413D01*
X684106Y84666D01*
Y77894D01*
X682413Y76202D01*
X679027D01*
X677334Y77894D01*
Y84666D01*
X687491Y76202D02*
Y86358D01*
Y79587D02*
X692570Y82973D01*
X687491Y79587D02*
X692570Y76202D01*
X666118Y97791D02*
Y105409D01*
X669927D01*
X671196Y104139D01*
Y101600D01*
X669927Y100330D01*
X666118D01*
X668657D02*
X671196Y97791D01*
X673736D02*
X676275D01*
X675005D01*
Y105409D01*
X673736Y104139D01*
X680084D02*
X681353Y105409D01*
X683892D01*
X685162Y104139D01*
Y99061D01*
X683892Y97791D01*
X681353D01*
X680084Y99061D01*
Y104139D01*
X591824Y368302D02*
X595210D01*
X593517D01*
Y378458D01*
X591824Y376766D01*
X600288Y375073D02*
Y369994D01*
X601981Y368302D01*
X607059D01*
Y375073D01*
X617216Y378458D02*
X610445D01*
Y373380D01*
X613830D01*
X610445D01*
Y368302D01*
X592456Y401319D02*
X591187Y402589D01*
X588648D01*
X587378Y401319D01*
Y396241D01*
X588648Y394971D01*
X591187D01*
X592456Y396241D01*
X594996Y394971D02*
X597535D01*
X596265D01*
Y402589D01*
X594996Y401319D01*
X601344Y402589D02*
X606422D01*
Y401319D01*
X601344Y396241D01*
Y394971D01*
X676489Y441962D02*
X679874D01*
X678182D01*
Y452118D01*
X676489Y450426D01*
X684953Y441962D02*
Y452118D01*
Y445347D02*
X690031Y448733D01*
X684953Y445347D02*
X690031Y441962D01*
X712472Y438151D02*
Y445769D01*
X716281D01*
X717550Y444499D01*
Y441960D01*
X716281Y440690D01*
X712472D01*
X715011D02*
X717550Y438151D01*
X720090Y445769D02*
X725168D01*
Y444499D01*
X720090Y439421D01*
Y438151D01*
X679029Y497842D02*
X682414D01*
X680722D01*
Y507998D01*
X679029Y506306D01*
X687493Y497842D02*
Y507998D01*
Y501227D02*
X692571Y504613D01*
X687493Y501227D02*
X692571Y497842D01*
X715012Y496571D02*
Y504189D01*
X718821D01*
X720090Y502919D01*
Y500380D01*
X718821Y499110D01*
X715012D01*
X717551D02*
X720090Y496571D01*
X722630Y502919D02*
X723899Y504189D01*
X726438D01*
X727708Y502919D01*
Y501650D01*
X726438Y500380D01*
X727708Y499110D01*
Y497841D01*
X726438Y496571D01*
X723899D01*
X722630Y497841D01*
Y499110D01*
X723899Y500380D01*
X722630Y501650D01*
Y502919D01*
X723899Y500380D02*
X726438D01*
X588443Y442808D02*
Y449579D01*
X591828Y452965D01*
X595214Y449579D01*
Y442808D01*
Y447886D01*
X588443D01*
X598599Y442808D02*
Y452965D01*
X603678D01*
X605370Y451272D01*
Y447886D01*
X603678Y446194D01*
X598599D01*
X601985D02*
X605370Y442808D01*
X608756Y452965D02*
Y442808D01*
X613834D01*
X615527Y444501D01*
Y451272D01*
X613834Y452965D01*
X608756D01*
X618913Y441115D02*
X625684D01*
X629070Y442808D02*
Y452965D01*
X634148D01*
X635841Y451272D01*
Y447886D01*
X634148Y446194D01*
X629070D01*
X632455D02*
X635841Y442808D01*
X639226Y452965D02*
X645997Y442808D01*
Y452965D02*
X639226Y442808D01*
X565154Y427989D02*
Y420371D01*
X570233D01*
X577850Y427989D02*
X572772D01*
Y420371D01*
X577850D01*
X572772Y424180D02*
X575311D01*
X580390Y427989D02*
Y420371D01*
X584198D01*
X585468Y421641D01*
Y426719D01*
X584198Y427989D01*
X580390D01*
X591816Y420371D02*
Y427989D01*
X588007Y424180D01*
X593086D01*
X590983Y498688D02*
Y505459D01*
X594368Y508845D01*
X597754Y505459D01*
Y498688D01*
Y503766D01*
X590983D01*
X601139Y498688D02*
Y508845D01*
X606218D01*
X607910Y507152D01*
Y503766D01*
X606218Y502074D01*
X601139D01*
X604525D02*
X607910Y498688D01*
X611296Y508845D02*
Y498688D01*
X616374D01*
X618067Y500381D01*
Y507152D01*
X616374Y508845D01*
X611296D01*
X621453Y496995D02*
X628224D01*
X631609Y508845D02*
X638381D01*
X634995D01*
Y498688D01*
X641766Y508845D02*
X648537Y498688D01*
Y508845D02*
X641766Y498688D01*
X562615Y483869D02*
Y476251D01*
X567693D01*
X575310Y483869D02*
X570232D01*
Y476251D01*
X575310D01*
X570232Y480060D02*
X572771D01*
X577850Y483869D02*
Y476251D01*
X581658D01*
X582928Y477521D01*
Y482599D01*
X581658Y483869D01*
X577850D01*
X590546D02*
X585467D01*
Y480060D01*
X588006Y481330D01*
X589276D01*
X590546Y480060D01*
Y477521D01*
X589276Y476251D01*
X586737D01*
X585467Y477521D01*
X513931Y510542D02*
X507159D01*
X513931Y517313D01*
Y519006D01*
X512238Y520698D01*
X508852D01*
X507159Y519006D01*
X524087Y510542D02*
X517316D01*
X524087Y517313D01*
Y519006D01*
X522394Y520698D01*
X519009D01*
X517316Y519006D01*
X527473Y517313D02*
Y512234D01*
X529166Y510542D01*
X534244D01*
Y517313D01*
X544401Y520698D02*
X537630D01*
Y515620D01*
X541015D01*
X537630D01*
Y510542D01*
X434341Y496570D02*
X433071Y495301D01*
Y492762D01*
X434341Y491492D01*
X439419D01*
X440689Y492762D01*
Y495301D01*
X439419Y496570D01*
Y499110D02*
X440689Y500379D01*
Y502918D01*
X439419Y504188D01*
X434341D01*
X433071Y502918D01*
Y500379D01*
X434341Y499110D01*
X435610D01*
X436880Y500379D01*
Y504188D01*
X465671Y530862D02*
X458899D01*
X465671Y537633D01*
Y539326D01*
X463978Y541018D01*
X460592D01*
X458899Y539326D01*
X475827Y530862D02*
X469056D01*
X475827Y537633D01*
Y539326D01*
X474134Y541018D01*
X470749D01*
X469056Y539326D01*
X479213Y537633D02*
Y532554D01*
X480906Y530862D01*
X485984D01*
Y537633D01*
X496141Y541018D02*
X489370D01*
Y535940D01*
X492755D01*
X489370D01*
Y530862D01*
X513716Y500379D02*
X512447Y501649D01*
X509908D01*
X508638Y500379D01*
Y495301D01*
X509908Y494031D01*
X512447D01*
X513716Y495301D01*
X516256Y494031D02*
X518795D01*
X517525D01*
Y501649D01*
X516256Y500379D01*
X522604D02*
X523873Y501649D01*
X526412D01*
X527682Y500379D01*
Y495301D01*
X526412Y494031D01*
X523873D01*
X522604Y495301D01*
Y500379D01*
X376771Y537634D02*
X369999D01*
X376771Y544406D01*
Y546098D01*
X375078Y547791D01*
X371692D01*
X369999Y546098D01*
X386927Y537634D02*
X380156D01*
X386927Y544406D01*
Y546098D01*
X385234Y547791D01*
X381849D01*
X380156Y546098D01*
X390313Y534249D02*
Y544406D01*
X395391D01*
X397084Y542713D01*
Y539327D01*
X395391Y537634D01*
X390313D01*
X407241Y547791D02*
X400470D01*
Y542713D01*
X403855D01*
X400470D01*
Y537634D01*
X426086Y546099D02*
X424816Y547369D01*
X422277D01*
X421008Y546099D01*
Y541021D01*
X422277Y539751D01*
X424816D01*
X426086Y541021D01*
X428625Y539751D02*
X431164D01*
X429895D01*
Y547369D01*
X428625Y546099D01*
X434973Y539751D02*
X437512D01*
X436243D01*
Y547369D01*
X434973Y546099D01*
X314963Y482602D02*
X318348D01*
X316655D01*
Y492758D01*
X314963Y491066D01*
X323426Y482602D02*
Y492758D01*
X326812Y489373D01*
X330197Y492758D01*
Y482602D01*
X343408Y519430D02*
Y527048D01*
X347217D01*
X348486Y525778D01*
Y523239D01*
X347217Y521969D01*
X343408D01*
X345947D02*
X348486Y519430D01*
X356104Y527048D02*
X353565Y525778D01*
X351026Y523239D01*
Y520700D01*
X352295Y519430D01*
X354834D01*
X356104Y520700D01*
Y521969D01*
X354834Y523239D01*
X351026D01*
X226072Y320888D02*
Y331045D01*
X229458Y327659D01*
X232843Y331045D01*
Y320888D01*
X236229D02*
Y327659D01*
X239615Y331045D01*
X243000Y327659D01*
Y320888D01*
Y325966D01*
X236229D01*
X246386Y331045D02*
X249771D01*
X248078D01*
Y320888D01*
X246386D01*
X249771D01*
X254850D02*
Y331045D01*
X261621Y320888D01*
Y331045D01*
X265006Y319195D02*
X271777D01*
X275163Y320888D02*
Y331045D01*
X280242D01*
X281934Y329352D01*
Y325966D01*
X280242Y324274D01*
X275163D01*
X285320Y331045D02*
Y320888D01*
X288705Y324274D01*
X292091Y320888D01*
Y331045D01*
X295477Y320888D02*
Y331045D01*
X300555D01*
X302248Y329352D01*
Y325966D01*
X300555Y324274D01*
X295477D01*
X298862D02*
X302248Y320888D01*
X185422Y393699D02*
X184152Y394969D01*
X181613D01*
X180343Y393699D01*
Y392430D01*
X181613Y391160D01*
X184152D01*
X185422Y389890D01*
Y388621D01*
X184152Y387351D01*
X181613D01*
X180343Y388621D01*
X187961Y394969D02*
Y387351D01*
X190500Y389890D01*
X193039Y387351D01*
Y394969D01*
X199387Y387351D02*
Y394969D01*
X195578Y391160D01*
X200657D01*
X244690Y441962D02*
X237919D01*
X244690Y448733D01*
Y450426D01*
X242998Y452118D01*
X239612D01*
X237919Y450426D01*
X254847Y441962D02*
X248076D01*
X254847Y448733D01*
Y450426D01*
X253154Y452118D01*
X249769D01*
X248076Y450426D01*
X258233Y448733D02*
Y443654D01*
X259926Y441962D01*
X265004D01*
Y448733D01*
X275161Y452118D02*
X268389D01*
Y447040D01*
X271775D01*
X268389D01*
Y441962D01*
X232410Y429259D02*
X231141Y430529D01*
X228602D01*
X227332Y429259D01*
Y424181D01*
X228602Y422911D01*
X231141D01*
X232410Y424181D01*
X238758Y422911D02*
Y430529D01*
X234950Y426720D01*
X240028D01*
X265011Y466514D02*
X258239D01*
X265011Y473286D01*
Y474978D01*
X263318Y476671D01*
X259932D01*
X258239Y474978D01*
X275167Y466514D02*
X268396D01*
X275167Y473286D01*
Y474978D01*
X273474Y476671D01*
X270089D01*
X268396Y474978D01*
X278553Y463129D02*
Y473286D01*
X283631D01*
X285324Y471593D01*
Y468207D01*
X283631Y466514D01*
X278553D01*
X295481Y476671D02*
X288710D01*
Y471593D01*
X292095D01*
X288710D01*
Y466514D01*
X176530Y482599D02*
X175261Y483869D01*
X172722D01*
X171452Y482599D01*
Y477521D01*
X172722Y476251D01*
X175261D01*
X176530Y477521D01*
X184148Y483869D02*
X181609Y482599D01*
X179070Y480060D01*
Y477521D01*
X180339Y476251D01*
X182878D01*
X184148Y477521D01*
Y478790D01*
X182878Y480060D01*
X179070D01*
X269242Y505462D02*
X272628D01*
X270935D01*
Y515618D01*
X269242Y513926D01*
X277706Y505462D02*
Y515618D01*
X281092Y512233D01*
X284478Y515618D01*
Y505462D01*
X241808Y537210D02*
Y544827D01*
X245617D01*
X246886Y543558D01*
Y541019D01*
X245617Y539749D01*
X241808D01*
X244347D02*
X246886Y537210D01*
X254504Y544827D02*
X249426D01*
Y541019D01*
X251965Y542288D01*
X253234D01*
X254504Y541019D01*
Y538480D01*
X253234Y537210D01*
X250695D01*
X249426Y538480D01*
X158330Y573194D02*
X151559D01*
X158330Y579966D01*
Y581658D01*
X156638Y583351D01*
X153252D01*
X151559Y581658D01*
X168487Y573194D02*
X161716D01*
X168487Y579966D01*
Y581658D01*
X166794Y583351D01*
X163409D01*
X161716Y581658D01*
X171873Y569809D02*
Y579966D01*
X176951D01*
X178644Y578273D01*
Y574887D01*
X176951Y573194D01*
X171873D01*
X188801Y583351D02*
X182029D01*
Y578273D01*
X185415D01*
X182029D01*
Y573194D01*
X143510Y556259D02*
X142241Y557529D01*
X139702D01*
X138432Y556259D01*
Y551181D01*
X139702Y549911D01*
X142241D01*
X143510Y551181D01*
X146050Y557529D02*
X151128D01*
Y556259D01*
X146050Y551181D01*
Y549911D01*
X69430Y401322D02*
X62659D01*
X69430Y408093D01*
Y409786D01*
X67738Y411478D01*
X64352D01*
X62659Y409786D01*
X79587Y401322D02*
X72816D01*
X79587Y408093D01*
Y409786D01*
X77894Y411478D01*
X74509D01*
X72816Y409786D01*
X82973Y408093D02*
Y403014D01*
X84666Y401322D01*
X89744D01*
Y408093D01*
X99901Y411478D02*
X93130D01*
Y406400D01*
X96515D01*
X93130D01*
Y401322D01*
X43178Y449578D02*
X41909Y450848D01*
X39370D01*
X38100Y449578D01*
Y444500D01*
X39370Y443230D01*
X41909D01*
X43178Y444500D01*
X45718Y449578D02*
X46987Y450848D01*
X49526D01*
X50796Y449578D01*
Y448308D01*
X49526Y447039D01*
X48257D01*
X49526D01*
X50796Y445769D01*
Y444500D01*
X49526Y443230D01*
X46987D01*
X45718Y444500D01*
X165951Y139702D02*
X159179D01*
X165951Y146473D01*
Y148166D01*
X164258Y149858D01*
X160872D01*
X159179Y148166D01*
X176107Y139702D02*
X169336D01*
X176107Y146473D01*
Y148166D01*
X174414Y149858D01*
X171029D01*
X169336Y148166D01*
X179493Y146473D02*
Y141394D01*
X181186Y139702D01*
X186264D01*
Y146473D01*
X196421Y149858D02*
X189650D01*
Y144780D01*
X193035D01*
X189650D01*
Y139702D01*
X228600Y208279D02*
X227330Y209549D01*
X224791D01*
X223522Y208279D01*
Y203201D01*
X224791Y201931D01*
X227330D01*
X228600Y203201D01*
X231139Y201931D02*
X233678D01*
X232409D01*
Y209549D01*
X231139Y208279D01*
X209127Y287018D02*
X202356D01*
Y281940D01*
X205742Y283633D01*
X207434D01*
X209127Y281940D01*
Y278554D01*
X207434Y276862D01*
X204049D01*
X202356Y278554D01*
X212513Y287018D02*
Y280247D01*
X215898Y276862D01*
X219284Y280247D01*
Y287018D01*
X166374Y273049D02*
Y265431D01*
X171453D01*
X179070Y273049D02*
X173992D01*
Y265431D01*
X179070D01*
X173992Y269240D02*
X176531D01*
X181610Y273049D02*
Y265431D01*
X185418D01*
X186688Y266701D01*
Y271779D01*
X185418Y273049D01*
X181610D01*
X189227Y271779D02*
X190497Y273049D01*
X193036D01*
X194305Y271779D01*
Y270510D01*
X193036Y269240D01*
X191766D01*
X193036D01*
X194305Y267970D01*
Y266701D01*
X193036Y265431D01*
X190497D01*
X189227Y266701D01*
X44029Y327662D02*
X47414D01*
X45722D01*
Y337818D01*
X44029Y336126D01*
X52493Y327662D02*
Y337818D01*
Y331047D02*
X57571Y334433D01*
X52493Y331047D02*
X57571Y327662D01*
X116842Y313691D02*
Y321309D01*
X120650D01*
X121920Y320039D01*
Y317500D01*
X120650Y316230D01*
X116842D01*
X119381D02*
X121920Y313691D01*
X124459D02*
X126998D01*
X125729D01*
Y321309D01*
X124459Y320039D01*
X16952Y369992D02*
X15259Y371685D01*
X11873D01*
X10180Y369992D01*
Y363221D01*
X11873Y361528D01*
X15259D01*
X16952Y363221D01*
X20337Y371685D02*
Y361528D01*
Y366606D01*
X27108D01*
Y371685D01*
Y361528D01*
X30494Y369992D02*
X32187Y371685D01*
X35572D01*
X37265Y369992D01*
Y368299D01*
X35572Y366606D01*
X33879D01*
X35572D01*
X37265Y364914D01*
Y363221D01*
X35572Y361528D01*
X32187D01*
X30494Y363221D01*
X45729Y361528D02*
Y371685D01*
X40651Y366606D01*
X47422D01*
X50807Y369992D02*
X52500Y371685D01*
X55886D01*
X57579Y369992D01*
Y363221D01*
X55886Y361528D01*
X52500D01*
X50807Y363221D01*
Y369992D01*
X67735D02*
X66042Y371685D01*
X62657D01*
X60964Y369992D01*
Y363221D01*
X62657Y361528D01*
X66042D01*
X67735Y363221D01*
Y366606D01*
X64350D01*
X71121Y359835D02*
X77892D01*
X88049Y369992D02*
X86356Y371685D01*
X82970D01*
X81278Y369992D01*
Y368299D01*
X82970Y366606D01*
X86356D01*
X88049Y364914D01*
Y363221D01*
X86356Y361528D01*
X82970D01*
X81278Y363221D01*
X91434Y371685D02*
Y361528D01*
X94820Y364914D01*
X98205Y361528D01*
Y371685D01*
X101591D02*
X104977D01*
X103284D01*
Y361528D01*
X101591D01*
X104977D01*
X110055Y371685D02*
X116826D01*
X113441D01*
Y361528D01*
X126983Y369992D02*
X125290Y371685D01*
X121904D01*
X120212Y369992D01*
Y363221D01*
X121904Y361528D01*
X125290D01*
X126983Y363221D01*
X130368Y371685D02*
Y361528D01*
Y366606D01*
X137140D01*
Y371685D01*
Y361528D01*
X148842Y392936D02*
X147573Y394206D01*
X145034D01*
X143764Y392936D01*
Y391666D01*
X145034Y390397D01*
X147573D01*
X148842Y389127D01*
Y387858D01*
X147573Y386588D01*
X145034D01*
X143764Y387858D01*
X151382Y394206D02*
Y386588D01*
X153921Y389127D01*
X156460Y386588D01*
Y394206D01*
X158999Y386588D02*
X161538D01*
X160269D01*
Y394206D01*
X158999Y392936D01*
X183731Y88902D02*
X176959D01*
X183731Y95673D01*
Y97366D01*
X182038Y99058D01*
X178652D01*
X176959Y97366D01*
X193887Y88902D02*
X187116D01*
X193887Y95673D01*
Y97366D01*
X192194Y99058D01*
X188809D01*
X187116Y97366D01*
X197273Y95673D02*
Y90594D01*
X198966Y88902D01*
X204044D01*
Y95673D01*
X214201Y99058D02*
X207430D01*
Y93980D01*
X210815D01*
X207430D01*
Y88902D01*
X227330Y111759D02*
X226061Y113029D01*
X223522D01*
X222252Y111759D01*
Y106681D01*
X223522Y105411D01*
X226061D01*
X227330Y106681D01*
X234948Y105411D02*
X229870D01*
X234948Y110490D01*
Y111759D01*
X233678Y113029D01*
X231139D01*
X229870Y111759D01*
X270089Y48262D02*
X273474D01*
X271782D01*
Y58418D01*
X270089Y56726D01*
X278553Y48262D02*
Y58418D01*
Y51647D02*
X283631Y55033D01*
X278553Y51647D02*
X283631Y48262D01*
X290832Y11431D02*
Y19049D01*
X294641D01*
X295910Y17779D01*
Y15240D01*
X294641Y13970D01*
X290832D01*
X293371D02*
X295910Y11431D01*
X303528D02*
X298450D01*
X303528Y16510D01*
Y17779D01*
X302258Y19049D01*
X299719D01*
X298450Y17779D01*
X176966Y49108D02*
Y59265D01*
X182044D01*
X183737Y57572D01*
Y54186D01*
X182044Y52494D01*
X176966D01*
X187123Y59265D02*
Y49108D01*
X193894D01*
X197279Y59265D02*
Y50801D01*
X198972Y49108D01*
X202358D01*
X204051Y50801D01*
Y59265D01*
X214207Y57572D02*
X212514Y59265D01*
X209129D01*
X207436Y57572D01*
Y50801D01*
X209129Y49108D01*
X212514D01*
X214207Y50801D01*
Y54186D01*
X210822D01*
X217593Y47415D02*
X224364D01*
X227750Y49108D02*
Y59265D01*
X232828D01*
X234521Y57572D01*
Y54186D01*
X232828Y52494D01*
X227750D01*
X237906Y59265D02*
Y49108D01*
X241292Y52494D01*
X244677Y49108D01*
Y59265D01*
X248063Y49108D02*
Y59265D01*
X253141D01*
X254834Y57572D01*
Y54186D01*
X253141Y52494D01*
X248063D01*
X251448D02*
X254834Y49108D01*
X166371Y16515D02*
X173989D01*
Y21593D01*
X166371Y29210D02*
Y24132D01*
X173989D01*
Y29210D01*
X170180Y24132D02*
Y26671D01*
X166371Y31750D02*
X173989D01*
Y35558D01*
X172719Y36828D01*
X167641D01*
X166371Y35558D01*
Y31750D01*
X173989Y44446D02*
Y39367D01*
X168910Y44446D01*
X167641D01*
X166371Y43176D01*
Y40637D01*
X167641Y39367D01*
X111760Y168486D02*
Y178642D01*
X116838D01*
X118531Y176950D01*
Y173564D01*
X116838Y171871D01*
X111760D01*
X121917Y168486D02*
X125302D01*
X123610D01*
Y178642D01*
X121917D01*
X130381Y175257D02*
Y170178D01*
X132073Y168486D01*
X137152D01*
Y175257D01*
X143923Y165100D02*
X145616D01*
X147309Y166793D01*
Y175257D01*
X142230D01*
X140537Y173564D01*
Y170178D01*
X142230Y168486D01*
X147309D01*
X119380Y256537D02*
Y248073D01*
X121073Y246380D01*
X124458D01*
X126151Y248073D01*
Y256537D01*
X136308Y254844D02*
X134615Y256537D01*
X131229D01*
X129537Y254844D01*
Y253151D01*
X131229Y251458D01*
X134615D01*
X136308Y249766D01*
Y248073D01*
X134615Y246380D01*
X131229D01*
X129537Y248073D01*
X139693Y256537D02*
Y246380D01*
X144772D01*
X146465Y248073D01*
Y249766D01*
X144772Y251458D01*
X139693D01*
X144772D01*
X146465Y253151D01*
Y254844D01*
X144772Y256537D01*
X139693D01*
X110924Y298025D02*
Y289561D01*
X112617Y287868D01*
X116003D01*
X117695Y289561D01*
Y298025D01*
X127852Y296332D02*
X126159Y298025D01*
X122774D01*
X121081Y296332D01*
Y294639D01*
X122774Y292946D01*
X126159D01*
X127852Y291254D01*
Y289561D01*
X126159Y287868D01*
X122774D01*
X121081Y289561D01*
X131238Y298025D02*
Y287868D01*
X136316D01*
X138009Y289561D01*
Y291254D01*
X136316Y292946D01*
X131238D01*
X136316D01*
X138009Y294639D01*
Y296332D01*
X136316Y298025D01*
X131238D01*
X141394Y286175D02*
X148166D01*
X151551Y287868D02*
Y298025D01*
X156629D01*
X158322Y296332D01*
Y292946D01*
X156629Y291254D01*
X151551D01*
X161708Y298025D02*
Y287868D01*
X165093Y291254D01*
X168479Y287868D01*
Y298025D01*
X171865Y287868D02*
Y298025D01*
X176943D01*
X178636Y296332D01*
Y292946D01*
X176943Y291254D01*
X171865D01*
X175250D02*
X178636Y287868D01*
X25404Y306069D02*
Y298451D01*
X30482D01*
X38100Y306069D02*
X33022D01*
Y298451D01*
X38100D01*
X33022Y302260D02*
X35561D01*
X40639Y306069D02*
Y298451D01*
X44448D01*
X45718Y299721D01*
Y304799D01*
X44448Y306069D01*
X40639D01*
X48257Y298451D02*
X50796D01*
X49526D01*
Y306069D01*
X48257Y304799D01*
X358561Y404114D02*
X351790D01*
X358561Y410885D01*
Y412578D01*
X356868Y414271D01*
X353483D01*
X351790Y412578D01*
X368718Y404114D02*
X361947D01*
X368718Y410885D01*
Y412578D01*
X367025Y414271D01*
X363639D01*
X361947Y412578D01*
X372103Y400728D02*
Y410885D01*
X377182D01*
X378875Y409192D01*
Y405807D01*
X377182Y404114D01*
X372103D01*
X389031Y414271D02*
X382260D01*
Y409192D01*
X385646D01*
X382260D01*
Y404114D01*
X351156Y454659D02*
X349887Y455929D01*
X347348D01*
X346078Y454659D01*
Y449581D01*
X347348Y448311D01*
X349887D01*
X351156Y449581D01*
X353696Y448311D02*
X356235D01*
X354965D01*
Y455929D01*
X353696Y454659D01*
X360044D02*
X361313Y455929D01*
X363852D01*
X365122Y454659D01*
Y453390D01*
X363852Y452120D01*
X362583D01*
X363852D01*
X365122Y450850D01*
Y449581D01*
X363852Y448311D01*
X361313D01*
X360044Y449581D01*
X139701Y203202D02*
X138431Y201932D01*
Y199393D01*
X139701Y198123D01*
X140970D01*
X142240Y199393D01*
Y201932D01*
X143510Y203202D01*
X144779D01*
X146049Y201932D01*
Y199393D01*
X144779Y198123D01*
X138431Y205741D02*
X146049D01*
X143510Y208280D01*
X146049Y210819D01*
X138431D01*
X146049Y218437D02*
Y213358D01*
X140970Y218437D01*
X139701D01*
X138431Y217167D01*
Y214628D01*
X139701Y213358D01*
X214633Y123191D02*
Y130809D01*
X218442D01*
X219711Y129539D01*
Y127000D01*
X218442Y125730D01*
X214633D01*
X227329Y129539D02*
X226059Y130809D01*
X223520D01*
X222250Y129539D01*
Y128270D01*
X223520Y127000D01*
X226059D01*
X227329Y125730D01*
Y124461D01*
X226059Y123191D01*
X223520D01*
X222250Y124461D01*
X229868Y123191D02*
X232407D01*
X231138D01*
Y130809D01*
X229868Y129539D01*
X157482Y516889D02*
Y515619D01*
X160021Y513080D01*
X162560Y515619D01*
Y516889D01*
X160021Y513080D02*
Y509271D01*
X165099D02*
X167638D01*
X166369D01*
Y516889D01*
X165099Y515619D01*
X326391Y49530D02*
Y46991D01*
Y48261D01*
X332739D01*
X334009Y46991D01*
Y45722D01*
X332739Y44452D01*
X326391Y57148D02*
X327661Y54609D01*
X330200Y52070D01*
X332739D01*
X334009Y53339D01*
Y55878D01*
X332739Y57148D01*
X331470D01*
X330200Y55878D01*
Y52070D01*
X427992Y453389D02*
Y452119D01*
X430531Y449580D01*
X433070Y452119D01*
Y453389D01*
X430531Y449580D02*
Y445771D01*
X440688D02*
X435610D01*
X440688Y450850D01*
Y452119D01*
X439418Y453389D01*
X436879D01*
X435610Y452119D01*
X539752Y453389D02*
Y447041D01*
X541022Y445771D01*
X543561D01*
X544830Y447041D01*
Y453389D01*
X552448Y445771D02*
X547370D01*
X552448Y450850D01*
Y452119D01*
X551178Y453389D01*
X548639D01*
X547370Y452119D01*
X12952Y280413D02*
X10413D01*
X11683D01*
Y274066D01*
X10413Y272796D01*
X9144D01*
X7874Y274066D01*
X15491Y272796D02*
X18031D01*
X16761D01*
Y280413D01*
X15491Y279144D01*
X6350Y114300D02*
Y121917D01*
X10159D01*
X11428Y120648D01*
Y118109D01*
X10159Y116839D01*
X6350D01*
X13967Y114300D02*
X16507D01*
X15237D01*
Y121917D01*
X13967Y120648D01*
X70104Y542287D02*
Y535940D01*
X71374Y534670D01*
X73913D01*
X75182Y535940D01*
Y542287D01*
X77722Y534670D02*
X80261D01*
X78991D01*
Y542287D01*
X77722Y541018D01*
X64008Y609090D02*
Y601472D01*
X67817D01*
X69086Y602742D01*
Y607820D01*
X67817Y609090D01*
X64008D01*
X71625Y601472D02*
X74165D01*
X72895D01*
Y609090D01*
X71625Y607820D01*
X511048Y229870D02*
Y245105D01*
X518666D01*
X521205Y242566D01*
Y237488D01*
X518666Y234948D01*
X511048D01*
X516126D02*
X521205Y229870D01*
X533901D02*
Y245105D01*
X526283Y237488D01*
X536440D01*
D13*
X173636Y501142D02*
G03*
X173636Y501142I-916J0D01*
G01*
X425096Y479298D02*
G03*
X425096Y479298I-916J0D01*
G01*
D14*
X169188Y60706D02*
G03*
X169188Y60706I-2000J0D01*
G01*
D15*
X350520Y289560D02*
X375920D01*
Y264160D02*
Y289560D01*
X4510Y15960D02*
X94010D01*
X148510Y85090D02*
Y105960D01*
X4510D02*
X148510D01*
X4510Y15960D02*
Y105960D01*
X148510Y15960D02*
Y38862D01*
X136454Y15960D02*
X148510D01*
X469594Y581222D02*
X474980Y575836D01*
X477673Y578529D01*
X477673Y580325D01*
X474082Y583916D01*
X472287Y583916D01*
X469594Y581222D01*
X474980Y586609D02*
X478571Y590200D01*
X479469Y589302D01*
Y582120D01*
X480366Y581222D01*
X492454Y574346D02*
X497840Y568960D01*
X500533Y571653D01*
X500533Y573449D01*
X496942Y577040D01*
X495147Y577040D01*
X492454Y574346D01*
X501431Y583324D02*
X500533Y580631D01*
X500533Y577040D01*
X502329Y575244D01*
X504124D01*
X505920Y577040D01*
X505920Y578835D01*
X505022Y579733D01*
X503226Y579733D01*
X500533Y577040D01*
X504124Y584221D02*
Y586017D01*
X505920Y587812D01*
X505920Y589608D01*
X548334Y579426D02*
X553720Y574040D01*
X556413Y576733D01*
X556413Y578529D01*
X552822Y582120D01*
X551027Y582120D01*
X548334Y579426D01*
X561800Y582120D02*
X556413Y587506D01*
X556413Y582120D01*
X560004Y585711D01*
X571194Y574346D02*
X576580Y568960D01*
X579273Y571653D01*
X579273Y573449D01*
X575682Y577040D01*
X573887Y577040D01*
X571194Y574346D01*
X577478Y578835D02*
Y580631D01*
X579273Y582426D01*
X581069Y582426D01*
X581966Y581528D01*
Y579733D01*
X581069Y578835D01*
X581966Y579733D01*
X583762Y579733D01*
X584660Y578835D01*
X584660Y577040D01*
X582864Y575244D01*
X581069D01*
X582864Y584221D02*
Y586017D01*
X584660Y587812D01*
X584660Y589608D01*
X599134Y579426D02*
X604520Y574040D01*
X607213Y576733D01*
X607213Y578529D01*
X603622Y582120D01*
X601827Y582120D01*
X599134Y579426D01*
X613497Y583017D02*
X609906Y579426D01*
Y586608D01*
X609009Y587506D01*
X607213Y587506D01*
X605418Y585711D01*
Y583915D01*
X627074Y581966D02*
X632460Y576580D01*
X635153Y579273D01*
X635153Y581069D01*
X631562Y584660D01*
X629767Y584660D01*
X627074Y581966D01*
X637846D02*
X639642Y583762D01*
X638744Y582864D01*
X633358Y588251D01*
Y586455D01*
X649934Y579426D02*
X655320Y574040D01*
X658013Y576733D01*
X658013Y578529D01*
X654422Y582120D01*
X652627Y582120D01*
X649934Y579426D01*
X656218Y583915D02*
Y585711D01*
X658013Y587506D01*
X659809Y587506D01*
X663400Y583915D01*
X663400Y582120D01*
X661604Y580324D01*
X659809D01*
X656218Y583915D01*
X520394Y574346D02*
X525780Y568960D01*
X528473Y571653D01*
X528473Y573449D01*
X524882Y577040D01*
X523087Y577040D01*
X520394Y574346D01*
X529371Y583324D02*
X525780Y579733D01*
X528473Y577040D01*
X529371Y579733D01*
X530269Y580631D01*
X532064D01*
X533860Y578835D01*
X533860Y577040D01*
X532064Y575244D01*
X530269D01*
X532064Y584221D02*
Y586017D01*
X533860Y587812D01*
X533860Y589608D01*
X433780Y580547D02*
X439166Y575161D01*
X441859Y577854D01*
X441859Y579650D01*
X438268Y583240D01*
X436473Y583241D01*
X433780Y580547D01*
X440064Y585036D02*
Y586831D01*
X441859Y588627D01*
X443655Y588627D01*
X444552Y587729D01*
Y585934D01*
X446348Y585934D01*
X447246Y585036D01*
X447246Y583241D01*
X445450Y581445D01*
X443655D01*
X442757Y582343D01*
Y584138D01*
X440961Y584138D01*
X440064Y585036D01*
X442757Y584138D02*
X444552Y585934D01*
X402538Y574263D02*
X407924Y568877D01*
X410617Y571570D01*
X410617Y573365D01*
X407026Y576956D01*
X405231Y576956D01*
X402538Y574263D01*
X412413Y575161D02*
X414208D01*
X416004Y576956D01*
X416004Y578752D01*
X412413Y582343D01*
X410617Y582343D01*
X408822Y580547D01*
Y578752D01*
X409720Y577854D01*
X411515Y577854D01*
X414208Y580547D01*
Y584138D02*
Y585934D01*
X416004Y587729D01*
X416004Y589525D01*
X374852Y569774D02*
X380238Y564388D01*
X382931Y567081D01*
X382931Y568877D01*
X379340Y572468D01*
X377545Y572468D01*
X374852Y569774D01*
X385624D02*
X387420Y571570D01*
X386522Y570672D01*
X381136Y576059D01*
Y574263D01*
X385624Y578752D02*
Y580547D01*
X387420Y582343D01*
X389215D01*
X392806Y578752D01*
X392806Y576956D01*
X391011Y575161D01*
X389215D01*
X385624Y578752D01*
X391011Y584138D02*
Y585934D01*
X392806Y587729D01*
X392806Y589525D01*
X349198Y570672D02*
X354584Y565286D01*
X357277Y567979D01*
X357277Y569774D01*
X353686Y573365D01*
X351891Y573365D01*
X349198Y570672D01*
X359970D02*
X361766Y572468D01*
X360868Y571570D01*
X355482Y576956D01*
Y575161D01*
X364459D02*
X366255Y576956D01*
X365357Y576059D01*
X359970Y581445D01*
Y579650D01*
X364459Y584138D02*
Y585934D01*
X366255Y587729D01*
X366255Y589525D01*
X325576Y576059D02*
X330962Y570672D01*
X333655Y573365D01*
X333655Y575161D01*
X330064Y578752D01*
X328269Y578752D01*
X325576Y576059D01*
X336348D02*
X338144Y577854D01*
X337246Y576956D01*
X331860Y582343D01*
Y580547D01*
X344428Y584138D02*
X340837Y580547D01*
Y587729D01*
X339939Y588627D01*
X338144D01*
X336348Y586831D01*
Y585036D01*
X302462Y576059D02*
X307848Y570672D01*
X310541Y573365D01*
X310541Y575161D01*
X306950Y578752D01*
X305155Y578752D01*
X302462Y576059D01*
X313234D02*
X315030Y577854D01*
X314132Y576956D01*
X308746Y582343D01*
Y580547D01*
X313234Y585036D02*
Y586831D01*
X315030Y588627D01*
X316825D01*
X317723Y587729D01*
Y585934D01*
X316825Y585036D01*
X317723Y585934D01*
X319519Y585934D01*
X320416Y585036D01*
X320416Y583241D01*
X318621Y581445D01*
X316825D01*
X280026Y577854D02*
X278231Y577854D01*
X276435Y576059D01*
Y574263D01*
X280026Y570672D01*
X281822D01*
X283617Y572468D01*
X283617Y574263D01*
X281822Y576059D01*
X280026Y574263D01*
X286310Y575161D02*
X280924Y580547D01*
X289901Y578752D01*
X284515Y584138D01*
X286310Y585934D02*
X291697Y580547D01*
X294390Y583241D01*
X294390Y585036D01*
X290799Y588627D01*
X289004D01*
X286310Y585934D01*
X248666Y564388D02*
X245075Y567979D01*
Y571570D01*
X248666D01*
X252257Y567979D01*
X249564Y570672D01*
X245973Y567081D01*
X254052Y569774D02*
X248666Y575161D01*
X251359Y577854D01*
X253155Y577854D01*
X254950Y576059D01*
Y574263D01*
X252257Y571570D01*
X254052Y573365D02*
X257643Y573365D01*
Y584138D02*
X254052Y580547D01*
X259439Y575161D01*
X263030Y578752D01*
X256746Y577854D02*
X258541Y579650D01*
X263030Y589525D02*
X259439Y585934D01*
X262132Y583240D01*
X263927Y585036D01*
X262132Y583240D01*
X264825Y580547D01*
X228464Y577854D02*
X226669Y577854D01*
X224873Y576059D01*
Y574263D01*
X225771Y573365D01*
X227567Y573365D01*
X229362Y575161D01*
X231157Y575161D01*
X232055Y574263D01*
X232055Y572468D01*
X230260Y570672D01*
X228464D01*
X229362Y580547D02*
X234748Y575161D01*
X237442Y577854D01*
X237442Y579650D01*
X233851Y583240D01*
X232055Y583241D01*
X229362Y580547D01*
X240135D02*
X236544Y584138D01*
Y587729D01*
X240135D01*
X243726Y584138D01*
X241033Y586831D01*
X237442Y583241D01*
X205096Y577854D02*
X203301Y577854D01*
X201505Y576059D01*
Y574263D01*
X202403Y573365D01*
X204198Y573365D01*
X205994Y575161D01*
X207789Y575161D01*
X208687Y574263D01*
X208687Y572468D01*
X206892Y570672D01*
X205096D01*
X210483Y583240D02*
X208687Y583241D01*
X206892Y581445D01*
Y579650D01*
X210483Y576059D01*
X212278D01*
X214074Y577854D01*
X214074Y579650D01*
X211380Y585934D02*
X216767Y580547D01*
X220358Y584138D01*
D16*
X195034Y379786D02*
X220345D01*
X195034Y319984D02*
Y379786D01*
Y319984D02*
X220345D01*
Y379786D01*
X142329Y377881D02*
X167640D01*
X142329Y318079D02*
Y377881D01*
Y318079D02*
X167640D01*
Y377881D01*
D17*
X122771Y424038D02*
Y525938D01*
X95085D02*
X122771D01*
X95085Y424038D02*
Y525938D01*
Y424038D02*
X122771D01*
D18*
X71120Y592836D02*
X86120D01*
X71360Y560324D02*
X86360D01*
M02*
