M48
;Layer_Color=9474304
;FILE_FORMAT=2:5
INCH,LZ
;TYPE=PLATED
T01F00S00C0.01300
T02F00S00C0.02800
T03F00S00C0.03150
T06F00S00C0.04016
T07F00S00C0.04331
%
T01
X0088Y0036
X0082Y0056
X0131Y0037
X0116Y0011
X0178Y0039
X0202Y0023
X0228Y0137
X0284Y0166
X0283Y0188
X02Y0182
X0187Y018
X0181Y0205
X0171Y0207
X0193Y0206
X0152Y0194
X0162Y017175
X0134Y017
X009Y0176
X0097Y0187
X009Y0199
X0065Y0208
X0061Y0165
X0114Y0102
X0116Y0084
X0166Y0095
X0192Y0096
X0197Y0106
X0183494Y0106506
X02Y013
X0047Y0131
X0017Y015
X004Y0217
X0064
T02
X0216Y0119
X0233Y0131
X0256Y009
X0267Y0091
X0174Y0123
Y0134
X0157Y0132
Y0147293
X0138Y0143
X0129914Y0144914
X0127364Y0131636
X0121Y0135
X0096Y013825
Y014725
X008Y016
Y0168
X0147Y0068
X0146Y0058
X0094Y0253
X0084Y0251028
T03
X0035386Y0083772
Y0090071
X0040125Y0093221
Y0086922
Y0080623
T06
X0061Y0132
Y0142
X008175Y014275
Y013275
T07
X014Y002
X015
X016
X017
X018
X019
X021
Y005
X019
X018
X017
X016
X015
X014
X022
X023
X024
X025
X026
Y002
X025
X024
X023
X022
X0163Y0109
Y0119
X0153
Y0109
X0143
Y0119
X0066Y0093
Y0083
Y0073
X0084Y024
X0094
X0104
X0114
X0124
X0134
X0144
X0154
X0164
X0174
X019
X02
X021
Y027
X02
X019
X0174
X0164
X0154
X0144
X0134
X0124
X0114
X0104
X0094
X0084
X022
X023
X024
X025
X026
Y024
X025
X024
X023
X022
M30
