G04*
G04 #@! TF.GenerationSoftware,Altium Limited,Altium Designer,23.9.2 (47)*
G04*
G04 Layer_Color=16711935*
%FSLAX44Y44*%
%MOMM*%
G71*
G04*
G04 #@! TF.SameCoordinates,6B7264D5-F0A4-4F38-8353-537565517FE9*
G04*
G04*
G04 #@! TF.FilePolarity,Negative*
G04*
G01*
G75*
%ADD29C,0.0000*%
%ADD40C,1.9812*%
%ADD41C,1.7272*%
%ADD42C,1.8232*%
%ADD43C,1.8532*%
%ADD44O,2.6032X1.4032*%
%ADD45C,1.4032*%
%ADD46O,2.2032X4.0032*%
%ADD47O,3.5032X2.0032*%
%ADD48C,0.8382*%
%ADD49C,1.4732*%
D29*
X216256Y337185D02*
G03*
X216256Y337185I-8611J0D01*
G01*
Y362585D02*
G03*
X216256Y362585I-8611J0D01*
G01*
X163551Y335280D02*
G03*
X163551Y335280I-8611J0D01*
G01*
Y360680D02*
G03*
X163551Y360680I-8611J0D01*
G01*
D40*
X414020Y302260D02*
D03*
Y276860D02*
D03*
X388620Y302260D02*
D03*
Y276860D02*
D03*
X363220Y302260D02*
D03*
Y276860D02*
D03*
D41*
X558800Y127000D02*
D03*
X533400D02*
D03*
X584200D02*
D03*
X609600D02*
D03*
X635000D02*
D03*
X660400D02*
D03*
Y609600D02*
D03*
X635000D02*
D03*
X609600D02*
D03*
X584200D02*
D03*
X558800D02*
D03*
X533400D02*
D03*
X508000D02*
D03*
X482600D02*
D03*
Y685800D02*
D03*
X508000D02*
D03*
X533400D02*
D03*
X558800D02*
D03*
X584200D02*
D03*
X609600D02*
D03*
X635000D02*
D03*
X660400D02*
D03*
X213360D02*
D03*
X238760D02*
D03*
X264160D02*
D03*
X289560D02*
D03*
X314960D02*
D03*
X340360D02*
D03*
X365760D02*
D03*
X391160D02*
D03*
X416560D02*
D03*
X441960D02*
D03*
X213360Y609600D02*
D03*
X238760D02*
D03*
X264160D02*
D03*
X289560D02*
D03*
X314960D02*
D03*
X340360D02*
D03*
X365760D02*
D03*
X391160D02*
D03*
X416560D02*
D03*
X441960D02*
D03*
X457200Y127000D02*
D03*
X482600D02*
D03*
X431800D02*
D03*
X406400D02*
D03*
X381000D02*
D03*
X355600D02*
D03*
X558800Y50800D02*
D03*
X533400D02*
D03*
X584200D02*
D03*
X609600D02*
D03*
X635000D02*
D03*
X660400D02*
D03*
X381000D02*
D03*
X355600D02*
D03*
X406400D02*
D03*
X431800D02*
D03*
X457200D02*
D03*
X482600D02*
D03*
D42*
X207645Y337185D02*
D03*
Y362585D02*
D03*
X154940Y335280D02*
D03*
Y360680D02*
D03*
D43*
X167640Y185420D02*
D03*
Y210820D02*
D03*
Y236220D02*
D03*
D44*
X45402Y183780D02*
D03*
X92901D02*
D03*
Y258180D02*
D03*
X45402D02*
D03*
D45*
X101918Y236780D02*
D03*
X89881Y228782D02*
D03*
Y212782D02*
D03*
X101918Y220781D02*
D03*
Y204781D02*
D03*
D46*
X141280Y60960D02*
D03*
X81280D02*
D03*
D47*
X116280Y14460D02*
D03*
D48*
X421640Y241300D02*
D03*
X487680Y243840D02*
D03*
X513080Y58420D02*
D03*
X332740Y93980D02*
D03*
X452120Y99060D02*
D03*
X340360Y431800D02*
D03*
X434340Y525780D02*
D03*
X294640Y213360D02*
D03*
X466076Y270524D02*
D03*
X718820Y477520D02*
D03*
X721360Y421640D02*
D03*
X411480Y436245D02*
D03*
X246380Y474980D02*
D03*
X508000Y330200D02*
D03*
X579120Y347980D02*
D03*
X474980Y457200D02*
D03*
X43180Y381000D02*
D03*
X101600Y551180D02*
D03*
X154940Y419100D02*
D03*
X508000Y462280D02*
D03*
X228600Y447040D02*
D03*
X208280Y142240D02*
D03*
X289560Y259080D02*
D03*
X119380Y332740D02*
D03*
X162560Y551180D02*
D03*
X165100Y528320D02*
D03*
X228600Y505460D02*
D03*
X386080Y492760D02*
D03*
X459740Y520700D02*
D03*
X490220Y523240D02*
D03*
X500380Y269240D02*
D03*
X223520Y91440D02*
D03*
X294640Y27940D02*
D03*
D49*
X373380Y172720D02*
D03*
X370840Y147320D02*
D03*
X307340Y342900D02*
D03*
X323504Y334356D02*
D03*
X329982Y368082D02*
D03*
X398780Y335280D02*
D03*
Y374124D02*
D03*
X441960Y340360D02*
D03*
X350520Y363220D02*
D03*
X441960Y312420D02*
D03*
X238760Y642620D02*
D03*
X213360Y637610D02*
D03*
X678180Y231140D02*
D03*
X650240Y228600D02*
D03*
X591820Y332740D02*
D03*
X548640Y302260D02*
D03*
X243840Y351155D02*
D03*
Y374015D02*
D03*
X203200Y406400D02*
D03*
Y426720D02*
D03*
M02*
