G04*
G04 #@! TF.GenerationSoftware,Altium Limited,Altium Designer,23.9.2 (47)*
G04*
G04 Layer_Color=32896*
%FSLAX44Y44*%
%MOMM*%
G71*
G04*
G04 #@! TF.SameCoordinates,6B7264D5-F0A4-4F38-8353-537565517FE9*
G04*
G04*
G04 #@! TF.FilePolarity,Positive*
G04*
G01*
G75*
%ADD10C,0.1524*%
%ADD29C,0.0000*%
D10*
X239776Y250190D02*
Y267970D01*
X273812Y250190D02*
Y267970D01*
X266192D02*
X273812D01*
X266192Y250190D02*
X273812D01*
X266192D02*
Y267970D01*
X239776Y250190D02*
X247396D01*
X239776Y267970D02*
X247396D01*
Y250190D02*
Y267970D01*
X239776Y250190D02*
Y267970D01*
X273812Y250190D02*
Y267970D01*
X266192D02*
X273812D01*
X266192Y250190D02*
X273812D01*
X266192D02*
Y267970D01*
X239776Y250190D02*
X247396D01*
X239776Y267970D02*
X247396D01*
Y250190D02*
Y267970D01*
X504190Y79502D02*
X521970D01*
X504190Y71882D02*
Y79502D01*
X521970Y71882D02*
Y79502D01*
X504190Y98298D02*
X521970D01*
Y105918D01*
X504190Y98298D02*
Y105918D01*
X521970Y79502D02*
Y98298D01*
X504190Y105918D02*
X521970D01*
X504190Y79502D02*
Y98298D01*
Y71882D02*
X521970D01*
X504190Y79502D02*
X521970D01*
X504190Y71882D02*
Y79502D01*
X521970Y71882D02*
Y79502D01*
X504190Y98298D02*
X521970D01*
Y105918D01*
X504190Y98298D02*
Y105918D01*
X521970Y79502D02*
Y98298D01*
X504190Y105918D02*
X521970D01*
X504190Y79502D02*
Y98298D01*
Y71882D02*
X521970D01*
X491490Y290322D02*
X509270D01*
X491490Y282702D02*
Y290322D01*
X509270Y282702D02*
Y290322D01*
X491490Y309118D02*
X509270D01*
Y316738D01*
X491490Y309118D02*
Y316738D01*
X509270Y290322D02*
Y309118D01*
X491490Y316738D02*
X509270D01*
X491490Y290322D02*
Y309118D01*
Y282702D02*
X509270D01*
X491490Y290322D02*
X509270D01*
X491490Y282702D02*
Y290322D01*
X509270Y282702D02*
Y290322D01*
X491490Y309118D02*
X509270D01*
Y316738D01*
X491490Y309118D02*
Y316738D01*
X509270Y290322D02*
Y309118D01*
X491490Y316738D02*
X509270D01*
X491490Y290322D02*
Y309118D01*
Y282702D02*
X509270D01*
X455930Y311658D02*
X473710D01*
Y319278D01*
X455930Y311658D02*
Y319278D01*
Y292862D02*
X473710D01*
X455930Y285242D02*
Y292862D01*
X473710Y285242D02*
Y292862D01*
X455930D02*
Y311658D01*
Y285242D02*
X473710D01*
Y292862D02*
Y311658D01*
X455930Y319278D02*
X473710D01*
X455930Y311658D02*
X473710D01*
Y319278D01*
X455930Y311658D02*
Y319278D01*
Y292862D02*
X473710D01*
X455930Y285242D02*
Y292862D01*
X473710Y285242D02*
Y292862D01*
X455930D02*
Y311658D01*
Y285242D02*
X473710D01*
Y292862D02*
Y311658D01*
X455930Y319278D02*
X473710D01*
X361442Y209550D02*
Y227330D01*
X353822D02*
X361442D01*
X353822Y209550D02*
X361442D01*
X380238D02*
Y227330D01*
Y209550D02*
X387858D01*
X380238Y227330D02*
X387858D01*
X361442Y209550D02*
X380238D01*
X387858D02*
Y227330D01*
X361442D02*
X380238D01*
X353822Y209550D02*
Y227330D01*
X361442Y209550D02*
Y227330D01*
X353822D02*
X361442D01*
X353822Y209550D02*
X361442D01*
X380238D02*
Y227330D01*
Y209550D02*
X387858D01*
X380238Y227330D02*
X387858D01*
X361442Y209550D02*
X380238D01*
X387858D02*
Y227330D01*
X361442D02*
X380238D01*
X353822Y209550D02*
Y227330D01*
X409702Y87630D02*
Y105410D01*
X402082D02*
X409702D01*
X402082Y87630D02*
X409702D01*
X428498D02*
Y105410D01*
Y87630D02*
X436118D01*
X428498Y105410D02*
X436118D01*
X409702Y87630D02*
X428498D01*
X436118D02*
Y105410D01*
X409702D02*
X428498D01*
X402082Y87630D02*
Y105410D01*
X409702Y87630D02*
Y105410D01*
X402082D02*
X409702D01*
X402082Y87630D02*
X409702D01*
X428498D02*
Y105410D01*
Y87630D02*
X436118D01*
X428498Y105410D02*
X436118D01*
X409702Y87630D02*
X428498D01*
X436118D02*
Y105410D01*
X409702D02*
X428498D01*
X402082Y87630D02*
Y105410D01*
X375158Y85090D02*
Y102870D01*
Y85090D02*
X382778D01*
X375158Y102870D02*
X382778D01*
X356362Y85090D02*
Y102870D01*
X348742D02*
X356362D01*
X348742Y85090D02*
X356362D01*
Y102870D02*
X375158D01*
X348742Y85090D02*
Y102870D01*
X356362Y85090D02*
X375158D01*
X382778D02*
Y102870D01*
X375158Y85090D02*
Y102870D01*
Y85090D02*
X382778D01*
X375158Y102870D02*
X382778D01*
X356362Y85090D02*
Y102870D01*
X348742D02*
X356362D01*
X348742Y85090D02*
X356362D01*
Y102870D02*
X375158D01*
X348742Y85090D02*
Y102870D01*
X356362Y85090D02*
X375158D01*
X382778D02*
Y102870D01*
X567182Y87630D02*
Y105410D01*
X601218Y87630D02*
Y105410D01*
X593598D02*
X601218D01*
X593598Y87630D02*
X601218D01*
X593598D02*
Y105410D01*
X567182Y87630D02*
X574802D01*
X567182Y105410D02*
X574802D01*
Y87630D02*
Y105410D01*
X567182Y87630D02*
Y105410D01*
X601218Y87630D02*
Y105410D01*
X593598D02*
X601218D01*
X593598Y87630D02*
X601218D01*
X593598D02*
Y105410D01*
X567182Y87630D02*
X574802D01*
X567182Y105410D02*
X574802D01*
Y87630D02*
Y105410D01*
X623062Y74930D02*
Y92710D01*
X657098Y74930D02*
Y92710D01*
X649478D02*
X657098D01*
X649478Y74930D02*
X657098D01*
X649478D02*
Y92710D01*
X623062Y74930D02*
X630682D01*
X623062Y92710D02*
X630682D01*
Y74930D02*
Y92710D01*
X623062Y74930D02*
Y92710D01*
X657098Y74930D02*
Y92710D01*
X649478D02*
X657098D01*
X649478Y74930D02*
X657098D01*
X649478D02*
Y92710D01*
X623062Y74930D02*
X630682D01*
X623062Y92710D02*
X630682D01*
Y74930D02*
Y92710D01*
X562610Y390398D02*
X580390D01*
Y398018D01*
X562610Y390398D02*
Y398018D01*
Y371602D02*
X580390D01*
X562610Y363982D02*
Y371602D01*
X580390Y363982D02*
Y371602D01*
X562610D02*
Y390398D01*
Y363982D02*
X580390D01*
Y371602D02*
Y390398D01*
X562610Y398018D02*
X580390D01*
X562610Y390398D02*
X580390D01*
Y398018D01*
X562610Y390398D02*
Y398018D01*
Y371602D02*
X580390D01*
X562610Y363982D02*
Y371602D01*
X580390Y363982D02*
Y371602D01*
X562610D02*
Y390398D01*
Y363982D02*
X580390D01*
Y371602D02*
Y390398D01*
X562610Y398018D02*
X580390D01*
X666242Y412750D02*
Y430530D01*
X700278Y412750D02*
Y430530D01*
X692658D02*
X700278D01*
X692658Y412750D02*
X700278D01*
X692658D02*
Y430530D01*
X666242Y412750D02*
X673862D01*
X666242Y430530D02*
X673862D01*
Y412750D02*
Y430530D01*
X666242Y412750D02*
Y430530D01*
X700278Y412750D02*
Y430530D01*
X692658D02*
X700278D01*
X692658Y412750D02*
X700278D01*
X692658D02*
Y430530D01*
X666242Y412750D02*
X673862D01*
X666242Y430530D02*
X673862D01*
Y412750D02*
Y430530D01*
X669036Y468630D02*
Y486410D01*
X703072Y468630D02*
Y486410D01*
X695452D02*
X703072D01*
X695452Y468630D02*
X703072D01*
X695452D02*
Y486410D01*
X669036Y468630D02*
X676656D01*
X669036Y486410D02*
X676656D01*
Y468630D02*
Y486410D01*
X669036Y468630D02*
Y486410D01*
X703072Y468630D02*
Y486410D01*
X695452D02*
X703072D01*
X695452Y468630D02*
X703072D01*
X695452D02*
Y486410D01*
X669036Y468630D02*
X676656D01*
X669036Y486410D02*
X676656D01*
Y468630D02*
Y486410D01*
X605282Y412750D02*
Y430530D01*
X612902D02*
X631698D01*
X639318Y412750D02*
Y430530D01*
X612902Y412750D02*
X631698D01*
Y430530D02*
X639318D01*
X631698Y412750D02*
X639318D01*
X631698D02*
Y430530D01*
X605282Y412750D02*
X612902D01*
X605282Y430530D02*
X612902D01*
Y412750D02*
Y430530D01*
X605282Y412750D02*
Y430530D01*
X612902D02*
X631698D01*
X639318Y412750D02*
Y430530D01*
X612902Y412750D02*
X631698D01*
Y430530D02*
X639318D01*
X631698Y412750D02*
X639318D01*
X631698D02*
Y430530D01*
X605282Y412750D02*
X612902D01*
X605282Y430530D02*
X612902D01*
Y412750D02*
Y430530D01*
X605282Y468630D02*
Y486410D01*
X612902D02*
X631698D01*
X639318Y468630D02*
Y486410D01*
X612902Y468630D02*
X631698D01*
Y486410D02*
X639318D01*
X631698Y468630D02*
X639318D01*
X631698D02*
Y486410D01*
X605282Y468630D02*
X612902D01*
X605282Y486410D02*
X612902D01*
Y468630D02*
Y486410D01*
X605282Y468630D02*
Y486410D01*
X612902D02*
X631698D01*
X639318Y468630D02*
Y486410D01*
X612902Y468630D02*
X631698D01*
Y486410D02*
X639318D01*
X631698Y468630D02*
X639318D01*
X631698D02*
Y486410D01*
X605282Y468630D02*
X612902D01*
X605282Y486410D02*
X612902D01*
Y468630D02*
Y486410D01*
X481330Y475488D02*
X499110D01*
X481330Y467868D02*
Y475488D01*
X499110Y467868D02*
Y475488D01*
X481330Y494284D02*
X499110D01*
Y501904D01*
X481330Y494284D02*
Y501904D01*
X499110Y475488D02*
Y494284D01*
X481330Y501904D02*
X499110D01*
X481330Y475488D02*
Y494284D01*
Y467868D02*
X499110D01*
X481330Y475488D02*
X499110D01*
X481330Y467868D02*
Y475488D01*
X499110Y467868D02*
Y475488D01*
X481330Y494284D02*
X499110D01*
Y501904D01*
X481330Y494284D02*
Y501904D01*
X499110Y475488D02*
Y494284D01*
X481330Y501904D02*
X499110D01*
X481330Y475488D02*
Y494284D01*
Y467868D02*
X499110D01*
X448310Y475742D02*
X466090D01*
X448310Y468122D02*
Y475742D01*
X466090Y468122D02*
Y475742D01*
X448310Y494538D02*
X466090D01*
Y502158D01*
X448310Y494538D02*
Y502158D01*
X466090Y475742D02*
Y494538D01*
X448310Y502158D02*
X466090D01*
X448310Y475742D02*
Y494538D01*
Y468122D02*
X466090D01*
X448310Y475742D02*
X466090D01*
X448310Y468122D02*
Y475742D01*
X466090Y468122D02*
Y475742D01*
X448310Y494538D02*
X466090D01*
Y502158D01*
X448310Y494538D02*
Y502158D01*
X466090Y475742D02*
Y494538D01*
X448310Y502158D02*
X466090D01*
X448310Y475742D02*
Y494538D01*
Y468122D02*
X466090D01*
X405130Y501396D02*
X422910D01*
X405130Y493776D02*
Y501396D01*
X422910Y493776D02*
Y501396D01*
X405130Y520192D02*
X422910D01*
Y527812D01*
X405130Y520192D02*
Y527812D01*
X422910Y501396D02*
Y520192D01*
X405130Y527812D02*
X422910D01*
X405130Y501396D02*
Y520192D01*
Y493776D02*
X422910D01*
X405130Y501396D02*
X422910D01*
X405130Y493776D02*
Y501396D01*
X422910Y493776D02*
Y501396D01*
X405130Y520192D02*
X422910D01*
Y527812D01*
X405130Y520192D02*
Y527812D01*
X422910Y501396D02*
Y520192D01*
X405130Y527812D02*
X422910D01*
X405130Y501396D02*
Y520192D01*
Y493776D02*
X422910D01*
X344170Y507238D02*
X361950D01*
X344170Y473202D02*
X361950D01*
Y480822D01*
X344170Y473202D02*
Y480822D01*
X361950D01*
X344170Y499618D02*
Y507238D01*
X361950Y499618D02*
Y507238D01*
X344170Y499618D02*
X361950D01*
X344170Y507238D02*
X361950D01*
X344170Y473202D02*
X361950D01*
Y480822D01*
X344170Y473202D02*
Y480822D01*
X361950D01*
X344170Y499618D02*
Y507238D01*
X361950Y499618D02*
Y507238D01*
X344170Y499618D02*
X361950D01*
X207518Y438150D02*
Y455930D01*
Y438150D02*
X215138D01*
X207518Y455930D02*
X215138D01*
X188722Y438150D02*
Y455930D01*
X181102D02*
X188722D01*
X181102Y438150D02*
X188722D01*
Y455930D02*
X207518D01*
X181102Y438150D02*
Y455930D01*
X188722Y438150D02*
X207518D01*
X215138D02*
Y455930D01*
X207518Y438150D02*
Y455930D01*
Y438150D02*
X215138D01*
X207518Y455930D02*
X215138D01*
X188722Y438150D02*
Y455930D01*
X181102D02*
X188722D01*
X181102Y438150D02*
X188722D01*
Y455930D02*
X207518D01*
X181102Y438150D02*
Y455930D01*
X188722Y438150D02*
X207518D01*
X215138D02*
Y455930D01*
X222504Y471170D02*
Y488950D01*
Y471170D02*
X230124D01*
X222504Y488950D02*
X230124D01*
X203708Y471170D02*
Y488950D01*
X196088D02*
X203708D01*
X196088Y471170D02*
X203708D01*
Y488950D02*
X222504D01*
X196088Y471170D02*
Y488950D01*
X203708Y471170D02*
X222504D01*
X230124D02*
Y488950D01*
X222504Y471170D02*
Y488950D01*
Y471170D02*
X230124D01*
X222504Y488950D02*
X230124D01*
X203708Y471170D02*
Y488950D01*
X196088D02*
X203708D01*
X196088Y471170D02*
X203708D01*
Y488950D02*
X222504D01*
X196088Y471170D02*
Y488950D01*
X203708Y471170D02*
X222504D01*
X230124D02*
Y488950D01*
X242570Y490982D02*
X260350D01*
X242570Y525018D02*
X260350D01*
X242570Y517398D02*
Y525018D01*
X260350Y517398D02*
Y525018D01*
X242570Y517398D02*
X260350D01*
Y490982D02*
Y498602D01*
X242570Y490982D02*
Y498602D01*
X260350D01*
X242570Y490982D02*
X260350D01*
X242570Y525018D02*
X260350D01*
X242570Y517398D02*
Y525018D01*
X260350Y517398D02*
Y525018D01*
X242570Y517398D02*
X260350D01*
Y490982D02*
Y498602D01*
X242570Y490982D02*
Y498602D01*
X260350D01*
X186182Y544830D02*
Y562610D01*
X178562D02*
X186182D01*
X178562Y544830D02*
X186182D01*
X204978D02*
Y562610D01*
Y544830D02*
X212598D01*
X204978Y562610D02*
X212598D01*
X186182Y544830D02*
X204978D01*
X212598D02*
Y562610D01*
X186182D02*
X204978D01*
X178562Y544830D02*
Y562610D01*
X186182Y544830D02*
Y562610D01*
X178562D02*
X186182D01*
X178562Y544830D02*
X186182D01*
X204978D02*
Y562610D01*
Y544830D02*
X212598D01*
X204978Y562610D02*
X212598D01*
X186182Y544830D02*
X204978D01*
X212598D02*
Y562610D01*
X186182D02*
X204978D01*
X178562Y544830D02*
Y562610D01*
X36830Y423418D02*
X54610D01*
Y431038D01*
X36830Y423418D02*
Y431038D01*
Y404622D02*
X54610D01*
X36830Y397002D02*
Y404622D01*
X54610Y397002D02*
Y404622D01*
X36830D02*
Y423418D01*
Y397002D02*
X54610D01*
Y404622D02*
Y423418D01*
X36830Y431038D02*
X54610D01*
X36830Y423418D02*
X54610D01*
Y431038D01*
X36830Y423418D02*
Y431038D01*
Y404622D02*
X54610D01*
X36830Y397002D02*
Y404622D01*
X54610Y397002D02*
Y404622D01*
X36830D02*
Y423418D01*
Y397002D02*
X54610D01*
Y404622D02*
Y423418D01*
X36830Y431038D02*
X54610D01*
X199390Y165862D02*
X217170D01*
X199390Y158242D02*
Y165862D01*
X217170Y158242D02*
Y165862D01*
X199390Y184658D02*
X217170D01*
Y192278D01*
X199390Y184658D02*
Y192278D01*
X217170Y165862D02*
Y184658D01*
X199390Y192278D02*
X217170D01*
X199390Y165862D02*
Y184658D01*
Y158242D02*
X217170D01*
X199390Y165862D02*
X217170D01*
X199390Y158242D02*
Y165862D01*
X217170Y158242D02*
Y165862D01*
X199390Y184658D02*
X217170D01*
Y192278D01*
X199390Y184658D02*
Y192278D01*
X217170Y165862D02*
Y184658D01*
X199390Y192278D02*
X217170D01*
X199390Y165862D02*
Y184658D01*
Y158242D02*
X217170D01*
X201930Y226822D02*
X219710D01*
X201930Y234442D02*
Y253238D01*
Y260858D02*
X219710D01*
Y234442D02*
Y253238D01*
X201930D02*
Y260858D01*
X219710Y253238D02*
Y260858D01*
X201930Y253238D02*
X219710D01*
Y226822D02*
Y234442D01*
X201930Y226822D02*
Y234442D01*
X219710D01*
X201930Y226822D02*
X219710D01*
X201930Y234442D02*
Y253238D01*
Y260858D02*
X219710D01*
Y234442D02*
Y253238D01*
X201930D02*
Y260858D01*
X219710Y253238D02*
Y260858D01*
X201930Y253238D02*
X219710D01*
Y226822D02*
Y234442D01*
X201930Y226822D02*
Y234442D01*
X219710D01*
X69088Y323850D02*
Y341630D01*
X103124Y323850D02*
Y341630D01*
X95504D02*
X103124D01*
X95504Y323850D02*
X103124D01*
X95504D02*
Y341630D01*
X69088Y323850D02*
X76708D01*
X69088Y341630D02*
X76708D01*
Y323850D02*
Y341630D01*
X69088Y323850D02*
Y341630D01*
X103124Y323850D02*
Y341630D01*
X95504D02*
X103124D01*
X95504Y323850D02*
X103124D01*
X95504D02*
Y341630D01*
X69088Y323850D02*
X76708D01*
X69088Y341630D02*
X76708D01*
Y323850D02*
Y341630D01*
X247142Y82550D02*
Y100330D01*
X239522D02*
X247142D01*
X239522Y82550D02*
X247142D01*
X265938D02*
Y100330D01*
Y82550D02*
X273558D01*
X265938Y100330D02*
X273558D01*
X247142Y82550D02*
X265938D01*
X273558D02*
Y100330D01*
X247142D02*
X265938D01*
X239522Y82550D02*
Y100330D01*
X247142Y82550D02*
Y100330D01*
X239522D02*
X247142D01*
X239522Y82550D02*
X247142D01*
X265938D02*
Y100330D01*
Y82550D02*
X273558D01*
X265938Y100330D02*
X273558D01*
X247142Y82550D02*
X265938D01*
X273558D02*
Y100330D01*
X247142D02*
X265938D01*
X239522Y82550D02*
Y100330D01*
X244348Y19050D02*
Y36830D01*
X278384Y19050D02*
Y36830D01*
X270764D02*
X278384D01*
X270764Y19050D02*
X278384D01*
X270764D02*
Y36830D01*
X244348Y19050D02*
X251968D01*
X244348Y36830D02*
X251968D01*
Y19050D02*
Y36830D01*
X244348Y19050D02*
Y36830D01*
X278384Y19050D02*
Y36830D01*
X270764D02*
X278384D01*
X270764Y19050D02*
X278384D01*
X270764D02*
Y36830D01*
X244348Y19050D02*
X251968D01*
X244348Y36830D02*
X251968D01*
Y19050D02*
Y36830D01*
X183642Y19050D02*
Y36830D01*
X191262D02*
X210058D01*
X217678Y19050D02*
Y36830D01*
X191262Y19050D02*
X210058D01*
Y36830D02*
X217678D01*
X210058Y19050D02*
X217678D01*
X210058D02*
Y36830D01*
X183642Y19050D02*
X191262D01*
X183642Y36830D02*
X191262D01*
Y19050D02*
Y36830D01*
X183642Y19050D02*
Y36830D01*
X191262D02*
X210058D01*
X217678Y19050D02*
Y36830D01*
X191262Y19050D02*
X210058D01*
Y36830D02*
X217678D01*
X210058Y19050D02*
X217678D01*
X210058D02*
Y36830D01*
X183642Y19050D02*
X191262D01*
X183642Y36830D02*
X191262D01*
Y19050D02*
Y36830D01*
X100584Y288290D02*
Y306070D01*
X74168Y288290D02*
X92964D01*
X66548D02*
Y306070D01*
X74168D02*
X92964D01*
X66548Y288290D02*
X74168D01*
X66548Y306070D02*
X74168D01*
Y288290D02*
Y306070D01*
X92964D02*
X100584D01*
X92964Y288290D02*
X100584D01*
X92964D02*
Y306070D01*
X100584Y288290D02*
Y306070D01*
X74168Y288290D02*
X92964D01*
X66548D02*
Y306070D01*
X74168D02*
X92964D01*
X66548Y288290D02*
X74168D01*
X66548Y306070D02*
X74168D01*
Y288290D02*
Y306070D01*
X92964D02*
X100584D01*
X92964Y288290D02*
X100584D01*
X92964D02*
Y306070D01*
X380238Y422910D02*
Y440690D01*
Y422910D02*
X387858D01*
X380238Y440690D02*
X387858D01*
X361442Y422910D02*
Y440690D01*
X353822D02*
X361442D01*
X353822Y422910D02*
X361442D01*
Y440690D02*
X380238D01*
X353822Y422910D02*
Y440690D01*
X361442Y422910D02*
X380238D01*
X387858D02*
Y440690D01*
X380238Y422910D02*
Y440690D01*
Y422910D02*
X387858D01*
X380238Y440690D02*
X387858D01*
X361442Y422910D02*
Y440690D01*
X353822D02*
X361442D01*
X353822Y422910D02*
X361442D01*
Y440690D02*
X380238D01*
X353822Y422910D02*
Y440690D01*
X361442Y422910D02*
X380238D01*
X387858D02*
Y440690D01*
X238252Y173482D02*
X305308D01*
Y136398D02*
Y173482D01*
X238252Y136398D02*
X305308D01*
X238252D02*
Y173482D01*
X287274Y118364D02*
Y136398D01*
X256286Y118364D02*
X287274D01*
X256286D02*
Y136398D01*
X287274D01*
X244856Y173482D02*
Y191516D01*
X252730D01*
Y173482D02*
Y191516D01*
X244856Y173482D02*
X252730D01*
X267970D02*
Y191516D01*
X275844D01*
Y173482D02*
Y191516D01*
X267970Y173482D02*
X275844D01*
X290830D02*
Y191516D01*
X298704D01*
Y173482D02*
Y191516D01*
X290830Y173482D02*
X298704D01*
X238252D02*
X305308D01*
Y136398D02*
Y173482D01*
X238252Y136398D02*
X305308D01*
X238252D02*
Y173482D01*
X287274Y118364D02*
Y136398D01*
X256286Y118364D02*
X287274D01*
X256286D02*
Y136398D01*
X287274D01*
X244856Y173482D02*
Y191516D01*
X252730D01*
Y173482D02*
Y191516D01*
X244856Y173482D02*
X252730D01*
X267970D02*
Y191516D01*
X275844D01*
Y173482D02*
Y191516D01*
X267970Y173482D02*
X275844D01*
X290830D02*
Y191516D01*
X298704D01*
Y173482D02*
Y191516D01*
X290830Y173482D02*
X298704D01*
X511810Y217678D02*
X529590D01*
X511810Y183642D02*
X529590D01*
Y191262D01*
X511810Y183642D02*
Y191262D01*
X529590D01*
X511810Y210058D02*
Y217678D01*
X529590Y210058D02*
Y217678D01*
X511810Y210058D02*
X529590D01*
X511810Y217678D02*
X529590D01*
X511810Y183642D02*
X529590D01*
Y191262D01*
X511810Y183642D02*
Y191262D01*
X529590D01*
X511810Y210058D02*
Y217678D01*
X529590Y210058D02*
Y217678D01*
X511810Y210058D02*
X529590D01*
D29*
X454914Y429242D02*
X515366D01*
X520192Y368536D02*
Y419844D01*
X462788Y359138D02*
X507492D01*
X450088Y376410D02*
Y411970D01*
X507492Y429242D02*
X520192Y416542D01*
X515366Y349232D02*
Y359138D01*
X510794Y349232D02*
X515366D01*
X510794D02*
Y359138D01*
X515366D01*
X507492Y349232D02*
Y359138D01*
X502920Y349232D02*
X507492D01*
X502920D02*
Y359138D01*
X507492D01*
X499364Y349232D02*
Y359138D01*
X494792Y349232D02*
X499364D01*
X494792D02*
Y359138D01*
X499364D01*
X491490Y349232D02*
Y359138D01*
X486918Y349232D02*
X491490D01*
X486918D02*
Y359138D01*
X491490D01*
X483362Y349232D02*
Y359138D01*
X478790Y349232D02*
X483362D01*
X478790D02*
Y359138D01*
X483362D01*
X475488Y349232D02*
Y359138D01*
X470916Y349232D02*
X475488D01*
X470916D02*
Y359138D01*
X475488D01*
X467360Y349232D02*
Y359138D01*
X462788Y349232D02*
X467360D01*
X462788D02*
Y359138D01*
X467360D01*
X459486Y349232D02*
Y359138D01*
X454914Y349232D02*
X459486D01*
X454914D02*
Y359138D01*
X459486D01*
X440182Y363964D02*
X450088D01*
X440182D02*
Y368536D01*
X450088D01*
Y363964D02*
Y368536D01*
X440182Y371838D02*
X450088D01*
X440182D02*
Y376410D01*
X450088D01*
Y371838D02*
Y376410D01*
X440182Y379966D02*
X450088D01*
X440182D02*
Y384538D01*
X450088D01*
Y379966D02*
Y384538D01*
X440182Y387840D02*
X450088D01*
X440182D02*
Y392412D01*
X450088D01*
Y387840D02*
Y392412D01*
X440182Y395968D02*
X450088D01*
X440182D02*
Y400540D01*
X450088D01*
Y395968D02*
Y400540D01*
X440182Y403842D02*
X450088D01*
X440182D02*
Y408414D01*
X450088D01*
Y403842D02*
Y408414D01*
X440182Y411970D02*
X450088D01*
X440182D02*
Y416542D01*
X450088D01*
Y411970D02*
Y416542D01*
X440182Y419844D02*
X450088D01*
X440182D02*
Y424416D01*
X450088D01*
Y419844D02*
Y424416D01*
X454914Y429242D02*
Y439148D01*
X459486D01*
Y429242D02*
Y439148D01*
X454914Y429242D02*
X459486D01*
X462788D02*
Y439148D01*
X467360D01*
Y429242D02*
Y439148D01*
X462788Y429242D02*
X467360D01*
X470916D02*
Y439148D01*
X475488D01*
Y429242D02*
Y439148D01*
X470916Y429242D02*
X475488D01*
X478790D02*
Y439148D01*
X483362D01*
Y429242D02*
Y439148D01*
X478790Y429242D02*
X483362D01*
X486918D02*
Y439148D01*
X491490D01*
Y429242D02*
Y439148D01*
X486918Y429242D02*
X491490D01*
X494792D02*
Y439148D01*
X499364D01*
Y429242D02*
Y439148D01*
X494792Y429242D02*
X499364D01*
X502920D02*
Y439148D01*
X507492D01*
Y429242D02*
Y439148D01*
X502920Y429242D02*
X507492D01*
X510794D02*
Y439148D01*
X515366D01*
Y429242D02*
Y439148D01*
X510794Y429242D02*
X515366D01*
X520192Y424416D02*
X530098D01*
Y419844D02*
Y424416D01*
X520192Y419844D02*
X530098D01*
X520192D02*
Y424416D01*
Y416542D02*
X530098D01*
Y411970D02*
Y416542D01*
X520192Y411970D02*
X530098D01*
X520192D02*
Y416542D01*
Y408414D02*
X530098D01*
Y403842D02*
Y408414D01*
X520192Y403842D02*
X530098D01*
X520192D02*
Y408414D01*
Y400540D02*
X530098D01*
Y395968D02*
Y400540D01*
X520192Y395968D02*
X530098D01*
X520192D02*
Y400540D01*
Y392412D02*
X530098D01*
Y387840D02*
Y392412D01*
X520192Y387840D02*
X530098D01*
X520192D02*
Y392412D01*
Y384538D02*
X530098D01*
Y379966D02*
Y384538D01*
X520192Y379966D02*
X530098D01*
X520192D02*
Y384538D01*
Y376410D02*
X530098D01*
Y371838D02*
Y376410D01*
X520192Y371838D02*
X530098D01*
X520192D02*
Y376410D01*
Y368536D02*
X530098D01*
Y363964D02*
Y368536D01*
X520192Y363964D02*
X530098D01*
X520192D02*
Y368536D01*
X450088Y429242D02*
X454914D01*
X459486D02*
X462788D01*
X467360D02*
X470916D01*
X475488D02*
X478790D01*
X483362D02*
X486918D01*
X491490D02*
X494792D01*
X499364D02*
X502920D01*
X507492D02*
X510794D01*
X515366D02*
X520192D01*
Y424416D02*
Y429242D01*
Y416542D02*
Y419844D01*
Y408414D02*
Y411970D01*
Y400540D02*
Y403842D01*
Y392412D02*
Y395968D01*
Y384538D02*
Y387840D01*
Y376410D02*
Y379966D01*
Y368536D02*
Y371838D01*
Y359138D02*
Y363964D01*
X515366Y359138D02*
X520192D01*
X507492D02*
X510794D01*
X499364D02*
X502920D01*
X491490D02*
X494792D01*
X483362D02*
X486918D01*
X475488D02*
X478790D01*
X467360D02*
X470916D01*
X459486D02*
X462788D01*
X450088D02*
X454914D01*
X450088D02*
Y363964D01*
Y368536D02*
Y371838D01*
Y376410D02*
Y379966D01*
Y384538D02*
Y387840D01*
Y392412D02*
Y395968D01*
Y400540D02*
Y403842D01*
Y408414D02*
Y411970D01*
Y416542D02*
Y419844D01*
Y424416D02*
Y429242D01*
X454914D02*
X515366D01*
X520192Y368536D02*
Y419844D01*
X462788Y359138D02*
X507492D01*
X450088Y376410D02*
Y411970D01*
X507492Y429242D02*
X520192Y416542D01*
X515366Y349232D02*
Y359138D01*
X510794Y349232D02*
X515366D01*
X510794D02*
Y359138D01*
X515366D01*
X507492Y349232D02*
Y359138D01*
X502920Y349232D02*
X507492D01*
X502920D02*
Y359138D01*
X507492D01*
X499364Y349232D02*
Y359138D01*
X494792Y349232D02*
X499364D01*
X494792D02*
Y359138D01*
X499364D01*
X491490Y349232D02*
Y359138D01*
X486918Y349232D02*
X491490D01*
X486918D02*
Y359138D01*
X491490D01*
X483362Y349232D02*
Y359138D01*
X478790Y349232D02*
X483362D01*
X478790D02*
Y359138D01*
X483362D01*
X475488Y349232D02*
Y359138D01*
X470916Y349232D02*
X475488D01*
X470916D02*
Y359138D01*
X475488D01*
X467360Y349232D02*
Y359138D01*
X462788Y349232D02*
X467360D01*
X462788D02*
Y359138D01*
X467360D01*
X459486Y349232D02*
Y359138D01*
X454914Y349232D02*
X459486D01*
X454914D02*
Y359138D01*
X459486D01*
X440182Y363964D02*
X450088D01*
X440182D02*
Y368536D01*
X450088D01*
Y363964D02*
Y368536D01*
X440182Y371838D02*
X450088D01*
X440182D02*
Y376410D01*
X450088D01*
Y371838D02*
Y376410D01*
X440182Y379966D02*
X450088D01*
X440182D02*
Y384538D01*
X450088D01*
Y379966D02*
Y384538D01*
X440182Y387840D02*
X450088D01*
X440182D02*
Y392412D01*
X450088D01*
Y387840D02*
Y392412D01*
X440182Y395968D02*
X450088D01*
X440182D02*
Y400540D01*
X450088D01*
Y395968D02*
Y400540D01*
X440182Y403842D02*
X450088D01*
X440182D02*
Y408414D01*
X450088D01*
Y403842D02*
Y408414D01*
X440182Y411970D02*
X450088D01*
X440182D02*
Y416542D01*
X450088D01*
Y411970D02*
Y416542D01*
X440182Y419844D02*
X450088D01*
X440182D02*
Y424416D01*
X450088D01*
Y419844D02*
Y424416D01*
X454914Y429242D02*
Y439148D01*
X459486D01*
Y429242D02*
Y439148D01*
X454914Y429242D02*
X459486D01*
X462788D02*
Y439148D01*
X467360D01*
Y429242D02*
Y439148D01*
X462788Y429242D02*
X467360D01*
X470916D02*
Y439148D01*
X475488D01*
Y429242D02*
Y439148D01*
X470916Y429242D02*
X475488D01*
X478790D02*
Y439148D01*
X483362D01*
Y429242D02*
Y439148D01*
X478790Y429242D02*
X483362D01*
X486918D02*
Y439148D01*
X491490D01*
Y429242D02*
Y439148D01*
X486918Y429242D02*
X491490D01*
X494792D02*
Y439148D01*
X499364D01*
Y429242D02*
Y439148D01*
X494792Y429242D02*
X499364D01*
X502920D02*
Y439148D01*
X507492D01*
Y429242D02*
Y439148D01*
X502920Y429242D02*
X507492D01*
X510794D02*
Y439148D01*
X515366D01*
Y429242D02*
Y439148D01*
X510794Y429242D02*
X515366D01*
X520192Y424416D02*
X530098D01*
Y419844D02*
Y424416D01*
X520192Y419844D02*
X530098D01*
X520192D02*
Y424416D01*
Y416542D02*
X530098D01*
Y411970D02*
Y416542D01*
X520192Y411970D02*
X530098D01*
X520192D02*
Y416542D01*
Y408414D02*
X530098D01*
Y403842D02*
Y408414D01*
X520192Y403842D02*
X530098D01*
X520192D02*
Y408414D01*
Y400540D02*
X530098D01*
Y395968D02*
Y400540D01*
X520192Y395968D02*
X530098D01*
X520192D02*
Y400540D01*
Y392412D02*
X530098D01*
Y387840D02*
Y392412D01*
X520192Y387840D02*
X530098D01*
X520192D02*
Y392412D01*
Y384538D02*
X530098D01*
Y379966D02*
Y384538D01*
X520192Y379966D02*
X530098D01*
X520192D02*
Y384538D01*
Y376410D02*
X530098D01*
Y371838D02*
Y376410D01*
X520192Y371838D02*
X530098D01*
X520192D02*
Y376410D01*
Y368536D02*
X530098D01*
Y363964D02*
Y368536D01*
X520192Y363964D02*
X530098D01*
X520192D02*
Y368536D01*
X450088Y429242D02*
X454914D01*
X459486D02*
X462788D01*
X467360D02*
X470916D01*
X475488D02*
X478790D01*
X483362D02*
X486918D01*
X491490D02*
X494792D01*
X499364D02*
X502920D01*
X507492D02*
X510794D01*
X515366D02*
X520192D01*
Y424416D02*
Y429242D01*
Y416542D02*
Y419844D01*
Y408414D02*
Y411970D01*
Y400540D02*
Y403842D01*
Y392412D02*
Y395968D01*
Y384538D02*
Y387840D01*
Y376410D02*
Y379966D01*
Y368536D02*
Y371838D01*
Y359138D02*
Y363964D01*
X515366Y359138D02*
X520192D01*
X507492D02*
X510794D01*
X499364D02*
X502920D01*
X491490D02*
X494792D01*
X483362D02*
X486918D01*
X475488D02*
X478790D01*
X467360D02*
X470916D01*
X459486D02*
X462788D01*
X450088D02*
X454914D01*
X450088D02*
Y363964D01*
Y368536D02*
Y371838D01*
Y376410D02*
Y379966D01*
Y384538D02*
Y387840D01*
Y392412D02*
Y395968D01*
Y400540D02*
Y403842D01*
Y408414D02*
Y411970D01*
Y416542D02*
Y419844D01*
Y424416D02*
Y429242D01*
M02*
