G04*
G04 #@! TF.GenerationSoftware,Altium Limited,Altium Designer,23.8.1 (32)*
G04*
G04 Layer_Physical_Order=1*
G04 Layer_Color=255*
%FSLAX44Y44*%
%MOMM*%
G71*
G04*
G04 #@! TF.SameCoordinates,EF1116E4-02E2-45A5-A5C3-51D3E917E2D0*
G04*
G04*
G04 #@! TF.FilePolarity,Positive*
G04*
G01*
G75*
%ADD11C,0.5080*%
%ADD15C,0.2540*%
%ADD17C,0.1524*%
%ADD19R,3.4000X0.6000*%
%ADD20R,1.8034X1.1176*%
%ADD21R,1.1176X1.8034*%
%ADD31C,1.6200*%
%ADD32C,1.7780*%
%ADD33O,2.0000X3.8000*%
%ADD34O,3.3000X1.8000*%
%ADD35C,0.6350*%
D11*
X345186Y457200D02*
X426974D01*
X277773Y222447D02*
Y222447D01*
X252860Y194770D02*
X272555D01*
X275530Y220205D02*
X277773Y222447D01*
X272555Y194770D02*
X275530Y197746D01*
Y220205D01*
X277773Y222447D02*
X287275Y231950D01*
X303880D01*
X141760Y356080D02*
Y456720D01*
Y356080D02*
X142240Y355600D01*
X141280Y457200D02*
X141760Y456720D01*
X303880Y231950D02*
X304800Y232870D01*
X252400Y194310D02*
X252860Y194770D01*
X137160Y268986D02*
Y301824D01*
X140136Y304800D02*
X304800D01*
X137160Y301824D02*
X140136Y304800D01*
X304800D02*
Y330200D01*
Y232870D02*
Y304800D01*
Y355600D02*
Y357004D01*
X315214Y367417D02*
Y457200D01*
X304800Y357004D02*
X315214Y367417D01*
X248920Y406400D02*
Y427228D01*
Y457200D02*
X315214D01*
X141280D02*
X248920D01*
X306400Y232410D02*
X344424D01*
D15*
X345694Y233680D01*
D17*
X261620Y149860D02*
X419477D01*
X420370Y150753D02*
Y189230D01*
X419477Y149860D02*
X420370Y150753D01*
X389890Y219710D02*
X420370Y189230D01*
X246380Y165100D02*
X261620Y149860D01*
X151892Y234188D02*
X219710Y166370D01*
X141986Y234188D02*
X151892D01*
X137160Y133701D02*
Y170307D01*
Y133701D02*
X139289Y131572D01*
X223520Y187960D02*
X233680Y177800D01*
X279400D01*
X306400Y194310D02*
X341884D01*
X343154Y193040D01*
X213995Y219075D02*
X214630Y219710D01*
X213360Y218440D02*
X213995Y219075D01*
X134747Y172720D02*
X137160Y170307D01*
X112653Y172720D02*
X134747D01*
X111760Y173613D02*
X112653Y172720D01*
X111760Y173613D02*
Y253107D01*
X112653Y254000D01*
X166747D01*
X167640Y243840D02*
Y253107D01*
X166747Y254000D02*
X167640Y253107D01*
Y243840D02*
X192405Y219075D01*
X213995D01*
X214630Y219710D02*
X252400D01*
X213360Y208280D02*
Y218440D01*
X281372Y179772D02*
Y203200D01*
X279400Y177800D02*
X281372Y179772D01*
Y203200D02*
X282944Y204772D01*
X304162D02*
X306400Y207010D01*
X282944Y204772D02*
X304162D01*
X306400Y219710D02*
X389890D01*
X284480Y116840D02*
X320040D01*
X213991Y187329D02*
Y188591D01*
Y187329D02*
X284480Y116840D01*
X213991Y188591D02*
X232410Y207010D01*
X665480Y51693D02*
Y114300D01*
X824230Y50800D02*
X833120Y41910D01*
X665480Y51693D02*
X666373Y50800D01*
X824230D01*
X704850Y66040D02*
Y85598D01*
X777240Y66040D02*
Y85598D01*
X458216Y457200D02*
X486410D01*
X456946Y455930D02*
X458216Y457200D01*
X304162Y209248D02*
X306400Y207010D01*
X373126Y193040D02*
X393700D01*
X137160Y239014D02*
X141986Y234188D01*
X137160Y200279D02*
Y239014D01*
X232410Y207010D02*
X252400D01*
X320040Y116840D02*
Y132080D01*
X330200Y142240D01*
X431800D01*
X447040Y157480D02*
Y207010D01*
X431800Y142240D02*
X447040Y157480D01*
X664210Y115570D02*
X665480Y114300D01*
X631190Y115570D02*
X664210D01*
X558546Y207010D02*
X558800Y206756D01*
X472440Y207010D02*
X558546D01*
X558800Y206756D02*
X631190D01*
X704850D01*
X777240D01*
Y115570D02*
Y176784D01*
X704850Y115570D02*
Y176784D01*
X631190Y115570D02*
Y176784D01*
X558800Y115570D02*
Y176784D01*
X631190Y66040D02*
Y85598D01*
X558800Y66040D02*
Y85598D01*
X137160Y76200D02*
Y99471D01*
X139289Y101600D01*
X218440Y233680D02*
X251130D01*
X252400Y232410D01*
X375666Y233680D02*
X396240D01*
D19*
X252400Y232410D02*
D03*
Y219710D02*
D03*
Y207010D02*
D03*
Y194310D02*
D03*
X306400D02*
D03*
Y207010D02*
D03*
Y219710D02*
D03*
Y232410D02*
D03*
D20*
X137160Y239014D02*
D03*
Y268986D02*
D03*
X248920Y457200D02*
D03*
Y427228D02*
D03*
X139289Y131572D02*
D03*
Y101600D02*
D03*
X137160Y170307D02*
D03*
Y200279D02*
D03*
X777240Y115570D02*
D03*
Y85598D02*
D03*
X631190Y115570D02*
D03*
Y85598D02*
D03*
X558800Y115570D02*
D03*
Y85598D02*
D03*
X777240Y176784D02*
D03*
Y206756D02*
D03*
X704850Y176784D02*
D03*
Y206756D02*
D03*
X558800Y176784D02*
D03*
Y206756D02*
D03*
X631190Y176784D02*
D03*
Y206756D02*
D03*
X704850Y115570D02*
D03*
Y85598D02*
D03*
D21*
X343154Y193040D02*
D03*
X373126D02*
D03*
X345694Y233680D02*
D03*
X375666D02*
D03*
X345186Y457200D02*
D03*
X315214D02*
D03*
X426974Y455930D02*
D03*
X456946D02*
D03*
D31*
X304800Y330200D02*
D03*
Y355600D02*
D03*
X447040Y207010D02*
D03*
X472440D02*
D03*
D32*
X370840Y116840D02*
D03*
X396240D02*
D03*
X320040D02*
D03*
X345440D02*
D03*
X116840Y355600D02*
D03*
X142240D02*
D03*
X66040D02*
D03*
X91440D02*
D03*
X833120Y67310D02*
D03*
Y41910D02*
D03*
Y118110D02*
D03*
Y92710D02*
D03*
D33*
X141280Y457200D02*
D03*
X81280D02*
D03*
D34*
X116280Y410700D02*
D03*
D35*
X219710Y166370D02*
D03*
X223520Y187960D02*
D03*
X213360Y208280D02*
D03*
X246380Y165100D02*
D03*
X704850Y66040D02*
D03*
X777240D02*
D03*
X486410Y457200D02*
D03*
X393700Y193040D02*
D03*
X248920Y406400D02*
D03*
X218440Y233680D02*
D03*
X137160Y76200D02*
D03*
X631190Y66040D02*
D03*
X558800D02*
D03*
X396240Y233680D02*
D03*
M02*
