G04*
G04 #@! TF.GenerationSoftware,Altium Limited,Altium Designer,23.8.1 (32)*
G04*
G04 Layer_Color=2752767*
%FSLAX44Y44*%
%MOMM*%
G71*
G04*
G04 #@! TF.SameCoordinates,EF1116E4-02E2-45A5-A5C3-51D3E917E2D0*
G04*
G04*
G04 #@! TF.FilePolarity,Positive*
G04*
G01*
G75*
%ADD18C,0.1270*%
%ADD36C,0.1693*%
D18*
X304800Y325120D02*
X307340Y327660D01*
X309880D01*
X307340Y330200D01*
X309880Y332740D01*
X307340D01*
X304800Y335280D01*
X302260Y332740D01*
X299720D01*
X302260Y330200D01*
X299720Y327660D01*
X302260D01*
X304800Y325120D01*
Y350520D02*
X307340Y353060D01*
X309880D01*
X307340Y355600D01*
X309880Y358140D01*
X307340D01*
X304800Y360680D01*
X302260Y358140D01*
X299720D01*
X302260Y355600D01*
X299720Y353060D01*
X302260D01*
X304800Y350520D01*
X370840Y111760D02*
X365760Y121920D01*
X375920D01*
X370840Y111760D01*
X396240D02*
X391160Y121920D01*
X401320D01*
X396240Y111760D01*
X320040D02*
X314960Y121920D01*
X325120D01*
X320040Y111760D01*
X345440D02*
X340360Y121920D01*
X350520D01*
X345440Y111760D01*
X447040Y201930D02*
X449580Y204470D01*
X452120D01*
X449580Y207010D01*
X452120Y209550D01*
X449580D01*
X447040Y212090D01*
X444500Y209550D01*
X441960D01*
X444500Y207010D01*
X441960Y204470D01*
X444500D01*
X447040Y201930D01*
X472440D02*
X474980Y204470D01*
X477520D01*
X474980Y207010D01*
X477520Y209550D01*
X474980D01*
X472440Y212090D01*
X469900Y209550D01*
X467360D01*
X469900Y207010D01*
X467360Y204470D01*
X469900D01*
X472440Y201930D01*
X136200Y452120D02*
Y462280D01*
X146360D01*
Y452120D01*
X136200D01*
X76200D02*
Y462280D01*
X86360D01*
Y452120D01*
X76200D01*
X116840Y350520D02*
X111760Y360680D01*
X121920D01*
X116840Y350520D01*
X142240D02*
X137160Y360680D01*
X147320D01*
X142240Y350520D01*
X66040D02*
X60960Y360680D01*
X71120D01*
X66040Y350520D01*
X91440D02*
X86360Y360680D01*
X96520D01*
X91440Y350520D01*
X833120Y62230D02*
X828040Y72390D01*
X838200D01*
X833120Y62230D01*
Y36830D02*
X828040Y46990D01*
X838200D01*
X833120Y36830D01*
Y113030D02*
X828040Y123190D01*
X838200D01*
X833120Y113030D01*
Y87630D02*
X828040Y97790D01*
X838200D01*
X833120Y87630D01*
X214630Y161290D02*
X217170Y166370D01*
X214630Y171450D01*
X219710Y168910D01*
X224790Y171450D01*
X222250Y166370D01*
X224790Y161290D01*
X219710Y163830D01*
X214630Y161290D01*
X218440Y182880D02*
X220980Y187960D01*
X218440Y193040D01*
X223520Y190500D01*
X228600Y193040D01*
X226060Y187960D01*
X228600Y182880D01*
X223520Y185420D01*
X218440Y182880D01*
X208280Y203200D02*
X210820Y208280D01*
X208280Y213360D01*
X213360Y210820D01*
X218440Y213360D01*
X215900Y208280D01*
X218440Y203200D01*
X213360Y205740D01*
X208280Y203200D01*
X241300Y160020D02*
X243840Y165100D01*
X241300Y170180D01*
X246380Y167640D01*
X251460Y170180D01*
X248920Y165100D01*
X251460Y160020D01*
X246380Y162560D01*
X241300Y160020D01*
X699770Y60960D02*
X702310Y66040D01*
X699770Y71120D01*
X704850Y68580D01*
X709930Y71120D01*
X707390Y66040D01*
X709930Y60960D01*
X704850Y63500D01*
X699770Y60960D01*
X772160D02*
X774700Y66040D01*
X772160Y71120D01*
X777240Y68580D01*
X782320Y71120D01*
X779780Y66040D01*
X782320Y60960D01*
X777240Y63500D01*
X772160Y60960D01*
X481330Y452120D02*
X483870Y457200D01*
X481330Y462280D01*
X486410Y459740D01*
X491490Y462280D01*
X488950Y457200D01*
X491490Y452120D01*
X486410Y454660D01*
X481330Y452120D01*
X388620Y187960D02*
X391160Y193040D01*
X388620Y198120D01*
X393700Y195580D01*
X398780Y198120D01*
X396240Y193040D01*
X398780Y187960D01*
X393700Y190500D01*
X388620Y187960D01*
X243840Y401320D02*
X246380Y406400D01*
X243840Y411480D01*
X248920Y408940D01*
X254000Y411480D01*
X251460Y406400D01*
X254000Y401320D01*
X248920Y403860D01*
X243840Y401320D01*
X213360Y228600D02*
X215900Y233680D01*
X213360Y238760D01*
X218440Y236220D01*
X223520Y238760D01*
X220980Y233680D01*
X223520Y228600D01*
X218440Y231140D01*
X213360Y228600D01*
X132080Y71120D02*
X134620Y76200D01*
X132080Y81280D01*
X137160Y78740D01*
X142240Y81280D01*
X139700Y76200D01*
X142240Y71120D01*
X137160Y73660D01*
X132080Y71120D01*
X626110Y60960D02*
X628650Y66040D01*
X626110Y71120D01*
X631190Y68580D01*
X636270Y71120D01*
X633730Y66040D01*
X636270Y60960D01*
X631190Y63500D01*
X626110Y60960D01*
X553720D02*
X556260Y66040D01*
X553720Y71120D01*
X558800Y68580D01*
X563880Y71120D01*
X561340Y66040D01*
X563880Y60960D01*
X558800Y63500D01*
X553720Y60960D01*
X391160Y228600D02*
X393700Y233680D01*
X391160Y238760D01*
X396240Y236220D01*
X401320Y238760D01*
X398780Y233680D01*
X401320Y228600D01*
X396240Y231140D01*
X391160Y228600D01*
D36*
X121360Y410700D02*
G03*
X121360Y410700I-5080J0D01*
G01*
M02*
