G04*
G04 #@! TF.GenerationSoftware,Altium Limited,Altium Designer,23.8.1 (32)*
G04*
G04 Layer_Color=128*
%FSLAX44Y44*%
%MOMM*%
G71*
G04*
G04 #@! TF.SameCoordinates,EF1116E4-02E2-45A5-A5C3-51D3E917E2D0*
G04*
G04*
G04 #@! TF.FilePolarity,Positive*
G04*
G01*
G75*
%ADD18C,0.1270*%
D18*
X299700Y330200D02*
X309900D01*
X304800Y325100D02*
Y335300D01*
X299700Y355600D02*
X309900D01*
X304800Y350500D02*
Y360700D01*
X365760Y116840D02*
X375920D01*
X370840Y111760D02*
Y121920D01*
X391160Y116840D02*
X401320D01*
X396240Y111760D02*
Y121920D01*
X314960Y116840D02*
X325120D01*
X320040Y111760D02*
Y121920D01*
X340360Y116840D02*
X350520D01*
X345440Y111760D02*
Y121920D01*
X441940Y207010D02*
X452140D01*
X447040Y201910D02*
Y212110D01*
X467340Y207010D02*
X477540D01*
X472440Y201910D02*
Y212110D01*
X135280Y457200D02*
X147280D01*
X141280Y451200D02*
Y463200D01*
X75280Y457200D02*
X87280D01*
X81280Y451200D02*
Y463200D01*
X111280Y410700D02*
X121280D01*
X116280Y405700D02*
Y415700D01*
X111760Y355600D02*
X121920D01*
X116840Y350520D02*
Y360680D01*
X137160Y355600D02*
X147320D01*
X142240Y350520D02*
Y360680D01*
X60960Y355600D02*
X71120D01*
X66040Y350520D02*
Y360680D01*
X86360Y355600D02*
X96520D01*
X91440Y350520D02*
Y360680D01*
X828040Y67310D02*
X838200D01*
X833120Y62230D02*
Y72390D01*
X828040Y41910D02*
X838200D01*
X833120Y36830D02*
Y46990D01*
X828040Y118110D02*
X838200D01*
X833120Y113030D02*
Y123190D01*
X828040Y92710D02*
X838200D01*
X833120Y87630D02*
Y97790D01*
X218059Y166370D02*
X221361D01*
X219710Y164719D02*
Y168021D01*
X221869Y187960D02*
X225171D01*
X223520Y186309D02*
Y189611D01*
X211709Y208280D02*
X215011D01*
X213360Y206629D02*
Y209931D01*
X244729Y165100D02*
X248031D01*
X246380Y163449D02*
Y166751D01*
X703199Y66040D02*
X706501D01*
X704850Y64389D02*
Y67691D01*
X775589Y66040D02*
X778891D01*
X777240Y64389D02*
Y67691D01*
X484759Y457200D02*
X488061D01*
X486410Y455549D02*
Y458851D01*
X392049Y193040D02*
X395351D01*
X393700Y191389D02*
Y194691D01*
X247269Y406400D02*
X250571D01*
X248920Y404749D02*
Y408051D01*
X216789Y233680D02*
X220091D01*
X218440Y232029D02*
Y235331D01*
X135509Y76200D02*
X138811D01*
X137160Y74549D02*
Y77851D01*
X629539Y66040D02*
X632841D01*
X631190Y64389D02*
Y67691D01*
X557149Y66040D02*
X560451D01*
X558800Y64389D02*
Y67691D01*
X394589Y233680D02*
X397891D01*
X396240Y232029D02*
Y235331D01*
M02*
