G04*
G04 #@! TF.GenerationSoftware,Altium Limited,Altium Designer,23.8.1 (32)*
G04*
G04 Layer_Physical_Order=2*
G04 Layer_Color=16711680*
%FSLAX44Y44*%
%MOMM*%
G71*
G04*
G04 #@! TF.SameCoordinates,EF1116E4-02E2-45A5-A5C3-51D3E917E2D0*
G04*
G04*
G04 #@! TF.FilePolarity,Positive*
G04*
G01*
G75*
%ADD17C,0.1524*%
%ADD31C,1.6200*%
%ADD32C,1.7780*%
%ADD33O,2.0000X3.8000*%
%ADD34O,3.3000X1.8000*%
%ADD35C,0.6350*%
G36*
X883820Y5179D02*
X5179D01*
Y502821D01*
X883820D01*
Y5179D01*
D02*
G37*
%LPC*%
G36*
X82550Y478681D02*
Y458470D01*
X93928D01*
Y466200D01*
X93497Y469474D01*
X92234Y472524D01*
X90224Y475144D01*
X87604Y477154D01*
X84554Y478417D01*
X82550Y478681D01*
D02*
G37*
G36*
X80010D02*
X78006Y478417D01*
X74956Y477154D01*
X72336Y475144D01*
X70326Y472524D01*
X69063Y469474D01*
X68632Y466200D01*
Y458470D01*
X80010D01*
Y478681D01*
D02*
G37*
G36*
X93928Y455930D02*
X82550D01*
Y435719D01*
X84554Y435983D01*
X87604Y437246D01*
X90224Y439256D01*
X92234Y441876D01*
X93497Y444926D01*
X93928Y448200D01*
Y455930D01*
D02*
G37*
G36*
X80010D02*
X68632D01*
Y448200D01*
X69063Y444926D01*
X70326Y441876D01*
X72336Y439256D01*
X74956Y437246D01*
X78006Y435983D01*
X80010Y435719D01*
Y455930D01*
D02*
G37*
G36*
X141280Y478848D02*
X138006Y478417D01*
X134956Y477154D01*
X132336Y475144D01*
X130326Y472524D01*
X129063Y469474D01*
X128632Y466200D01*
Y448200D01*
X129063Y444926D01*
X130326Y441876D01*
X132336Y439256D01*
X134956Y437246D01*
X138006Y435983D01*
X141280Y435552D01*
X144554Y435983D01*
X147604Y437246D01*
X150224Y439256D01*
X152234Y441876D01*
X153497Y444926D01*
X153928Y448200D01*
Y466200D01*
X153497Y469474D01*
X152234Y472524D01*
X150224Y475144D01*
X147604Y477154D01*
X144554Y478417D01*
X141280Y478848D01*
D02*
G37*
G36*
X123780Y422340D02*
X117550D01*
Y411970D01*
X135252D01*
X135023Y413713D01*
X133860Y416520D01*
X132010Y418930D01*
X129600Y420780D01*
X126793Y421943D01*
X123780Y422340D01*
D02*
G37*
G36*
X115010D02*
X108780D01*
X105767Y421943D01*
X102960Y420780D01*
X100550Y418930D01*
X98700Y416520D01*
X97537Y413713D01*
X97308Y411970D01*
X115010D01*
Y422340D01*
D02*
G37*
G36*
X135252Y409430D02*
X117550D01*
Y399060D01*
X123780D01*
X126793Y399457D01*
X129600Y400620D01*
X132010Y402470D01*
X133860Y404880D01*
X135023Y407687D01*
X135252Y409430D01*
D02*
G37*
G36*
X115010D02*
X97308D01*
X97537Y407687D01*
X98700Y404880D01*
X100550Y402470D01*
X102960Y400620D01*
X105767Y399457D01*
X108780Y399060D01*
X115010D01*
Y409430D01*
D02*
G37*
G36*
X92945Y367030D02*
X92710D01*
Y356870D01*
X102870D01*
Y357105D01*
X102091Y360012D01*
X100586Y362618D01*
X98458Y364746D01*
X95852Y366251D01*
X92945Y367030D01*
D02*
G37*
G36*
X118345D02*
X118110D01*
Y356870D01*
X128270D01*
Y357105D01*
X127491Y360012D01*
X125986Y362618D01*
X123858Y364746D01*
X121252Y366251D01*
X118345Y367030D01*
D02*
G37*
G36*
X67545D02*
X67310D01*
Y356870D01*
X77470D01*
Y357105D01*
X76691Y360012D01*
X75186Y362618D01*
X73058Y364746D01*
X70452Y366251D01*
X67545Y367030D01*
D02*
G37*
G36*
X90170D02*
X89935D01*
X87028Y366251D01*
X84422Y364746D01*
X82294Y362618D01*
X80789Y360012D01*
X80010Y357105D01*
Y356870D01*
X90170D01*
Y367030D01*
D02*
G37*
G36*
X115570D02*
X115335D01*
X112428Y366251D01*
X109822Y364746D01*
X107694Y362618D01*
X106189Y360012D01*
X105410Y357105D01*
Y356870D01*
X115570D01*
Y367030D01*
D02*
G37*
G36*
X64770D02*
X64535D01*
X61628Y366251D01*
X59022Y364746D01*
X56894Y362618D01*
X55389Y360012D01*
X54610Y357105D01*
Y356870D01*
X64770D01*
Y367030D01*
D02*
G37*
G36*
X306201Y366240D02*
X303399D01*
X300693Y365515D01*
X298267Y364114D01*
X296286Y362133D01*
X294885Y359707D01*
X294160Y357001D01*
Y354199D01*
X294885Y351493D01*
X296286Y349067D01*
X298267Y347086D01*
X300693Y345685D01*
X303399Y344960D01*
X306201D01*
X308907Y345685D01*
X311333Y347086D01*
X313314Y349067D01*
X314715Y351493D01*
X315440Y354199D01*
Y357001D01*
X314715Y359707D01*
X313314Y362133D01*
X311333Y364114D01*
X308907Y365515D01*
X306201Y366240D01*
D02*
G37*
G36*
X143745Y367030D02*
X140735D01*
X137828Y366251D01*
X135222Y364746D01*
X133094Y362618D01*
X131589Y360012D01*
X130810Y357105D01*
Y354095D01*
X131589Y351188D01*
X133094Y348582D01*
X135222Y346454D01*
X137828Y344949D01*
X140735Y344170D01*
X143745D01*
X146652Y344949D01*
X149258Y346454D01*
X151386Y348582D01*
X152891Y351188D01*
X153670Y354095D01*
Y357105D01*
X152891Y360012D01*
X151386Y362618D01*
X149258Y364746D01*
X146652Y366251D01*
X143745Y367030D01*
D02*
G37*
G36*
X128270Y354330D02*
X118110D01*
Y344170D01*
X118345D01*
X121252Y344949D01*
X123858Y346454D01*
X125986Y348582D01*
X127491Y351188D01*
X128270Y354095D01*
Y354330D01*
D02*
G37*
G36*
X115570D02*
X105410D01*
Y354095D01*
X106189Y351188D01*
X107694Y348582D01*
X109822Y346454D01*
X112428Y344949D01*
X115335Y344170D01*
X115570D01*
Y354330D01*
D02*
G37*
G36*
X102870D02*
X92710D01*
Y344170D01*
X92945D01*
X95852Y344949D01*
X98458Y346454D01*
X100586Y348582D01*
X102091Y351188D01*
X102870Y354095D01*
Y354330D01*
D02*
G37*
G36*
X90170D02*
X80010D01*
Y354095D01*
X80789Y351188D01*
X82294Y348582D01*
X84422Y346454D01*
X87028Y344949D01*
X89935Y344170D01*
X90170D01*
Y354330D01*
D02*
G37*
G36*
X77470D02*
X67310D01*
Y344170D01*
X67545D01*
X70452Y344949D01*
X73058Y346454D01*
X75186Y348582D01*
X76691Y351188D01*
X77470Y354095D01*
Y354330D01*
D02*
G37*
G36*
X64770D02*
X54610D01*
Y354095D01*
X55389Y351188D01*
X56894Y348582D01*
X59022Y346454D01*
X61628Y344949D01*
X64535Y344170D01*
X64770D01*
Y354330D01*
D02*
G37*
G36*
X306201Y340840D02*
X303399D01*
X300693Y340115D01*
X298267Y338714D01*
X296286Y336733D01*
X294885Y334307D01*
X294160Y331601D01*
Y328799D01*
X294885Y326093D01*
X296286Y323667D01*
X298267Y321686D01*
X300693Y320285D01*
X303399Y319560D01*
X306201D01*
X308907Y320285D01*
X311333Y321686D01*
X313314Y323667D01*
X314715Y326093D01*
X315440Y328799D01*
Y331601D01*
X314715Y334307D01*
X313314Y336733D01*
X311333Y338714D01*
X308907Y340115D01*
X306201Y340840D01*
D02*
G37*
G36*
X473841Y217650D02*
X471039D01*
X468333Y216925D01*
X465907Y215524D01*
X463926Y213543D01*
X462525Y211117D01*
X461800Y208411D01*
Y205609D01*
X462525Y202903D01*
X463926Y200477D01*
X465907Y198496D01*
X468333Y197095D01*
X471039Y196370D01*
X473841D01*
X476547Y197095D01*
X478973Y198496D01*
X480954Y200477D01*
X482355Y202903D01*
X483080Y205609D01*
Y208411D01*
X482355Y211117D01*
X480954Y213543D01*
X478973Y215524D01*
X476547Y216925D01*
X473841Y217650D01*
D02*
G37*
G36*
X448441D02*
X445639D01*
X442933Y216925D01*
X440507Y215524D01*
X438526Y213543D01*
X437125Y211117D01*
X436400Y208411D01*
Y205609D01*
X437125Y202903D01*
X438526Y200477D01*
X440507Y198496D01*
X442933Y197095D01*
X445639Y196370D01*
X448441D01*
X451147Y197095D01*
X453573Y198496D01*
X455554Y200477D01*
X456955Y202903D01*
X457680Y205609D01*
Y208411D01*
X456955Y211117D01*
X455554Y213543D01*
X453573Y215524D01*
X451147Y216925D01*
X448441Y217650D01*
D02*
G37*
G36*
X214497Y213995D02*
X212223D01*
X210123Y213125D01*
X208515Y211517D01*
X207645Y209417D01*
Y207143D01*
X208515Y205043D01*
X210123Y203435D01*
X212223Y202565D01*
X214314D01*
X220153Y196726D01*
Y192675D01*
X218675Y191197D01*
X217805Y189097D01*
Y186823D01*
X218675Y184723D01*
X220283Y183115D01*
X222383Y182245D01*
X224657D01*
X226757Y183115D01*
X228365Y184723D01*
X229235Y186823D01*
Y189097D01*
X228365Y191197D01*
X226887Y192675D01*
Y198120D01*
X226630Y199408D01*
X225901Y200501D01*
X219075Y207326D01*
Y209417D01*
X218205Y211517D01*
X216597Y213125D01*
X214497Y213995D01*
D02*
G37*
G36*
X220847Y172085D02*
X218573D01*
X216473Y171215D01*
X214865Y169607D01*
X213995Y167507D01*
Y165233D01*
X214865Y163133D01*
X216473Y161525D01*
X218573Y160655D01*
X220847D01*
X222947Y161525D01*
X223790Y162368D01*
X241326D01*
X241535Y161863D01*
X243143Y160255D01*
X245243Y159385D01*
X247517D01*
X249617Y160255D01*
X251225Y161863D01*
X252095Y163963D01*
Y166237D01*
X251225Y168337D01*
X249617Y169945D01*
X247517Y170815D01*
X245243D01*
X243143Y169945D01*
X242299Y169102D01*
X224764D01*
X224555Y169607D01*
X222947Y171215D01*
X220847Y172085D01*
D02*
G37*
G36*
X834625Y129540D02*
X834390D01*
Y119380D01*
X844550D01*
Y119615D01*
X843771Y122522D01*
X842266Y125128D01*
X840138Y127256D01*
X837532Y128761D01*
X834625Y129540D01*
D02*
G37*
G36*
X831850D02*
X831615D01*
X828708Y128761D01*
X826102Y127256D01*
X823974Y125128D01*
X822469Y122522D01*
X821690Y119615D01*
Y119380D01*
X831850D01*
Y129540D01*
D02*
G37*
G36*
X397745Y128270D02*
X397510D01*
Y118110D01*
X407670D01*
Y118345D01*
X406891Y121252D01*
X405386Y123858D01*
X403258Y125986D01*
X400652Y127491D01*
X397745Y128270D01*
D02*
G37*
G36*
X394970D02*
X394735D01*
X391828Y127491D01*
X389222Y125986D01*
X387094Y123858D01*
X385589Y121252D01*
X384810Y118345D01*
Y118110D01*
X394970D01*
Y128270D01*
D02*
G37*
G36*
X372345D02*
X372110D01*
Y118110D01*
X382270D01*
Y118345D01*
X381491Y121252D01*
X379986Y123858D01*
X377858Y125986D01*
X375252Y127491D01*
X372345Y128270D01*
D02*
G37*
G36*
X369570D02*
X369335D01*
X366428Y127491D01*
X363822Y125986D01*
X361694Y123858D01*
X360189Y121252D01*
X359410Y118345D01*
Y118110D01*
X369570D01*
Y128270D01*
D02*
G37*
G36*
X346945D02*
X346710D01*
Y118110D01*
X356870D01*
Y118345D01*
X356091Y121252D01*
X354586Y123858D01*
X352458Y125986D01*
X349852Y127491D01*
X346945Y128270D01*
D02*
G37*
G36*
X344170D02*
X343935D01*
X341028Y127491D01*
X338422Y125986D01*
X336294Y123858D01*
X334789Y121252D01*
X334010Y118345D01*
Y118110D01*
X344170D01*
Y128270D01*
D02*
G37*
G36*
X844550Y116840D02*
X834390D01*
Y106680D01*
X834625D01*
X837532Y107459D01*
X840138Y108964D01*
X842266Y111092D01*
X843771Y113698D01*
X844550Y116605D01*
Y116840D01*
D02*
G37*
G36*
X831850D02*
X821690D01*
Y116605D01*
X822469Y113698D01*
X823974Y111092D01*
X826102Y108964D01*
X828708Y107459D01*
X831615Y106680D01*
X831850D01*
Y116840D01*
D02*
G37*
G36*
X407670Y115570D02*
X397510D01*
Y105410D01*
X397745D01*
X400652Y106189D01*
X403258Y107694D01*
X405386Y109822D01*
X406891Y112428D01*
X407670Y115335D01*
Y115570D01*
D02*
G37*
G36*
X394970D02*
X384810D01*
Y115335D01*
X385589Y112428D01*
X387094Y109822D01*
X389222Y107694D01*
X391828Y106189D01*
X394735Y105410D01*
X394970D01*
Y115570D01*
D02*
G37*
G36*
X382270D02*
X372110D01*
Y105410D01*
X372345D01*
X375252Y106189D01*
X377858Y107694D01*
X379986Y109822D01*
X381491Y112428D01*
X382270Y115335D01*
Y115570D01*
D02*
G37*
G36*
X369570D02*
X359410D01*
Y115335D01*
X360189Y112428D01*
X361694Y109822D01*
X363822Y107694D01*
X366428Y106189D01*
X369335Y105410D01*
X369570D01*
Y115570D01*
D02*
G37*
G36*
X356870D02*
X346710D01*
Y105410D01*
X346945D01*
X349852Y106189D01*
X352458Y107694D01*
X354586Y109822D01*
X356091Y112428D01*
X356870Y115335D01*
Y115570D01*
D02*
G37*
G36*
X344170D02*
X334010D01*
Y115335D01*
X334789Y112428D01*
X336294Y109822D01*
X338422Y107694D01*
X341028Y106189D01*
X343935Y105410D01*
X344170D01*
Y115570D01*
D02*
G37*
G36*
X321545Y128270D02*
X318535D01*
X315628Y127491D01*
X313022Y125986D01*
X310894Y123858D01*
X309389Y121252D01*
X308610Y118345D01*
Y115335D01*
X309389Y112428D01*
X310894Y109822D01*
X313022Y107694D01*
X315628Y106189D01*
X318535Y105410D01*
X321545D01*
X324452Y106189D01*
X327058Y107694D01*
X329186Y109822D01*
X330691Y112428D01*
X331470Y115335D01*
Y118345D01*
X330691Y121252D01*
X329186Y123858D01*
X327058Y125986D01*
X324452Y127491D01*
X321545Y128270D01*
D02*
G37*
G36*
X834625Y104140D02*
X834390D01*
Y93980D01*
X844550D01*
Y94215D01*
X843771Y97122D01*
X842266Y99728D01*
X840138Y101856D01*
X837532Y103361D01*
X834625Y104140D01*
D02*
G37*
G36*
X831850D02*
X831615D01*
X828708Y103361D01*
X826102Y101856D01*
X823974Y99728D01*
X822469Y97122D01*
X821690Y94215D01*
Y93980D01*
X831850D01*
Y104140D01*
D02*
G37*
G36*
X844550Y91440D02*
X834390D01*
Y81280D01*
X834625D01*
X837532Y82059D01*
X840138Y83564D01*
X842266Y85692D01*
X843771Y88298D01*
X844550Y91205D01*
Y91440D01*
D02*
G37*
G36*
X831850D02*
X821690D01*
Y91205D01*
X822469Y88298D01*
X823974Y85692D01*
X826102Y83564D01*
X828708Y82059D01*
X831615Y81280D01*
X831850D01*
Y91440D01*
D02*
G37*
G36*
X834625Y78740D02*
X834390D01*
Y68580D01*
X844550D01*
Y68815D01*
X843771Y71722D01*
X842266Y74328D01*
X840138Y76456D01*
X837532Y77961D01*
X834625Y78740D01*
D02*
G37*
G36*
X831850D02*
X831615D01*
X828708Y77961D01*
X826102Y76456D01*
X823974Y74328D01*
X822469Y71722D01*
X821690Y68815D01*
Y68580D01*
X831850D01*
Y78740D01*
D02*
G37*
G36*
X844550Y66040D02*
X834390D01*
Y55880D01*
X834625D01*
X837532Y56659D01*
X840138Y58164D01*
X842266Y60292D01*
X843771Y62898D01*
X844550Y65805D01*
Y66040D01*
D02*
G37*
G36*
X831850D02*
X821690D01*
Y65805D01*
X822469Y62898D01*
X823974Y60292D01*
X826102Y58164D01*
X828708Y56659D01*
X831615Y55880D01*
X831850D01*
Y66040D01*
D02*
G37*
G36*
X834625Y53340D02*
X831615D01*
X828708Y52561D01*
X826102Y51056D01*
X823974Y48928D01*
X822469Y46322D01*
X821690Y43415D01*
Y40405D01*
X822469Y37498D01*
X823974Y34892D01*
X826102Y32764D01*
X828708Y31259D01*
X831615Y30480D01*
X834625D01*
X837532Y31259D01*
X840138Y32764D01*
X842266Y34892D01*
X843771Y37498D01*
X844550Y40405D01*
Y43415D01*
X843771Y46322D01*
X842266Y48928D01*
X840138Y51056D01*
X837532Y52561D01*
X834625Y53340D01*
D02*
G37*
%LPD*%
D17*
X220345Y165735D02*
X245745D01*
X219710Y166370D02*
X220345Y165735D01*
X245745D02*
X246380Y165100D01*
X213360Y208280D02*
X223520Y198120D01*
Y187960D02*
Y198120D01*
D31*
X304800Y330200D02*
D03*
Y355600D02*
D03*
X447040Y207010D02*
D03*
X472440D02*
D03*
D32*
X370840Y116840D02*
D03*
X396240D02*
D03*
X320040D02*
D03*
X345440D02*
D03*
X116840Y355600D02*
D03*
X142240D02*
D03*
X66040D02*
D03*
X91440D02*
D03*
X833120Y67310D02*
D03*
Y41910D02*
D03*
Y118110D02*
D03*
Y92710D02*
D03*
D33*
X141280Y457200D02*
D03*
X81280D02*
D03*
D34*
X116280Y410700D02*
D03*
D35*
X219710Y166370D02*
D03*
X223520Y187960D02*
D03*
X213360Y208280D02*
D03*
X246380Y165100D02*
D03*
X704850Y66040D02*
D03*
X777240D02*
D03*
X486410Y457200D02*
D03*
X393700Y193040D02*
D03*
X248920Y406400D02*
D03*
X218440Y233680D02*
D03*
X137160Y76200D02*
D03*
X631190Y66040D02*
D03*
X558800D02*
D03*
X396240Y233680D02*
D03*
M02*
