G04*
G04 #@! TF.GenerationSoftware,Altium Limited,Altium Designer,23.8.1 (32)*
G04*
G04 Layer_Color=16711935*
%FSLAX44Y44*%
%MOMM*%
G71*
G04*
G04 #@! TF.SameCoordinates,EF1116E4-02E2-45A5-A5C3-51D3E917E2D0*
G04*
G04*
G04 #@! TF.FilePolarity,Negative*
G04*
G01*
G75*
%ADD22C,0.0000*%
%ADD26C,1.8232*%
%ADD27C,1.9812*%
%ADD28O,2.2032X4.0032*%
%ADD29O,3.5032X2.0032*%
%ADD30C,0.8382*%
D22*
X313411Y330200D02*
G03*
X313411Y330200I-8611J0D01*
G01*
Y355600D02*
G03*
X313411Y355600I-8611J0D01*
G01*
X455651Y207010D02*
G03*
X455651Y207010I-8611J0D01*
G01*
X481051D02*
G03*
X481051Y207010I-8611J0D01*
G01*
D26*
X304800Y330200D02*
D03*
Y355600D02*
D03*
X447040Y207010D02*
D03*
X472440D02*
D03*
D27*
X370840Y116840D02*
D03*
X396240D02*
D03*
X320040D02*
D03*
X345440D02*
D03*
X116840Y355600D02*
D03*
X142240D02*
D03*
X66040D02*
D03*
X91440D02*
D03*
X833120Y67310D02*
D03*
Y41910D02*
D03*
Y118110D02*
D03*
Y92710D02*
D03*
D28*
X141280Y457200D02*
D03*
X81280D02*
D03*
D29*
X116280Y410700D02*
D03*
D30*
X219710Y166370D02*
D03*
X223520Y187960D02*
D03*
X213360Y208280D02*
D03*
X246380Y165100D02*
D03*
X704850Y66040D02*
D03*
X777240D02*
D03*
X486410Y457200D02*
D03*
X393700Y193040D02*
D03*
X248920Y406400D02*
D03*
X218440Y233680D02*
D03*
X137160Y76200D02*
D03*
X631190Y66040D02*
D03*
X558800D02*
D03*
X396240Y233680D02*
D03*
M02*
