M48
;Layer_Color=9474304
;FILE_FORMAT=4:4
METRIC,LZ
;TYPE=PLATED
T01F00S00C0.3302
T03F00S00C1.0160
T04F00S00C1.0201
%
T01
X0013716Y000762
X005588Y0006604
X0063119
X0070485
X0077724
X003937Y0019304
X0039624Y0023368
X0021844
X0021336Y0020828
X0022352Y0018796
X0021971Y0016637
X0024638Y001651
X0024892Y004064
X0048641Y004572
T03
X0032004Y0011684
X0034544
X0037084
X0039624
X0083312Y0011811
Y0009271
Y0006731
Y0004191
X0014224Y003556
X0011684
X0009144
X0006604
T04
X003048Y003302
Y003556
X0044704Y0020701
X0047244
M30
