G04*
G04 #@! TF.GenerationSoftware,Altium Limited,Altium Designer,23.8.1 (32)*
G04*
G04 Layer_Color=16711935*
%FSLAX44Y44*%
%MOMM*%
G71*
G04*
G04 #@! TF.SameCoordinates,CBBC78E8-B8C5-4662-8ADF-5789773BA4AE*
G04*
G04*
G04 #@! TF.FilePolarity,Negative*
G04*
G01*
G75*
%ADD25C,0.0000*%
%ADD32C,1.9812*%
%ADD33C,1.8532*%
%ADD34C,1.8232*%
%ADD35O,2.2032X4.0032*%
%ADD36O,3.5032X2.0032*%
%ADD37C,0.8382*%
D25*
X595351Y462280D02*
G03*
X595351Y462280I-8611J0D01*
G01*
X620751D02*
G03*
X620751Y462280I-8611J0D01*
G01*
D32*
X346710Y46990D02*
D03*
X321310D02*
D03*
X397510D02*
D03*
X372110D02*
D03*
X231140Y48260D02*
D03*
X205740D02*
D03*
X281940D02*
D03*
X256540D02*
D03*
X791210Y41910D02*
D03*
X765810D02*
D03*
X842010D02*
D03*
X816610D02*
D03*
X652780Y39370D02*
D03*
X627380D02*
D03*
X703580D02*
D03*
X678180D02*
D03*
X665480Y295910D02*
D03*
X640080D02*
D03*
X716280D02*
D03*
X690880D02*
D03*
X210820Y350520D02*
D03*
X185420D02*
D03*
X261620D02*
D03*
X236220D02*
D03*
X110490Y53340D02*
D03*
X85090D02*
D03*
X161290D02*
D03*
X135890D02*
D03*
X45720Y101600D02*
D03*
Y127000D02*
D03*
Y50800D02*
D03*
Y76200D02*
D03*
X35560Y200660D02*
D03*
Y175260D02*
D03*
Y251460D02*
D03*
Y226060D02*
D03*
X462280Y195580D02*
D03*
Y170180D02*
D03*
Y246380D02*
D03*
Y220980D02*
D03*
X472440Y96520D02*
D03*
Y121920D02*
D03*
Y45720D02*
D03*
Y71120D02*
D03*
X538480Y46990D02*
D03*
X513080D02*
D03*
X589280D02*
D03*
X563880D02*
D03*
X116840Y355600D02*
D03*
X142240D02*
D03*
X66040D02*
D03*
X91440D02*
D03*
D33*
X457200Y417830D02*
D03*
Y443230D02*
D03*
Y468630D02*
D03*
X375920Y208280D02*
D03*
Y233680D02*
D03*
Y259080D02*
D03*
X566420Y224790D02*
D03*
Y250190D02*
D03*
Y275590D02*
D03*
D34*
X586740Y462280D02*
D03*
X612140D02*
D03*
D35*
X141280Y457200D02*
D03*
X81280D02*
D03*
D36*
X116280Y410700D02*
D03*
D37*
X96520Y160020D02*
D03*
X134620Y119380D02*
D03*
X515620Y341630D02*
D03*
X798830Y116840D02*
D03*
Y81280D02*
D03*
Y152400D02*
D03*
X425450Y288290D02*
D03*
X545465Y269240D02*
D03*
X786130Y298450D02*
D03*
X55880Y156210D02*
D03*
X523240Y99060D02*
D03*
X528955Y269240D02*
D03*
X614680Y231140D02*
D03*
X331470Y378460D02*
D03*
X524510Y149860D02*
D03*
X414020Y180340D02*
D03*
X661670Y358140D02*
D03*
X817880Y462280D02*
D03*
X411480Y422910D02*
D03*
X198120Y408940D02*
D03*
X289560Y379730D02*
D03*
M02*
