M48
;Layer_Color=9474304
;FILE_FORMAT=4:4
METRIC,LZ
;TYPE=PLATED
T01F00S00C0.3302
T03F00S00C1.0160
T04F00S00C1.0201
T05F00S00C1.1000
%
T01
X0013462Y0011938
X0052324Y0009906
X0079883Y0011684
Y0008128
Y001524
X0078613Y0029845
X0066167Y0035814
X0061468Y0023114
X00545465Y0026924
X0081788Y0046228
X0051562Y0034163
X00528955Y0026924
X0042545Y0028829
X0041402Y0018034
X0052451Y0014986
X0041148Y0042291
X0033147Y0037846
X0028956Y0037973
X0019812Y0040894
X0009652Y0016002
X0005588Y0015621
T03
X0004572Y000508
Y000762
Y001016
Y00127
X0008509Y0005334
X0011049
X0013589
X0016129
X0020574Y0004826
X0023114
X0025654
X0028194
X0032131Y0004699
X0034671
X0037211
X0039751
X0047244Y0004572
Y0007112
Y0009652
Y0012192
X0051308Y0004699
X0053848
X0056388
X0058928
X0062738Y0003937
X0065278
X0067818
X0070358
X0076581Y0004191
X0079121
X0081661
X0084201
X0071628Y0029591
X0069088
X0066548
X0064008
X0046228Y0024638
Y0022098
Y0019558
Y0017018
X0026162Y0035052
X0023622
X0021082
X0018542
X0014224Y003556
X0011684
X0009144
X0006604
X0003556Y0025146
Y0022606
Y0020066
Y0017526
T04
X0058674Y0046228
X0061214
T05
X0056642Y0022479
Y0025019
Y0027559
X0037592Y0025908
Y0023368
Y0020828
X004572Y0041783
Y0044323
Y0046863
M30
